<svg aria-roledescription="flowchart-v2" role="graphics-document document" viewBox="0 0 1723.8125 2386.65625" style="max-width: 1723.81px; background-color: white;" class="flowchart" xmlns:xlink="http://www.w3.org/1999/xlink" xmlns="http://www.w3.org/2000/svg" width="100%" id="my-svg"><style>#my-svg{font-family:"trebuchet ms",verdana,arial,sans-serif;font-size:16px;fill:#333;}@keyframes edge-animation-frame{from{stroke-dashoffset:0;}}@keyframes dash{to{stroke-dashoffset:0;}}#my-svg .edge-animation-slow{stroke-dasharray:9,5!important;stroke-dashoffset:900;animation:dash 50s linear infinite;stroke-linecap:round;}#my-svg .edge-animation-fast{stroke-dasharray:9,5!important;stroke-dashoffset:900;animation:dash 20s linear infinite;stroke-linecap:round;}#my-svg .error-icon{fill:#552222;}#my-svg .error-text{fill:#552222;stroke:#552222;}#my-svg .edge-thickness-normal{stroke-width:1px;}#my-svg .edge-thickness-thick{stroke-width:3.5px;}#my-svg .edge-pattern-solid{stroke-dasharray:0;}#my-svg .edge-thickness-invisible{stroke-width:0;fill:none;}#my-svg .edge-pattern-dashed{stroke-dasharray:3;}#my-svg .edge-pattern-dotted{stroke-dasharray:2;}#my-svg .marker{fill:#333333;stroke:#333333;}#my-svg .marker.cross{stroke:#333333;}#my-svg svg{font-family:"trebuchet ms",verdana,arial,sans-serif;font-size:16px;}#my-svg p{margin:0;}#my-svg .label{font-family:"trebuchet ms",verdana,arial,sans-serif;color:#333;}#my-svg .cluster-label text{fill:#333;}#my-svg .cluster-label span{color:#333;}#my-svg .cluster-label span p{background-color:transparent;}#my-svg .label text,#my-svg span{fill:#333;color:#333;}#my-svg .node rect,#my-svg .node circle,#my-svg .node ellipse,#my-svg .node polygon,#my-svg .node path{fill:#ECECFF;stroke:#9370DB;stroke-width:1px;}#my-svg .rough-node .label text,#my-svg .node .label text,#my-svg .image-shape .label,#my-svg .icon-shape .label{text-anchor:middle;}#my-svg .node .katex path{fill:#000;stroke:#000;stroke-width:1px;}#my-svg .rough-node .label,#my-svg .node .label,#my-svg .image-shape .label,#my-svg .icon-shape .label{text-align:center;}#my-svg .node.clickable{cursor:pointer;}#my-svg .root .anchor path{fill:#333333!important;stroke-width:0;stroke:#333333;}#my-svg .arrowheadPath{fill:#333333;}#my-svg .edgePath .path{stroke:#333333;stroke-width:2.0px;}#my-svg .flowchart-link{stroke:#333333;fill:none;}#my-svg .edgeLabel{background-color:rgba(232,232,232, 0.8);text-align:center;}#my-svg .edgeLabel p{background-color:rgba(232,232,232, 0.8);}#my-svg .edgeLabel rect{opacity:0.5;background-color:rgba(232,232,232, 0.8);fill:rgba(232,232,232, 0.8);}#my-svg .labelBkg{background-color:rgba(232, 232, 232, 0.5);}#my-svg .cluster rect{fill:#ffffde;stroke:#aaaa33;stroke-width:1px;}#my-svg .cluster text{fill:#333;}#my-svg .cluster span{color:#333;}#my-svg div.mermaidTooltip{position:absolute;text-align:center;max-width:200px;padding:2px;font-family:"trebuchet ms",verdana,arial,sans-serif;font-size:12px;background:hsl(80, 100%, 96.2745098039%);border:1px solid #aaaa33;border-radius:2px;pointer-events:none;z-index:100;}#my-svg .flowchartTitleText{text-anchor:middle;font-size:18px;fill:#333;}#my-svg rect.text{fill:none;stroke-width:0;}#my-svg .icon-shape,#my-svg .image-shape{background-color:rgba(232,232,232, 0.8);text-align:center;}#my-svg .icon-shape p,#my-svg .image-shape p{background-color:rgba(232,232,232, 0.8);padding:2px;}#my-svg .icon-shape rect,#my-svg .image-shape rect{opacity:0.5;background-color:rgba(232,232,232, 0.8);fill:rgba(232,232,232, 0.8);}#my-svg .label-icon{display:inline-block;height:1em;overflow:visible;vertical-align:-0.125em;}#my-svg .node .label-icon path{fill:currentColor;stroke:revert;stroke-width:revert;}#my-svg :root{--mermaid-font-family:"trebuchet ms",verdana,arial,sans-serif;}#my-svg .llm&gt;*{fill:#dbeafe!important;stroke:#3b82f6!important;color:#1e3a5f!important;}#my-svg .llm span{fill:#dbeafe!important;stroke:#3b82f6!important;color:#1e3a5f!important;}#my-svg .llm tspan{fill:#1e3a5f!important;}#my-svg .proc&gt;*{fill:#fef3c7!important;stroke:#f59e0b!important;color:#78350f!important;}#my-svg .proc span{fill:#fef3c7!important;stroke:#f59e0b!important;color:#78350f!important;}#my-svg .proc tspan{fill:#78350f!important;}#my-svg .ctrl&gt;*{fill:#ede9fe!important;stroke:#8b5cf6!important;color:#3b0764!important;}#my-svg .ctrl span{fill:#ede9fe!important;stroke:#8b5cf6!important;color:#3b0764!important;}#my-svg .ctrl tspan{fill:#3b0764!important;}#my-svg .term&gt;*{fill:#fce7f3!important;stroke:#ec4899!important;color:#831843!important;}#my-svg .term span{fill:#fce7f3!important;stroke:#ec4899!important;color:#831843!important;}#my-svg .term tspan{fill:#831843!important;}#my-svg .log&gt;*{fill:#f8fafc!important;stroke:#94a3b8!important;color:#64748b!important;}#my-svg .log span{fill:#f8fafc!important;stroke:#94a3b8!important;color:#64748b!important;}#my-svg .log tspan{fill:#64748b!important;}#my-svg .fn&gt;*{fill:#f0fdf4!important;stroke:#86efac!important;color:#166534!important;}#my-svg .fn span{fill:#f0fdf4!important;stroke:#86efac!important;color:#166534!important;}#my-svg .fn tspan{fill:#166534!important;}#my-svg .assign&gt;*{fill:#f8fafc!important;stroke:#64748b!important;color:#1e293b!important;}#my-svg .assign span{fill:#f8fafc!important;stroke:#64748b!important;color:#1e293b!important;}#my-svg .assign tspan{fill:#1e293b!important;}</style><g><marker orient="auto" markerHeight="8" markerWidth="8" markerUnits="userSpaceOnUse" refY="5" refX="5" viewBox="0 0 10 10" class="marker flowchart-v2" id="my-svg_flowchart-v2-pointEnd"><path style="stroke-width: 1; stroke-dasharray: 1, 0;" class="arrowMarkerPath" d="M 0 0 L 10 5 L 0 10 z"/></marker><marker orient="auto" markerHeight="8" markerWidth="8" markerUnits="userSpaceOnUse" refY="5" refX="4.5" viewBox="0 0 10 10" class="marker flowchart-v2" id="my-svg_flowchart-v2-pointStart"><path style="stroke-width: 1; stroke-dasharray: 1, 0;" class="arrowMarkerPath" d="M 0 5 L 10 10 L 10 0 z"/></marker><marker orient="auto" markerHeight="11" markerWidth="11" markerUnits="userSpaceOnUse" refY="5" refX="11" viewBox="0 0 10 10" class="marker flowchart-v2" id="my-svg_flowchart-v2-circleEnd"><circle style="stroke-width: 1; stroke-dasharray: 1, 0;" class="arrowMarkerPath" r="5" cy="5" cx="5"/></marker><marker orient="auto" markerHeight="11" markerWidth="11" markerUnits="userSpaceOnUse" refY="5" refX="-1" viewBox="0 0 10 10" class="marker flowchart-v2" id="my-svg_flowchart-v2-circleStart"><circle style="stroke-width: 1; stroke-dasharray: 1, 0;" class="arrowMarkerPath" r="5" cy="5" cx="5"/></marker><marker orient="auto" markerHeight="11" markerWidth="11" markerUnits="userSpaceOnUse" refY="5.2" refX="12" viewBox="0 0 11 11" class="marker cross flowchart-v2" id="my-svg_flowchart-v2-crossEnd"><path style="stroke-width: 2; stroke-dasharray: 1, 0;" class="arrowMarkerPath" d="M 1,1 l 9,9 M 10,1 l -9,9"/></marker><marker orient="auto" markerHeight="11" markerWidth="11" markerUnits="userSpaceOnUse" refY="5.2" refX="-1" viewBox="0 0 11 11" class="marker cross flowchart-v2" id="my-svg_flowchart-v2-crossStart"><path style="stroke-width: 2; stroke-dasharray: 1, 0;" class="arrowMarkerPath" d="M 1,1 l 9,9 M 10,1 l -9,9"/></marker><g class="root"><g class="clusters"/><g class="edgePaths"/><g class="edgeLabels"/><g class="nodes"><g transform="translate(0, 1108.828125)" class="root"><g class="clusters"><g data-look="classic" id="FUNCTIONS" class="cluster"><rect height="153" width="330" y="8" x="8" style=""/><g transform="translate(102.7421875, 8)" class="cluster-label"><foreignObject height="24" width="140.515625"><div style="display: table-cell; white-space: nowrap; line-height: 1.5; max-width: 200px; text-align: center;" xmlns="http://www.w3.org/1999/xhtml"><span class="nodeLabel"><p>Function Definitions</p></span></div></foreignObject></g></g></g><g class="edgePaths"/><g class="edgeLabels"/><g class="nodes"><g transform="translate(173, 84.5)" id="flowchart-FN24-62" class="node default fn"><rect height="78" width="260" y="-39" x="-130" style="fill:#f0fdf4 !important;stroke:#86efac !important" class="basic label-container"/><g transform="translate(-100, -24)" style="color:#166534 !important" class="label"><rect/><foreignObject height="48" width="200"><div xmlns="http://www.w3.org/1999/xhtml" style="color: rgb(22, 101, 52) !important; display: table; white-space: break-spaces; line-height: 1.5; max-width: 200px; text-align: center; width: 200px;"><span class="nodeLabel" style="color:#166534 !important"><p>FUNCTION: analyze_risk_factors()</p></span></div></foreignObject></g></g></g></g><g transform="translate(380, 0)" class="root"><g class="clusters"><g data-look="classic" id="SG_credit_risk_assessment" class="cluster"><rect height="2370.65625" width="1327.8125" y="8" x="8" style=""/><g transform="translate(571.90625, 8)" class="cluster-label"><foreignObject height="48" width="200"><div style="display: table; white-space: break-spaces; line-height: 1.5; max-width: 200px; text-align: center; width: 200px;" xmlns="http://www.w3.org/1999/xhtml"><span class="nodeLabel"><p>WORKFLOW: credit_risk_assessment</p></span></div></foreignObject></g></g></g><g class="edgePaths"><path marker-end="url(#my-svg_flowchart-v2-pointEnd)" style="" class="edge-thickness-normal edge-pattern-solid edge-thickness-normal edge-pattern-solid flowchart-link" id="L_LOG5_RET6_0" d="M161.875,707.5L161.792,713.667C161.708,719.833,161.542,732.167,161.458,743.917C161.375,755.667,161.375,766.833,161.375,772.417L161.375,778"/><path marker-end="url(#my-svg_flowchart-v2-pointEnd)" style="" class="edge-thickness-normal edge-pattern-solid edge-thickness-normal edge-pattern-solid flowchart-link" id="L_EVAL3_LOG5_0" d="M260.999,486.437L244.395,504.447C227.791,522.458,194.583,558.479,178.056,584.156C161.528,609.833,161.682,625.167,161.758,632.833L161.835,640.5"/><path marker-end="url(#my-svg_flowchart-v2-pointEnd)" style="" class="edge-thickness-normal edge-pattern-solid edge-thickness-normal edge-pattern-solid flowchart-link" id="L_LOG7_RET8_0" d="M448.625,707.5L448.542,713.667C448.458,719.833,448.292,732.167,448.208,743.917C448.125,755.667,448.125,766.833,448.125,772.417L448.125,778"/><path marker-end="url(#my-svg_flowchart-v2-pointEnd)" style="" class="edge-thickness-normal edge-pattern-solid edge-thickness-normal edge-pattern-solid flowchart-link" id="L_EVAL3_LOG7_0" d="M372.776,492.786L385.334,509.739C397.892,526.691,423.009,560.595,435.644,585.214C448.278,609.833,448.432,625.167,448.508,632.833L448.585,640.5"/><path marker-end="url(#my-svg_flowchart-v2-pointEnd)" style="" class="edge-thickness-normal edge-pattern-solid edge-thickness-normal edge-pattern-solid flowchart-link" id="L_EVAL3_LOG9_0" d="M407.01,458.552L460.654,481.21C514.298,503.868,621.587,549.184,675.308,579.509C729.028,609.833,729.182,625.167,729.258,632.833L729.335,640.5"/><path marker-end="url(#my-svg_flowchart-v2-pointEnd)" style="" class="edge-thickness-normal edge-pattern-solid edge-thickness-normal edge-pattern-solid flowchart-link" id="L_LOG9_MERGE4_0" d="M729.375,707.5L729.292,713.667C729.208,719.833,729.042,732.167,728.958,748.667C728.875,765.167,728.875,785.833,728.875,796.167L728.875,806.5"/><path marker-end="url(#my-svg_flowchart-v2-pointEnd)" style="" class="edge-thickness-normal edge-pattern-solid edge-thickness-normal edge-pattern-solid flowchart-link" id="L_LOG2_EVAL3_0" d="M320.063,223L319.979,229.167C319.896,235.333,319.729,247.667,319.72,259.5C319.712,271.333,319.861,282.667,319.935,288.334L320.01,294"/><path marker-end="url(#my-svg_flowchart-v2-pointEnd)" style="" class="edge-thickness-normal edge-pattern-solid edge-thickness-normal edge-pattern-solid flowchart-link" id="L_MERGE4_GEN10_0" d="M728.875,840.5L728.875,851.5C728.875,862.5,728.875,884.5,728.95,901.167C729.024,917.833,729.173,929.167,729.248,934.834L729.322,940.5"/><path marker-end="url(#my-svg_flowchart-v2-pointEnd)" style="" class="edge-thickness-normal edge-pattern-solid edge-thickness-normal edge-pattern-solid flowchart-link" id="L_GEN10_SUB11_0" d="M729.375,1031.5L729.292,1037.667C729.208,1043.833,729.042,1056.167,729.033,1068C729.024,1079.833,729.173,1091.167,729.248,1096.834L729.322,1102.5"/><path marker-end="url(#my-svg_flowchart-v2-pointEnd)" style="" class="edge-thickness-normal edge-pattern-solid edge-thickness-normal edge-pattern-solid flowchart-link" id="L_SUB11_SUB12_0" d="M729.375,1193.5L729.292,1199.667C729.208,1205.833,729.042,1218.167,729.033,1230C729.024,1241.833,729.173,1253.167,729.248,1258.834L729.322,1264.5"/><path marker-end="url(#my-svg_flowchart-v2-pointEnd)" style="" class="edge-thickness-normal edge-pattern-solid edge-thickness-normal edge-pattern-solid flowchart-link" id="L_SUB12_LOG13_0" d="M729.375,1355.5L729.292,1361.667C729.208,1367.833,729.042,1380.167,729.039,1409.917C729.037,1439.667,729.199,1486.833,729.28,1510.417L729.361,1534"/><path marker-end="url(#my-svg_flowchart-v2-pointEnd)" style="" class="edge-thickness-normal edge-pattern-solid edge-thickness-normal edge-pattern-solid flowchart-link" id="L_LOG13_SUB14_0" d="M729.375,1601L729.292,1625.083C729.208,1649.167,729.042,1697.333,729.033,1727.083C729.024,1756.833,729.173,1768.167,729.248,1773.834L729.322,1779.5"/><path marker-end="url(#my-svg_flowchart-v2-pointEnd)" style="" class="edge-thickness-normal edge-pattern-solid edge-thickness-normal edge-pattern-solid flowchart-link" id="L_EVAL15_RET17_0" d="M645.229,2095.51L588.233,2117.701C531.236,2139.892,417.243,2184.274,360.247,2214.049C303.25,2243.823,303.25,2258.99,303.25,2266.573L303.25,2274.156"/><path marker-end="url(#my-svg_flowchart-v2-pointEnd)" style="" class="edge-thickness-normal edge-pattern-solid edge-thickness-normal edge-pattern-solid flowchart-link" id="L_EVAL15_RET18_0" d="M678.376,2128.657L665.365,2145.324C652.355,2161.99,626.334,2195.323,613.323,2219.573C600.313,2243.823,600.313,2258.99,600.313,2266.573L600.313,2274.156"/><path marker-end="url(#my-svg_flowchart-v2-pointEnd)" style="" class="edge-thickness-normal edge-pattern-solid edge-thickness-normal edge-pattern-solid flowchart-link" id="L_EVAL15_RET19_0" d="M785.271,2123.76L801.237,2141.243C817.202,2158.725,849.132,2193.691,865.097,2218.757C881.063,2243.823,881.063,2258.99,881.063,2266.573L881.063,2274.156"/><path marker-end="url(#my-svg_flowchart-v2-pointEnd)" style="" class="edge-thickness-normal edge-pattern-solid edge-thickness-normal edge-pattern-solid flowchart-link" id="L_SUB14_EVAL15_0" d="M729.375,1870.5L729.292,1876.667C729.208,1882.833,729.042,1895.167,729.033,1907C729.024,1918.833,729.173,1930.167,729.248,1935.834L729.322,1941.5"/><path marker-end="url(#my-svg_flowchart-v2-pointEnd)" style="" class="edge-thickness-normal edge-pattern-solid edge-thickness-normal edge-pattern-solid flowchart-link" id="L_START1_LOG2_0" d="M319.563,84.5L319.563,90.75C319.563,97,319.563,109.5,319.637,121.417C319.712,133.333,319.861,144.667,319.935,150.334L320.01,156"/><path marker-end="url(#my-svg_flowchart-v2-pointEnd)" style="" class="edge-thickness-normal edge-pattern-solid edge-thickness-normal edge-pattern-solid flowchart-link" id="L_A21_LOG22_0" d="M1161.813,1865.5L1161.813,1872.5C1161.813,1879.5,1161.813,1893.5,1161.893,1920.43C1161.974,1947.359,1162.135,1987.219,1162.216,2007.148L1162.296,2027.078"/><path marker-end="url(#my-svg_flowchart-v2-pointEnd)" style="" class="edge-thickness-normal edge-pattern-solid edge-thickness-normal edge-pattern-solid flowchart-link" id="L_LOG22_RET23_0" d="M1162.313,2094.078L1162.229,2116.508C1162.146,2138.938,1161.979,2183.797,1161.896,2213.81C1161.813,2243.823,1161.813,2258.99,1161.813,2266.573L1161.813,2274.156"/><path marker-end="url(#my-svg_flowchart-v2-pointEnd)" style="" class="edge-thickness-normal edge-pattern-solid edge-thickness-normal edge-pattern-solid flowchart-link" id="L_EXC20_A21_0" d="M1162.313,1708.5L1162.229,1714.667C1162.146,1720.833,1161.979,1733.167,1161.896,1745.667C1161.813,1758.167,1161.813,1770.833,1161.813,1777.167L1161.813,1783.5"/></g><g class="edgeLabels"><g class="edgeLabel"><g transform="translate(0, 0)" class="label"><foreignObject height="0" width="0"><div style="display: table-cell; white-space: nowrap; line-height: 1.5; max-width: 200px; text-align: center;" class="labelBkg" xmlns="http://www.w3.org/1999/xhtml"><span class="edgeLabel"></span></div></foreignObject></g></g><g transform="translate(161.375, 594.5)" class="edgeLabel"><g transform="translate(-46.90625, -12)" class="label"><foreignObject height="24" width="93.8125"><div style="display: table-cell; white-space: nowrap; line-height: 1.5; max-width: 200px; text-align: center;" class="labelBkg" xmlns="http://www.w3.org/1999/xhtml"><span class="edgeLabel"><p>WHEN &lt; 600</p></span></div></foreignObject></g></g><g class="edgeLabel"><g transform="translate(0, 0)" class="label"><foreignObject height="0" width="0"><div style="display: table-cell; white-space: nowrap; line-height: 1.5; max-width: 200px; text-align: center;" class="labelBkg" xmlns="http://www.w3.org/1999/xhtml"><span class="edgeLabel"></span></div></foreignObject></g></g><g transform="translate(448.125, 594.5)" class="edgeLabel"><g transform="translate(-51.578125, -12)" class="label"><foreignObject height="24" width="103.15625"><div style="display: table-cell; white-space: nowrap; line-height: 1.5; max-width: 200px; text-align: center;" class="labelBkg" xmlns="http://www.w3.org/1999/xhtml"><span class="edgeLabel"><p>WHEN &gt;= 750</p></span></div></foreignObject></g></g><g transform="translate(728.875, 594.5)" class="edgeLabel"><g transform="translate(-20.4609375, -12)" class="label"><foreignObject height="24" width="40.921875"><div style="display: table-cell; white-space: nowrap; line-height: 1.5; max-width: 200px; text-align: center;" class="labelBkg" xmlns="http://www.w3.org/1999/xhtml"><span class="edgeLabel"><p>ELSE</p></span></div></foreignObject></g></g><g class="edgeLabel"><g transform="translate(0, 0)" class="label"><foreignObject height="0" width="0"><div style="display: table-cell; white-space: nowrap; line-height: 1.5; max-width: 200px; text-align: center;" class="labelBkg" xmlns="http://www.w3.org/1999/xhtml"><span class="edgeLabel"></span></div></foreignObject></g></g><g class="edgeLabel"><g transform="translate(0, 0)" class="label"><foreignObject height="0" width="0"><div style="display: table-cell; white-space: nowrap; line-height: 1.5; max-width: 200px; text-align: center;" class="labelBkg" xmlns="http://www.w3.org/1999/xhtml"><span class="edgeLabel"></span></div></foreignObject></g></g><g class="edgeLabel"><g transform="translate(0, 0)" class="label"><foreignObject height="0" width="0"><div style="display: table-cell; white-space: nowrap; line-height: 1.5; max-width: 200px; text-align: center;" class="labelBkg" xmlns="http://www.w3.org/1999/xhtml"><span class="edgeLabel"></span></div></foreignObject></g></g><g class="edgeLabel"><g transform="translate(0, 0)" class="label"><foreignObject height="0" width="0"><div style="display: table-cell; white-space: nowrap; line-height: 1.5; max-width: 200px; text-align: center;" class="labelBkg" xmlns="http://www.w3.org/1999/xhtml"><span class="edgeLabel"></span></div></foreignObject></g></g><g class="edgeLabel"><g transform="translate(0, 0)" class="label"><foreignObject height="0" width="0"><div style="display: table-cell; white-space: nowrap; line-height: 1.5; max-width: 200px; text-align: center;" class="labelBkg" xmlns="http://www.w3.org/1999/xhtml"><span class="edgeLabel"></span></div></foreignObject></g></g><g class="edgeLabel"><g transform="translate(0, 0)" class="label"><foreignObject height="0" width="0"><div style="display: table-cell; white-space: nowrap; line-height: 1.5; max-width: 200px; text-align: center;" class="labelBkg" xmlns="http://www.w3.org/1999/xhtml"><span class="edgeLabel"></span></div></foreignObject></g></g><g class="edgeLabel"><g transform="translate(0, 0)" class="label"><foreignObject height="0" width="0"><div style="display: table-cell; white-space: nowrap; line-height: 1.5; max-width: 200px; text-align: center;" class="labelBkg" xmlns="http://www.w3.org/1999/xhtml"><span class="edgeLabel"></span></div></foreignObject></g></g><g transform="translate(303.25, 2228.65625)" class="edgeLabel"><g transform="translate(-41.7890625, -12)" class="label"><foreignObject height="24" width="83.578125"><div style="display: table-cell; white-space: nowrap; line-height: 1.5; max-width: 200px; text-align: center;" class="labelBkg" xmlns="http://www.w3.org/1999/xhtml"><span class="edgeLabel"><p>WHEN high</p></span></div></foreignObject></g></g><g transform="translate(600.3125, 2228.65625)" class="edgeLabel"><g transform="translate(-55.1171875, -12)" class="label"><foreignObject height="24" width="110.234375"><div style="display: table-cell; white-space: nowrap; line-height: 1.5; max-width: 200px; text-align: center;" class="labelBkg" xmlns="http://www.w3.org/1999/xhtml"><span class="edgeLabel"><p>WHEN medium</p></span></div></foreignObject></g></g><g transform="translate(881.0625, 2228.65625)" class="edgeLabel"><g transform="translate(-20.4609375, -12)" class="label"><foreignObject height="24" width="40.921875"><div style="display: table-cell; white-space: nowrap; line-height: 1.5; max-width: 200px; text-align: center;" class="labelBkg" xmlns="http://www.w3.org/1999/xhtml"><span class="edgeLabel"><p>ELSE</p></span></div></foreignObject></g></g><g class="edgeLabel"><g transform="translate(0, 0)" class="label"><foreignObject height="0" width="0"><div style="display: table-cell; white-space: nowrap; line-height: 1.5; max-width: 200px; text-align: center;" class="labelBkg" xmlns="http://www.w3.org/1999/xhtml"><span class="edgeLabel"></span></div></foreignObject></g></g><g class="edgeLabel"><g transform="translate(0, 0)" class="label"><foreignObject height="0" width="0"><div style="display: table-cell; white-space: nowrap; line-height: 1.5; max-width: 200px; text-align: center;" class="labelBkg" xmlns="http://www.w3.org/1999/xhtml"><span class="edgeLabel"></span></div></foreignObject></g></g><g class="edgeLabel"><g transform="translate(0, 0)" class="label"><foreignObject height="0" width="0"><div style="display: table-cell; white-space: nowrap; line-height: 1.5; max-width: 200px; text-align: center;" class="labelBkg" xmlns="http://www.w3.org/1999/xhtml"><span class="edgeLabel"></span></div></foreignObject></g></g><g class="edgeLabel"><g transform="translate(0, 0)" class="label"><foreignObject height="0" width="0"><div style="display: table-cell; white-space: nowrap; line-height: 1.5; max-width: 200px; text-align: center;" class="labelBkg" xmlns="http://www.w3.org/1999/xhtml"><span class="edgeLabel"></span></div></foreignObject></g></g><g class="edgeLabel"><g transform="translate(0, 0)" class="label"><foreignObject height="0" width="0"><div style="display: table-cell; white-space: nowrap; line-height: 1.5; max-width: 200px; text-align: center;" class="labelBkg" xmlns="http://www.w3.org/1999/xhtml"><span class="edgeLabel"></span></div></foreignObject></g></g></g><g class="nodes"><g transform="translate(319.5625, 65)" id="flowchart-START1-0" class="node default term"><rect height="39" width="58.546875" y="-19.5" x="-29.2734375" ry="19.5" rx="19.5" style="fill:#fce7f3 !important;stroke:#ec4899 !important" class="basic label-container"/><g transform="translate(-16.8984375, -12)" style="color:#831843 !important" class="label"><rect/><foreignObject height="24" width="33.796875"><div xmlns="http://www.w3.org/1999/xhtml" style="color: rgb(131, 24, 67) !important; display: table-cell; white-space: nowrap; line-height: 1.5; max-width: 200px; text-align: center;"><span class="nodeLabel" style="color:#831843 !important"><p>Start</p></span></div></foreignObject></g></g><g transform="translate(161.375, 675.5)" id="flowchart-LOG5-3" class="node default log"><g transform="translate(7.875,0)" class="basic label-container"><path style="fill:#f8fafc !important;stroke:#94a3b8 !important" fill="#f8fafc" stroke-width="0" stroke="none" d="M-123.25 -31.5 C-119.27949027497662 -23.558980549953258, -115.30898054995326 -15.617961099906518, -107.5 0 C-110.96561306802697 6.931226136053945, -114.43122613605395 13.86245227210789, -123.25 31.5 C-49.45059559584428 31.5, 24.348808808311446 31.5, 107.5 31.5 C107.5 7.985633129505825, 107.5 -15.52873374098835, 107.5 -31.5 C45.65587197289847 -31.5, -16.188256054203066 -31.5, -123.25 -31.5"/><path style="fill:#f8fafc !important;stroke:#94a3b8 !important" fill="none" stroke-width="1.3" stroke="#94a3b8" d="M-123.25 -31.5 C-118.01604684581939 -21.032093691638778, -112.78209369163878 -10.564187383277556, -107.5 0 M-123.25 -31.5 C-118.77761239235659 -22.555224784713168, -114.30522478471318 -13.61044956942634, -107.5 0 M-107.5 0 C-111.31984374222596 7.639687484451905, -115.13968748445191 15.27937496890381, -123.25 31.5 M-107.5 0 C-113.29671934460151 11.593438689203033, -119.09343868920303 23.186877378406066, -123.25 31.5 M-123.25 31.5 C-73.45638549591183 31.5, -23.66277099182365 31.5, 107.5 31.5 M-123.25 31.5 C-62.301563372655394 31.5, -1.3531267453107887 31.5, 107.5 31.5 M107.5 31.5 C107.5 9.52029169589942, 107.5 -12.45941660820116, 107.5 -31.5 M107.5 31.5 C107.5 18.195077428949833, 107.5 4.890154857899667, 107.5 -31.5 M107.5 -31.5 C38.73937538419824 -31.5, -30.02124923160352 -31.5, -123.25 -31.5 M107.5 -31.5 C54.369385506928204 -31.5, 1.2387710138564074 -31.5, -123.25 -31.5"/></g><g transform="translate(-92.125, -24)" style="color:#64748b !important" class="label"><rect/><foreignObject height="48" width="200"><div xmlns="http://www.w3.org/1999/xhtml" style="color: rgb(100, 116, 139) !important; display: table; white-space: break-spaces; line-height: 1.5; max-width: 200px; text-align: center; width: 200px;"><span class="nodeLabel" style="color:#64748b !important"><p>LOG(WARN) 'Auto-reject: credit ...'</p></span></div></foreignObject></g></g><g transform="translate(161.375, 825.5)" id="flowchart-RET6-4" class="node default term"><rect height="87" width="236.75" y="-43.5" x="-118.375" ry="43.5" rx="43.5" style="fill:#fce7f3 !important;stroke:#ec4899 !important" class="basic label-container"/><g transform="translate(-100, -36)" style="color:#831843 !important" class="label"><rect/><foreignObject height="72" width="200"><div xmlns="http://www.w3.org/1999/xhtml" style="color: rgb(131, 24, 67) !important; display: table; white-space: break-spaces; line-height: 1.5; max-width: 200px; text-align: center; width: 200px;"><span class="nodeLabel" style="color:#831843 !important"><p>RETURN 'REJECTED' (reason='scor..., score=@cred...)</p></span></div></foreignObject></g></g><g transform="translate(319.5625, 421.25)" id="flowchart-EVAL3-2" class="node default ctrl"><polygon style="fill:#ede9fe !important;stroke:#8b5cf6 !important" transform="translate(-123.75,123.75)" class="label-container" points="123.75,0 247.5,-123.75 123.75,-247.5 0,-123.75"/><g transform="translate(-96.75, -12)" style="color:#3b0764 !important" class="label"><rect/><foreignObject height="24" width="193.5"><div xmlns="http://www.w3.org/1999/xhtml" style="color: rgb(59, 7, 100) !important; display: table-cell; white-space: nowrap; line-height: 1.5; max-width: 200px; text-align: center;"><span class="nodeLabel" style="color:#3b0764 !important"><p>EVALUATE: @credit_score</p></span></div></foreignObject></g></g><g transform="translate(448.125, 675.5)" id="flowchart-LOG7-9" class="node default log"><g transform="translate(7.875,0)" class="basic label-container"><path style="fill:#f8fafc !important;stroke:#94a3b8 !important" fill="#f8fafc" stroke-width="0" stroke="none" d="M-123.25 -31.5 C-118.2322371626931 -21.464474325386192, -113.21447432538619 -11.428948650772384, -107.5 0 C-111.72092886511803 8.441857730236055, -115.94185773023605 16.88371546047211, -123.25 31.5 C-45.743146282276626 31.5, 31.763707435446747 31.5, 107.5 31.5 C107.5 12.46204820305121, 107.5 -6.5759035938975785, 107.5 -31.5 C30.15217440931471 -31.5, -47.19565118137058 -31.5, -123.25 -31.5"/><path style="fill:#f8fafc !important;stroke:#94a3b8 !important" fill="none" stroke-width="1.3" stroke="#94a3b8" d="M-123.25 -31.5 C-119.57828331614849 -24.156566632296958, -115.90656663229696 -16.81313326459392, -107.5 0 M-123.25 -31.5 C-119.13535823210135 -23.270716464202707, -115.0207164642027 -15.041432928405413, -107.5 0 M-107.5 0 C-112.85759986066006 10.71519972132012, -118.21519972132012 21.43039944264024, -123.25 31.5 M-107.5 0 C-111.1372242481552 7.274448496310419, -114.77444849631041 14.548896992620838, -123.25 31.5 M-123.25 31.5 C-53.56010942272597 31.5, 16.129781154548056 31.5, 107.5 31.5 M-123.25 31.5 C-70.83458010119415 31.5, -18.419160202388284 31.5, 107.5 31.5 M107.5 31.5 C107.5 11.29099944331217, 107.5 -8.91800111337566, 107.5 -31.5 M107.5 31.5 C107.5 12.938388464380758, 107.5 -5.623223071238485, 107.5 -31.5 M107.5 -31.5 C51.587421578781914 -31.5, -4.325156842436172 -31.5, -123.25 -31.5 M107.5 -31.5 C24.144569873217634 -31.5, -59.21086025356473 -31.5, -123.25 -31.5"/></g><g transform="translate(-92.125, -24)" style="color:#64748b !important" class="label"><rect/><foreignObject height="48" width="200"><div xmlns="http://www.w3.org/1999/xhtml" style="color: rgb(100, 116, 139) !important; display: table; white-space: break-spaces; line-height: 1.5; max-width: 200px; text-align: center; width: 200px;"><span class="nodeLabel" style="color:#64748b !important"><p>LOG(INFO) 'Auto-approve: excell...'</p></span></div></foreignObject></g></g><g transform="translate(448.125, 825.5)" id="flowchart-RET8-10" class="node default term"><rect height="87" width="236.75" y="-43.5" x="-118.375" ry="43.5" rx="43.5" style="fill:#fce7f3 !important;stroke:#ec4899 !important" class="basic label-container"/><g transform="translate(-100, -36)" style="color:#831843 !important" class="label"><rect/><foreignObject height="72" width="200"><div xmlns="http://www.w3.org/1999/xhtml" style="color: rgb(131, 24, 67) !important; display: table; white-space: break-spaces; line-height: 1.5; max-width: 200px; text-align: center; width: 200px;"><span class="nodeLabel" style="color:#831843 !important"><p>RETURN 'APPROVED' (reason='scor..., score=@cred...)</p></span></div></foreignObject></g></g><g transform="translate(728.875, 675.5)" id="flowchart-LOG9-15" class="node default log"><g transform="translate(7.875,0)" class="basic label-container"><path style="fill:#f8fafc !important;stroke:#94a3b8 !important" fill="#f8fafc" stroke-width="0" stroke="none" d="M-123.25 -31.5 C-119.5877816436884 -24.175563287376814, -115.92556328737682 -16.85112657475363, -107.5 0 C-112.86054946660391 10.721098933207813, -118.22109893320781 21.442197866415626, -123.25 31.5 C-55.75340623605432 31.5, 11.743187527891365 31.5, 107.5 31.5 C107.5 17.639934592530878, 107.5 3.7798691850617523, 107.5 -31.5 C40.146647305549465 -31.5, -27.20670538890107 -31.5, -123.25 -31.5"/><path style="fill:#f8fafc !important;stroke:#94a3b8 !important" fill="none" stroke-width="1.3" stroke="#94a3b8" d="M-123.25 -31.5 C-119.60565202873097 -24.21130405746196, -115.96130405746196 -16.922608114923918, -107.5 0 M-123.25 -31.5 C-119.63601736757573 -24.272034735151465, -116.02203473515146 -17.044069470302933, -107.5 0 M-107.5 0 C-112.19894058736561 9.397881174731237, -116.89788117473124 18.795762349462475, -123.25 31.5 M-107.5 0 C-113.52144874489288 12.042897489785767, -119.54289748978577 24.085794979571535, -123.25 31.5 M-123.25 31.5 C-34.09901545544828 31.5, 55.05196908910344 31.5, 107.5 31.5 M-123.25 31.5 C-55.13886100172259 31.5, 12.972277996554823 31.5, 107.5 31.5 M107.5 31.5 C107.5 6.893093593100193, 107.5 -17.713812813799613, 107.5 -31.5 M107.5 31.5 C107.5 17.764452962374072, 107.5 4.028905924748141, 107.5 -31.5 M107.5 -31.5 C21.771802734504575 -31.5, -63.95639453099085 -31.5, -123.25 -31.5 M107.5 -31.5 C19.30494090008783 -31.5, -68.89011819982434 -31.5, -123.25 -31.5"/></g><g transform="translate(-92.125, -24)" style="color:#64748b !important" class="label"><rect/><foreignObject height="48" width="200"><div xmlns="http://www.w3.org/1999/xhtml" style="color: rgb(100, 116, 139) !important; display: table; white-space: break-spaces; line-height: 1.5; max-width: 200px; text-align: center; width: 200px;"><span class="nodeLabel" style="color:#64748b !important"><p>LOG(INFO) 'Score in gray zone —...'</p></span></div></foreignObject></g></g><g transform="translate(728.875, 825.5)" id="flowchart-MERGE4-19" class="node default"><rect height="30" width="60" y="-15" x="-30" style="" class="basic label-container"/><g transform="translate(0, 0)" style="" class="label"><rect/><foreignObject height="0" width="0"><div style="display: table-cell; white-space: nowrap; line-height: 1.5; max-width: 200px; text-align: center;" xmlns="http://www.w3.org/1999/xhtml"><span class="nodeLabel"></span></div></foreignObject></g></g><g transform="translate(319.5625, 191)" id="flowchart-LOG2-1" class="node default log"><g transform="translate(7.875,0)" class="basic label-container"><path style="fill:#f8fafc !important;stroke:#94a3b8 !important" fill="#f8fafc" stroke-width="0" stroke="none" d="M-123.25 -31.5 C-119.35113227216424 -23.702264544328486, -115.45226454432849 -15.90452908865697, -107.5 0 C-112.31350185396946 9.627003707938918, -117.12700370793891 19.254007415877837, -123.25 31.5 C-73.77425371728654 31.5, -24.298507434573096 31.5, 107.5 31.5 C107.5 18.04968736883547, 107.5 4.599374737670946, 107.5 -31.5 C45.43883152768672 -31.5, -16.622336944626554 -31.5, -123.25 -31.5"/><path style="fill:#f8fafc !important;stroke:#94a3b8 !important" fill="none" stroke-width="1.3" stroke="#94a3b8" d="M-123.25 -31.5 C-117.65238752321648 -20.304775046432965, -112.05477504643297 -9.109550092865927, -107.5 0 M-123.25 -31.5 C-119.15764753194242 -23.315295063884825, -115.06529506388483 -15.13059012776965, -107.5 0 M-107.5 0 C-112.25581295133755 9.511625902675105, -117.0116259026751 19.02325180535021, -123.25 31.5 M-107.5 0 C-110.88668081574414 6.773361631488276, -114.27336163148827 13.546723262976553, -123.25 31.5 M-123.25 31.5 C-67.3608580469428 31.5, -11.47171609388559 31.5, 107.5 31.5 M-123.25 31.5 C-37.27888269525924 31.5, 48.69223460948152 31.5, 107.5 31.5 M107.5 31.5 C107.5 7.902742883042933, 107.5 -15.694514233914134, 107.5 -31.5 M107.5 31.5 C107.5 17.898067444629298, 107.5 4.296134889258596, 107.5 -31.5 M107.5 -31.5 C18.746284665214333 -31.5, -70.00743066957133 -31.5, -123.25 -31.5 M107.5 -31.5 C40.608967758286454 -31.5, -26.282064483427092 -31.5, -123.25 -31.5"/></g><g transform="translate(-92.125, -24)" style="color:#64748b !important" class="label"><rect/><foreignObject height="48" width="200"><div xmlns="http://www.w3.org/1999/xhtml" style="color: rgb(100, 116, 139) !important; display: table; white-space: break-spaces; line-height: 1.5; max-width: 200px; text-align: center; width: 200px;"><span class="nodeLabel" style="color:#64748b !important"><p>LOG(INFO) f'Assessing applican...'</p></span></div></foreignObject></g></g><g transform="translate(728.875, 987.5)" id="flowchart-GEN10-23" class="node default llm"><polygon style="fill:#dbeafe !important;stroke:#3b82f6 !important" transform="translate(-132.5625,43.5)" class="label-container" points="-43.5,0 265.125,0 308.625,-87 0,-87"/><g transform="translate(-125.0625, -36)" style="color:#1e3a5f !important" class="label"><rect/><foreignObject height="72" width="250.125"><div xmlns="http://www.w3.org/1999/xhtml" style="color: rgb(30, 58, 95) !important; display: table; white-space: break-spaces; line-height: 1.5; max-width: 200px; text-align: center; width: 200px;"><span class="nodeLabel" style="color:#1e3a5f !important"><p>GENERATE analyze_risk_factors(@applican...) -&gt; @risk_report</p></span></div></foreignObject></g></g><g transform="translate(728.875, 1149.5)" id="flowchart-SUB11-26" class="node default proc"><polygon style="fill:#fef3c7 !important;stroke:#f59e0b !important" transform="translate(-107.5,43.5)" class="label-container" points="0,0 215,0 215,-87 0,-87 0,0 -8,0 223,0 223,-87 -8,-87 -8,0"/><g transform="translate(-100, -36)" style="color:#78350f !important" class="label"><rect/><foreignObject height="72" width="200"><div xmlns="http://www.w3.org/1999/xhtml" style="color: rgb(120, 53, 15) !important; display: table; white-space: break-spaces; line-height: 1.5; max-width: 200px; text-align: center; width: 200px;"><span class="nodeLabel" style="color:#78350f !important"><p>CALL write_file(f'(@log_d..., @risk_report)</p></span></div></foreignObject></g></g><g transform="translate(728.875, 1311.5)" id="flowchart-SUB12-29" class="node default proc"><polygon style="fill:#fef3c7 !important;stroke:#f59e0b !important" transform="translate(-126.3203125,43.5)" class="label-container" points="0,0 252.640625,0 252.640625,-87 0,-87 0,0 -8,0 260.640625,0 260.640625,-87 -8,-87 -8,0"/><g transform="translate(-118.8203125, -36)" style="color:#78350f !important" class="label"><rect/><foreignObject height="72" width="237.640625"><div xmlns="http://www.w3.org/1999/xhtml" style="color: rgb(120, 53, 15) !important; display: table; white-space: break-spaces; line-height: 1.5; max-width: 200px; text-align: center; width: 200px;"><span class="nodeLabel" style="color:#78350f !important"><p>CALL extract_risk_rating(@risk_report) -&gt; @risk_rating</p></span></div></foreignObject></g></g><g transform="translate(728.875, 1569)" id="flowchart-LOG13-32" class="node default log"><g transform="translate(7.875,0)" class="basic label-container"><path style="fill:#f8fafc !important;stroke:#94a3b8 !important" fill="#f8fafc" stroke-width="0" stroke="none" d="M-123.25 -31.5 C-120.09097854724044 -25.181957094480868, -116.93195709448086 -18.863914188961736, -107.5 0 C-113.65232802857115 12.304656057142306, -119.80465605714231 24.609312114284613, -123.25 31.5 C-38.63987778090831 31.5, 45.970244438183386 31.5, 107.5 31.5 C107.5 7.054527495909923, 107.5 -17.390945008180154, 107.5 -31.5 C59.15784241941851 -31.5, 10.815684838837015 -31.5, -123.25 -31.5"/><path style="fill:#f8fafc !important;stroke:#94a3b8 !important" fill="none" stroke-width="1.3" stroke="#94a3b8" d="M-123.25 -31.5 C-119.21216492608787 -23.42432985217572, -115.17432985217572 -15.34865970435144, -107.5 0 M-123.25 -31.5 C-118.73171897955862 -22.46343795911725, -114.21343795911726 -13.426875918234504, -107.5 0 M-107.5 0 C-112.52921479206078 10.058429584121564, -117.55842958412157 20.116859168243128, -123.25 31.5 M-107.5 0 C-113.18346043281088 11.366920865621744, -118.86692086562175 22.733841731243487, -123.25 31.5 M-123.25 31.5 C-74.70503084041243 31.5, -26.16006168082488 31.5, 107.5 31.5 M-123.25 31.5 C-54.67171217101492 31.5, 13.906575657970166 31.5, 107.5 31.5 M107.5 31.5 C107.5 11.446103074204242, 107.5 -8.607793851591516, 107.5 -31.5 M107.5 31.5 C107.5 8.25387014515012, 107.5 -14.99225970969976, 107.5 -31.5 M107.5 -31.5 C32.147904798206056 -31.5, -43.20419040358789 -31.5, -123.25 -31.5 M107.5 -31.5 C20.511186404520117 -31.5, -66.47762719095977 -31.5, -123.25 -31.5"/></g><g transform="translate(-92.125, -24)" style="color:#64748b !important" class="label"><rect/><foreignObject height="48" width="200"><div xmlns="http://www.w3.org/1999/xhtml" style="color: rgb(100, 116, 139) !important; display: table; white-space: break-spaces; line-height: 1.5; max-width: 200px; text-align: center; width: 200px;"><span class="nodeLabel" style="color:#64748b !important"><p>LOG(DEBUG) f'Extracted risk rat...'</p></span></div></foreignObject></g></g><g transform="translate(728.875, 1826.5)" id="flowchart-SUB14-35" class="node default proc"><polygon style="fill:#fef3c7 !important;stroke:#f59e0b !important" transform="translate(-107.5,43.5)" class="label-container" points="0,0 215,0 215,-87 0,-87 0,0 -8,0 223,0 223,-87 -8,-87 -8,0"/><g transform="translate(-100, -36)" style="color:#78350f !important" class="label"><rect/><foreignObject height="72" width="200"><div xmlns="http://www.w3.org/1999/xhtml" style="color: rgb(120, 53, 15) !important; display: table; white-space: break-spaces; line-height: 1.5; max-width: 200px; text-align: center; width: 200px;"><span class="nodeLabel" style="color:#78350f !important"><p>CALL write_file(f'(@log_d..., @risk_rating)</p></span></div></foreignObject></g></g><g transform="translate(728.875, 2062.078125)" id="flowchart-EVAL15-38" class="node default ctrl"><polygon style="fill:#ede9fe !important;stroke:#8b5cf6 !important" transform="translate(-117.078125,117.078125)" class="label-container" points="117.078125,0 234.15625,-117.078125 117.078125,-234.15625 0,-117.078125"/><g transform="translate(-90.078125, -12)" style="color:#3b0764 !important" class="label"><rect/><foreignObject height="24" width="180.15625"><div xmlns="http://www.w3.org/1999/xhtml" style="color: rgb(59, 7, 100) !important; display: table-cell; white-space: nowrap; line-height: 1.5; max-width: 200px; text-align: center;"><span class="nodeLabel" style="color:#3b0764 !important"><p>EVALUATE: @risk_rating</p></span></div></foreignObject></g></g><g transform="translate(303.25, 2309.65625)" id="flowchart-RET17-39" class="node default term"><rect height="63" width="230.75" y="-31.5" x="-115.375" ry="31.5" rx="31.5" style="fill:#fce7f3 !important;stroke:#ec4899 !important" class="basic label-container"/><g transform="translate(-100, -24)" style="color:#831843 !important" class="label"><rect/><foreignObject height="48" width="200"><div xmlns="http://www.w3.org/1999/xhtml" style="color: rgb(131, 24, 67) !important; display: table; white-space: break-spaces; line-height: 1.5; max-width: 200px; text-align: center; width: 200px;"><span class="nodeLabel" style="color:#831843 !important"><p>RETURN @risk_report (reason='REJE...)</p></span></div></foreignObject></g></g><g transform="translate(600.3125, 2309.65625)" id="flowchart-RET18-42" class="node default term"><rect height="63" width="230.75" y="-31.5" x="-115.375" ry="31.5" rx="31.5" style="fill:#fce7f3 !important;stroke:#ec4899 !important" class="basic label-container"/><g transform="translate(-100, -24)" style="color:#831843 !important" class="label"><rect/><foreignObject height="48" width="200"><div xmlns="http://www.w3.org/1999/xhtml" style="color: rgb(131, 24, 67) !important; display: table; white-space: break-spaces; line-height: 1.5; max-width: 200px; text-align: center; width: 200px;"><span class="nodeLabel" style="color:#831843 !important"><p>RETURN @risk_report (reason='MANU...)</p></span></div></foreignObject></g></g><g transform="translate(881.0625, 2309.65625)" id="flowchart-RET19-45" class="node default term"><rect height="63" width="230.75" y="-31.5" x="-115.375" ry="31.5" rx="31.5" style="fill:#fce7f3 !important;stroke:#ec4899 !important" class="basic label-container"/><g transform="translate(-100, -24)" style="color:#831843 !important" class="label"><rect/><foreignObject height="48" width="200"><div xmlns="http://www.w3.org/1999/xhtml" style="color: rgb(131, 24, 67) !important; display: table; white-space: break-spaces; line-height: 1.5; max-width: 200px; text-align: center; width: 200px;"><span class="nodeLabel" style="color:#831843 !important"><p>RETURN @risk_report (reason='APPR...)</p></span></div></foreignObject></g></g><g transform="translate(1161.8125, 1826.5)" id="flowchart-A21-53" class="node default assign"><rect height="78" width="260" y="-39" x="-130" style="fill:#f8fafc !important;stroke:#64748b !important" class="basic label-container"/><g transform="translate(-100, -24)" style="color:#1e293b !important" class="label"><rect/><foreignObject height="48" width="200"><div xmlns="http://www.w3.org/1999/xhtml" style="color: rgb(30, 41, 59) !important; display: table; white-space: break-spaces; line-height: 1.5; max-width: 200px; text-align: center; width: 200px;"><span class="nodeLabel" style="color:#1e293b !important"><p>@error_message := 'Failed to connect to...'</p></span></div></foreignObject></g></g><g transform="translate(1161.8125, 2062.078125)" id="flowchart-LOG22-54" class="node default log"><g transform="translate(7.875,0)" class="basic label-container"><path style="fill:#f8fafc !important;stroke:#94a3b8 !important" fill="#f8fafc" stroke-width="0" stroke="none" d="M-123.25 -31.5 C-117.64386484246228 -20.287729684924564, -112.03772968492456 -9.075459369849128, -107.5 0 C-111.85551355079163 8.711027101583252, -116.21102710158326 17.422054203166503, -123.25 31.5 C-49.70655103461738 31.5, 23.836897930765247 31.5, 107.5 31.5 C107.5 14.05242920334194, 107.5 -3.3951415933161186, 107.5 -31.5 C29.974521194889704 -31.5, -47.55095761022059 -31.5, -123.25 -31.5"/><path style="fill:#f8fafc !important;stroke:#94a3b8 !important" fill="none" stroke-width="1.3" stroke="#94a3b8" d="M-123.25 -31.5 C-119.67531556435324 -24.350631128706496, -116.1006311287065 -17.201262257412992, -107.5 0 M-123.25 -31.5 C-118.20162084941161 -21.403241698823212, -113.15324169882321 -11.306483397646424, -107.5 0 M-107.5 0 C-112.46333143444618 9.926662868892363, -117.42666286889236 19.853325737784726, -123.25 31.5 M-107.5 0 C-113.42746732166563 11.854934643331264, -119.35493464333126 23.709869286662528, -123.25 31.5 M-123.25 31.5 C-48.89898523661242 31.5, 25.452029526775164 31.5, 107.5 31.5 M-123.25 31.5 C-75.3740218237669 31.5, -27.498043647533805 31.5, 107.5 31.5 M107.5 31.5 C107.5 7.033769744217356, 107.5 -17.43246051156529, 107.5 -31.5 M107.5 31.5 C107.5 11.397507439236609, 107.5 -8.704985121526782, 107.5 -31.5 M107.5 -31.5 C36.88002597304505 -31.5, -33.7399480539099 -31.5, -123.25 -31.5 M107.5 -31.5 C48.84689071065595 -31.5, -9.806218578688103 -31.5, -123.25 -31.5"/></g><g transform="translate(-92.125, -24)" style="color:#64748b !important" class="label"><rect/><foreignObject height="48" width="200"><div xmlns="http://www.w3.org/1999/xhtml" style="color: rgb(100, 116, 139) !important; display: table; white-space: break-spaces; line-height: 1.5; max-width: 200px; text-align: center; width: 200px;"><span class="nodeLabel" style="color:#64748b !important"><p>LOG(ERROR) @error_message</p></span></div></foreignObject></g></g><g transform="translate(1161.8125, 2309.65625)" id="flowchart-RET23-57" class="node default term"><rect height="63" width="230.75" y="-31.5" x="-115.375" ry="31.5" rx="31.5" style="fill:#fce7f3 !important;stroke:#ec4899 !important" class="basic label-container"/><g transform="translate(-100, -24)" style="color:#831843 !important" class="label"><rect/><foreignObject height="48" width="200"><div xmlns="http://www.w3.org/1999/xhtml" style="color: rgb(131, 24, 67) !important; display: table; white-space: break-spaces; line-height: 1.5; max-width: 200px; text-align: center; width: 200px;"><span class="nodeLabel" style="color:#831843 !important"><p>RETURN @error_message (reason='PEND...)</p></span></div></foreignObject></g></g><g transform="translate(1161.8125, 1569)" id="flowchart-EXC20-52" class="node default ctrl"><polygon style="fill:#ede9fe !important;stroke:#8b5cf6 !important" transform="translate(-139,139)" class="label-container" points="139,0 278,-139 139,-278 0,-139"/><g transform="translate(-100, -24)" style="color:#3b0764 !important" class="label"><rect/><foreignObject height="48" width="200"><div xmlns="http://www.w3.org/1999/xhtml" style="color: rgb(59, 7, 100) !important; display: table; white-space: break-spaces; line-height: 1.5; max-width: 200px; text-align: center; width: 200px;"><span class="nodeLabel" style="color:#3b0764 !important"><p>EXCEPTION ConnectionError</p></span></div></foreignObject></g></g></g></g></g></g></g></svg>