<svg aria-roledescription="flowchart-v2" role="graphics-document document" viewBox="0 0 1801.82421875 3112.62890625" style="max-width: 1801.82px; background-color: white;" class="flowchart" xmlns:xlink="http://www.w3.org/1999/xlink" xmlns="http://www.w3.org/2000/svg" width="100%" id="my-svg"><style>#my-svg{font-family:"trebuchet ms",verdana,arial,sans-serif;font-size:16px;fill:#333;}@keyframes edge-animation-frame{from{stroke-dashoffset:0;}}@keyframes dash{to{stroke-dashoffset:0;}}#my-svg .edge-animation-slow{stroke-dasharray:9,5!important;stroke-dashoffset:900;animation:dash 50s linear infinite;stroke-linecap:round;}#my-svg .edge-animation-fast{stroke-dasharray:9,5!important;stroke-dashoffset:900;animation:dash 20s linear infinite;stroke-linecap:round;}#my-svg .error-icon{fill:#552222;}#my-svg .error-text{fill:#552222;stroke:#552222;}#my-svg .edge-thickness-normal{stroke-width:1px;}#my-svg .edge-thickness-thick{stroke-width:3.5px;}#my-svg .edge-pattern-solid{stroke-dasharray:0;}#my-svg .edge-thickness-invisible{stroke-width:0;fill:none;}#my-svg .edge-pattern-dashed{stroke-dasharray:3;}#my-svg .edge-pattern-dotted{stroke-dasharray:2;}#my-svg .marker{fill:#333333;stroke:#333333;}#my-svg .marker.cross{stroke:#333333;}#my-svg svg{font-family:"trebuchet ms",verdana,arial,sans-serif;font-size:16px;}#my-svg p{margin:0;}#my-svg .label{font-family:"trebuchet ms",verdana,arial,sans-serif;color:#333;}#my-svg .cluster-label text{fill:#333;}#my-svg .cluster-label span{color:#333;}#my-svg .cluster-label span p{background-color:transparent;}#my-svg .label text,#my-svg span{fill:#333;color:#333;}#my-svg .node rect,#my-svg .node circle,#my-svg .node ellipse,#my-svg .node polygon,#my-svg .node path{fill:#ECECFF;stroke:#9370DB;stroke-width:1px;}#my-svg .rough-node .label text,#my-svg .node .label text,#my-svg .image-shape .label,#my-svg .icon-shape .label{text-anchor:middle;}#my-svg .node .katex path{fill:#000;stroke:#000;stroke-width:1px;}#my-svg .rough-node .label,#my-svg .node .label,#my-svg .image-shape .label,#my-svg .icon-shape .label{text-align:center;}#my-svg .node.clickable{cursor:pointer;}#my-svg .root .anchor path{fill:#333333!important;stroke-width:0;stroke:#333333;}#my-svg .arrowheadPath{fill:#333333;}#my-svg .edgePath .path{stroke:#333333;stroke-width:2.0px;}#my-svg .flowchart-link{stroke:#333333;fill:none;}#my-svg .edgeLabel{background-color:rgba(232,232,232, 0.8);text-align:center;}#my-svg .edgeLabel p{background-color:rgba(232,232,232, 0.8);}#my-svg .edgeLabel rect{opacity:0.5;background-color:rgba(232,232,232, 0.8);fill:rgba(232,232,232, 0.8);}#my-svg .labelBkg{background-color:rgba(232, 232, 232, 0.5);}#my-svg .cluster rect{fill:#ffffde;stroke:#aaaa33;stroke-width:1px;}#my-svg .cluster text{fill:#333;}#my-svg .cluster span{color:#333;}#my-svg div.mermaidTooltip{position:absolute;text-align:center;max-width:200px;padding:2px;font-family:"trebuchet ms",verdana,arial,sans-serif;font-size:12px;background:hsl(80, 100%, 96.2745098039%);border:1px solid #aaaa33;border-radius:2px;pointer-events:none;z-index:100;}#my-svg .flowchartTitleText{text-anchor:middle;font-size:18px;fill:#333;}#my-svg rect.text{fill:none;stroke-width:0;}#my-svg .icon-shape,#my-svg .image-shape{background-color:rgba(232,232,232, 0.8);text-align:center;}#my-svg .icon-shape p,#my-svg .image-shape p{background-color:rgba(232,232,232, 0.8);padding:2px;}#my-svg .icon-shape rect,#my-svg .image-shape rect{opacity:0.5;background-color:rgba(232,232,232, 0.8);fill:rgba(232,232,232, 0.8);}#my-svg .label-icon{display:inline-block;height:1em;overflow:visible;vertical-align:-0.125em;}#my-svg .node .label-icon path{fill:currentColor;stroke:revert;stroke-width:revert;}#my-svg :root{--mermaid-font-family:"trebuchet ms",verdana,arial,sans-serif;}#my-svg .llm&gt;*{fill:#dbeafe!important;stroke:#3b82f6!important;color:#1e3a5f!important;}#my-svg .llm span{fill:#dbeafe!important;stroke:#3b82f6!important;color:#1e3a5f!important;}#my-svg .llm tspan{fill:#1e3a5f!important;}#my-svg .proc&gt;*{fill:#fef3c7!important;stroke:#f59e0b!important;color:#78350f!important;}#my-svg .proc span{fill:#fef3c7!important;stroke:#f59e0b!important;color:#78350f!important;}#my-svg .proc tspan{fill:#78350f!important;}#my-svg .ctrl&gt;*{fill:#ede9fe!important;stroke:#8b5cf6!important;color:#3b0764!important;}#my-svg .ctrl span{fill:#ede9fe!important;stroke:#8b5cf6!important;color:#3b0764!important;}#my-svg .ctrl tspan{fill:#3b0764!important;}#my-svg .store&gt;*{fill:#dcfce7!important;stroke:#22c55e!important;color:#14532d!important;}#my-svg .store span{fill:#dcfce7!important;stroke:#22c55e!important;color:#14532d!important;}#my-svg .store tspan{fill:#14532d!important;}#my-svg .term&gt;*{fill:#fce7f3!important;stroke:#ec4899!important;color:#831843!important;}#my-svg .term span{fill:#fce7f3!important;stroke:#ec4899!important;color:#831843!important;}#my-svg .term tspan{fill:#831843!important;}#my-svg .log&gt;*{fill:#f8fafc!important;stroke:#94a3b8!important;color:#64748b!important;}#my-svg .log span{fill:#f8fafc!important;stroke:#94a3b8!important;color:#64748b!important;}#my-svg .log tspan{fill:#64748b!important;}#my-svg .fn&gt;*{fill:#f0fdf4!important;stroke:#86efac!important;color:#166534!important;}#my-svg .fn span{fill:#f0fdf4!important;stroke:#86efac!important;color:#166534!important;}#my-svg .fn tspan{fill:#166534!important;}#my-svg .assign&gt;*{fill:#f8fafc!important;stroke:#64748b!important;color:#1e293b!important;}#my-svg .assign span{fill:#f8fafc!important;stroke:#64748b!important;color:#1e293b!important;}#my-svg .assign tspan{fill:#1e293b!important;}</style><g><marker orient="auto" markerHeight="8" markerWidth="8" markerUnits="userSpaceOnUse" refY="5" refX="5" viewBox="0 0 10 10" class="marker flowchart-v2" id="my-svg_flowchart-v2-pointEnd"><path style="stroke-width: 1; stroke-dasharray: 1, 0;" class="arrowMarkerPath" d="M 0 0 L 10 5 L 0 10 z"/></marker><marker orient="auto" markerHeight="8" markerWidth="8" markerUnits="userSpaceOnUse" refY="5" refX="4.5" viewBox="0 0 10 10" class="marker flowchart-v2" id="my-svg_flowchart-v2-pointStart"><path style="stroke-width: 1; stroke-dasharray: 1, 0;" class="arrowMarkerPath" d="M 0 5 L 10 10 L 10 0 z"/></marker><marker orient="auto" markerHeight="11" markerWidth="11" markerUnits="userSpaceOnUse" refY="5" refX="11" viewBox="0 0 10 10" class="marker flowchart-v2" id="my-svg_flowchart-v2-circleEnd"><circle style="stroke-width: 1; stroke-dasharray: 1, 0;" class="arrowMarkerPath" r="5" cy="5" cx="5"/></marker><marker orient="auto" markerHeight="11" markerWidth="11" markerUnits="userSpaceOnUse" refY="5" refX="-1" viewBox="0 0 10 10" class="marker flowchart-v2" id="my-svg_flowchart-v2-circleStart"><circle style="stroke-width: 1; stroke-dasharray: 1, 0;" class="arrowMarkerPath" r="5" cy="5" cx="5"/></marker><marker orient="auto" markerHeight="11" markerWidth="11" markerUnits="userSpaceOnUse" refY="5.2" refX="12" viewBox="0 0 11 11" class="marker cross flowchart-v2" id="my-svg_flowchart-v2-crossEnd"><path style="stroke-width: 2; stroke-dasharray: 1, 0;" class="arrowMarkerPath" d="M 1,1 l 9,9 M 10,1 l -9,9"/></marker><marker orient="auto" markerHeight="11" markerWidth="11" markerUnits="userSpaceOnUse" refY="5.2" refX="-1" viewBox="0 0 11 11" class="marker cross flowchart-v2" id="my-svg_flowchart-v2-crossStart"><path style="stroke-width: 2; stroke-dasharray: 1, 0;" class="arrowMarkerPath" d="M 1,1 l 9,9 M 10,1 l -9,9"/></marker><g class="root"><g class="clusters"/><g class="edgePaths"/><g class="edgeLabels"/><g class="nodes"><g transform="translate(0, 1471.814453125)" class="root"><g class="clusters"><g data-look="classic" id="FUNCTIONS" class="cluster"><rect height="153" width="942.90625" y="8" x="8" style=""/><g transform="translate(409.1953125, 8)" class="cluster-label"><foreignObject height="24" width="140.515625"><div style="display: table-cell; white-space: nowrap; line-height: 1.5; max-width: 200px; text-align: center;" xmlns="http://www.w3.org/1999/xhtml"><span class="nodeLabel"><p>Function Definitions</p></span></div></foreignObject></g></g></g><g class="edgePaths"/><g class="edgeLabels"/><g class="nodes"><g transform="translate(169.453125, 84.5)" id="flowchart-FN22-61" class="node default fn"><rect height="54" width="252.90625" y="-27" x="-126.453125" style="fill:#f0fdf4 !important;stroke:#86efac !important" class="basic label-container"/><g transform="translate(-96.453125, -12)" style="color:#166534 !important" class="label"><rect/><foreignObject height="24" width="192.90625"><div xmlns="http://www.w3.org/1999/xhtml" style="color: rgb(22, 101, 52) !important; display: table-cell; white-space: nowrap; line-height: 1.5; max-width: 200px; text-align: center;"><span class="nodeLabel" style="color:#166534 !important"><p>FUNCTION: extract_facts()</p></span></div></foreignObject></g></g><g transform="translate(475.90625, 84.5)" id="flowchart-FN23-62" class="node default fn"><rect height="78" width="260" y="-39" x="-130" style="fill:#f0fdf4 !important;stroke:#86efac !important" class="basic label-container"/><g transform="translate(-100, -24)" style="color:#166534 !important" class="label"><rect/><foreignObject height="48" width="200"><div xmlns="http://www.w3.org/1999/xhtml" style="color: rgb(22, 101, 52) !important; display: table; white-space: break-spaces; line-height: 1.5; max-width: 200px; text-align: center; width: 200px;"><span class="nodeLabel" style="color:#166534 !important"><p>FUNCTION: merge_profile()</p></span></div></foreignObject></g></g><g transform="translate(785.90625, 84.5)" id="flowchart-FN24-63" class="node default fn"><rect height="78" width="260" y="-39" x="-130" style="fill:#f0fdf4 !important;stroke:#86efac !important" class="basic label-container"/><g transform="translate(-100, -24)" style="color:#166534 !important" class="label"><rect/><foreignObject height="48" width="200"><div xmlns="http://www.w3.org/1999/xhtml" style="color: rgb(22, 101, 52) !important; display: table; white-space: break-spaces; line-height: 1.5; max-width: 200px; text-align: center; width: 200px;"><span class="nodeLabel" style="color:#166534 !important"><p>FUNCTION: contextual_reply()</p></span></div></foreignObject></g></g></g></g><g transform="translate(992.90625, 0)" class="root"><g class="clusters"><g data-look="classic" id="SG_memory_conversation" class="cluster"><rect height="3096.628807067871" width="792.91796875" y="8" x="8" style=""/><g transform="translate(304.458984375, 8)" class="cluster-label"><foreignObject height="48" width="200"><div style="display: table; white-space: break-spaces; line-height: 1.5; max-width: 200px; text-align: center; width: 200px;" xmlns="http://www.w3.org/1999/xhtml"><span class="nodeLabel"><p>WORKFLOW: memory_conversation</p></span></div></foreignObject></g></g></g><g class="edgePaths"><path marker-end="url(#my-svg_flowchart-v2-pointEnd)" style="" class="edge-thickness-normal edge-pattern-solid edge-thickness-normal edge-pattern-solid flowchart-link" id="L_LOG2_A3_0" d="M323.043,223L322.96,229.167C322.876,235.333,322.71,247.667,322.626,259.417C322.543,271.167,322.543,282.333,322.543,287.917L322.543,293.5"/><path marker-end="url(#my-svg_flowchart-v2-pointEnd)" style="" class="edge-thickness-normal edge-pattern-solid edge-thickness-normal edge-pattern-solid flowchart-link" id="L_A3_A4_0" d="M322.543,375.5L322.543,381.75C322.543,388,322.543,400.5,322.543,412.333C322.543,424.167,322.543,435.333,322.543,440.917L322.543,446.5"/><path marker-end="url(#my-svg_flowchart-v2-pointEnd)" style="" class="edge-thickness-normal edge-pattern-solid edge-thickness-normal edge-pattern-solid flowchart-link" id="L_A4_LOG5_0" d="M322.543,528.5L322.543,534.75C322.543,541,322.543,553.5,322.618,565.417C322.692,577.333,322.841,588.667,322.916,594.334L322.99,600"/><path marker-end="url(#my-svg_flowchart-v2-pointEnd)" style="" class="edge-thickness-normal edge-pattern-solid edge-thickness-normal edge-pattern-solid flowchart-link" id="L_LOG5_GEN6_0" d="M323.043,667L322.96,673.167C322.876,679.333,322.71,691.667,322.701,703.5C322.692,715.333,322.841,726.667,322.916,732.334L322.99,738"/><path marker-end="url(#my-svg_flowchart-v2-pointEnd)" style="" class="edge-thickness-normal edge-pattern-solid edge-thickness-normal edge-pattern-solid flowchart-link" id="L_GEN6_LOG7_0" d="M323.043,829L322.96,835.167C322.876,841.333,322.71,853.667,322.701,865.5C322.692,877.333,322.841,888.667,322.916,894.334L322.99,900"/><path marker-end="url(#my-svg_flowchart-v2-pointEnd)" style="" class="edge-thickness-normal edge-pattern-solid edge-thickness-normal edge-pattern-solid flowchart-link" id="L_EVAL8_LOG10_0" d="M269.637,1220.985L254.966,1238.052C240.294,1255.12,210.952,1289.255,196.281,1319.823C181.609,1350.391,181.609,1377.391,181.609,1404.391C181.609,1431.391,181.609,1458.391,181.609,1487.391C181.609,1516.391,181.609,1547.391,181.609,1576.391C181.609,1605.391,181.609,1632.391,181.687,1655.625C181.765,1678.859,181.921,1698.328,181.999,1708.062L182.077,1717.797"/><path marker-end="url(#my-svg_flowchart-v2-pointEnd)" style="" class="edge-thickness-normal edge-pattern-solid edge-thickness-normal edge-pattern-solid flowchart-link" id="L_LOG10_MERGE9_0" d="M182.109,1784.796L182.026,1795.031C181.943,1805.265,181.776,1825.734,199.557,1842.623C217.338,1859.512,253.066,1872.821,270.93,1879.476L288.795,1886.131"/><path marker-end="url(#my-svg_flowchart-v2-pointEnd)" style="" class="edge-thickness-normal edge-pattern-solid edge-thickness-normal edge-pattern-solid flowchart-link" id="L_LOG11_GEN12_0" d="M469.23,1436.391L469.147,1444.557C469.064,1452.724,468.897,1469.057,468.89,1484.891C468.884,1500.724,469.037,1516.057,469.114,1523.724L469.19,1531.391"/><path marker-end="url(#my-svg_flowchart-v2-pointEnd)" style="" class="edge-thickness-normal edge-pattern-solid edge-thickness-normal edge-pattern-solid flowchart-link" id="L_GEN12_STA13_0" d="M469.23,1622.391L469.147,1628.557C469.064,1634.724,468.897,1647.057,468.814,1658.807C468.73,1670.557,468.73,1681.724,468.73,1687.307L468.73,1692.891"/><path marker-end="url(#my-svg_flowchart-v2-pointEnd)" style="" class="edge-thickness-normal edge-pattern-solid edge-thickness-normal edge-pattern-solid flowchart-link" id="L_EVAL8_LOG11_0" d="M377.507,1219.927L392.711,1237.171C407.915,1254.415,438.323,1288.903,453.603,1313.813C468.884,1338.724,469.037,1354.057,469.114,1361.724L469.19,1369.391"/><path marker-end="url(#my-svg_flowchart-v2-pointEnd)" style="" class="edge-thickness-normal edge-pattern-solid edge-thickness-normal edge-pattern-solid flowchart-link" id="L_STA13_MERGE9_0" d="M468.73,1808.702L468.73,1814.952C468.73,1821.202,468.73,1833.702,449.993,1846.681C431.256,1859.66,393.782,1873.118,375.045,1879.847L356.308,1886.577"/><path marker-end="url(#my-svg_flowchart-v2-pointEnd)" style="" class="edge-thickness-normal edge-pattern-solid edge-thickness-normal edge-pattern-solid flowchart-link" id="L_LOG7_EVAL8_0" d="M323.043,967L322.96,973.167C322.876,979.333,322.71,991.667,322.701,1003.5C322.692,1015.333,322.841,1026.667,322.916,1032.334L322.99,1038"/><path marker-end="url(#my-svg_flowchart-v2-pointEnd)" style="" class="edge-thickness-normal edge-pattern-solid edge-thickness-normal edge-pattern-solid flowchart-link" id="L_MERGE9_GEN14_0" d="M322.543,1913.702L322.543,1919.952C322.543,1926.202,322.543,1938.702,322.618,1950.619C322.692,1962.536,322.841,1973.869,322.916,1979.536L322.99,1985.203"/><path marker-end="url(#my-svg_flowchart-v2-pointEnd)" style="" class="edge-thickness-normal edge-pattern-solid edge-thickness-normal edge-pattern-solid flowchart-link" id="L_GEN14_A15_0" d="M323.043,2076.202L322.96,2082.369C322.876,2088.536,322.71,2100.869,322.626,2112.619C322.543,2124.369,322.543,2135.536,322.543,2141.119L322.543,2146.702"/><path marker-end="url(#my-svg_flowchart-v2-pointEnd)" style="" class="edge-thickness-normal edge-pattern-solid edge-thickness-normal edge-pattern-solid flowchart-link" id="L_A15_SUB16_0" d="M322.543,2228.702L322.543,2234.952C322.543,2241.202,322.543,2253.702,322.618,2265.619C322.692,2277.536,322.841,2288.869,322.916,2294.536L322.99,2300.203"/><path marker-end="url(#my-svg_flowchart-v2-pointEnd)" style="" class="edge-thickness-normal edge-pattern-solid edge-thickness-normal edge-pattern-solid flowchart-link" id="L_SUB16_STA17_0" d="M323.043,2391.202L322.96,2397.369C322.876,2403.536,322.71,2415.869,322.626,2427.619C322.543,2439.369,322.543,2450.536,322.543,2456.119L322.543,2461.702"/><path marker-end="url(#my-svg_flowchart-v2-pointEnd)" style="" class="edge-thickness-normal edge-pattern-solid edge-thickness-normal edge-pattern-solid flowchart-link" id="L_STA17_LOG18_0" d="M322.543,2576.129L322.543,2582.379C322.543,2588.629,322.543,2601.129,322.624,2630.962C322.705,2660.795,322.867,2707.962,322.948,2731.545L323.029,2755.129"/><path marker-end="url(#my-svg_flowchart-v2-pointEnd)" style="" class="edge-thickness-normal edge-pattern-solid edge-thickness-normal edge-pattern-solid flowchart-link" id="L_LOG18_RET19_0" d="M323.043,2822.129L322.96,2846.212C322.876,2870.295,322.71,2918.462,322.626,2948.129C322.543,2977.795,322.543,2988.962,322.543,2994.545L322.543,3000.129"/><path marker-end="url(#my-svg_flowchart-v2-pointEnd)" style="" class="edge-thickness-normal edge-pattern-solid edge-thickness-normal edge-pattern-solid flowchart-link" id="L_START1_LOG2_0" d="M322.543,84.5L322.543,90.75C322.543,97,322.543,109.5,322.618,121.417C322.692,133.333,322.841,144.667,322.916,150.334L322.99,156"/><path marker-end="url(#my-svg_flowchart-v2-pointEnd)" style="" class="edge-thickness-normal edge-pattern-solid edge-thickness-normal edge-pattern-solid flowchart-link" id="L_EXC20_RET21_0" d="M627.418,2929.629L627.335,2935.795C627.251,2941.962,627.085,2954.295,627.001,2966.045C626.918,2977.795,626.918,2988.962,626.918,2994.545L626.918,3000.129"/></g><g class="edgeLabels"><g class="edgeLabel"><g transform="translate(0, 0)" class="label"><foreignObject height="0" width="0"><div style="display: table-cell; white-space: nowrap; line-height: 1.5; max-width: 200px; text-align: center;" class="labelBkg" xmlns="http://www.w3.org/1999/xhtml"><span class="edgeLabel"></span></div></foreignObject></g></g><g class="edgeLabel"><g transform="translate(0, 0)" class="label"><foreignObject height="0" width="0"><div style="display: table-cell; white-space: nowrap; line-height: 1.5; max-width: 200px; text-align: center;" class="labelBkg" xmlns="http://www.w3.org/1999/xhtml"><span class="edgeLabel"></span></div></foreignObject></g></g><g class="edgeLabel"><g transform="translate(0, 0)" class="label"><foreignObject height="0" width="0"><div style="display: table-cell; white-space: nowrap; line-height: 1.5; max-width: 200px; text-align: center;" class="labelBkg" xmlns="http://www.w3.org/1999/xhtml"><span class="edgeLabel"></span></div></foreignObject></g></g><g class="edgeLabel"><g transform="translate(0, 0)" class="label"><foreignObject height="0" width="0"><div style="display: table-cell; white-space: nowrap; line-height: 1.5; max-width: 200px; text-align: center;" class="labelBkg" xmlns="http://www.w3.org/1999/xhtml"><span class="edgeLabel"></span></div></foreignObject></g></g><g class="edgeLabel"><g transform="translate(0, 0)" class="label"><foreignObject height="0" width="0"><div style="display: table-cell; white-space: nowrap; line-height: 1.5; max-width: 200px; text-align: center;" class="labelBkg" xmlns="http://www.w3.org/1999/xhtml"><span class="edgeLabel"></span></div></foreignObject></g></g><g transform="translate(181.609375, 1485.390625)" class="edgeLabel"><g transform="translate(-85.984375, -12)" class="label"><foreignObject height="24" width="171.96875"><div style="display: table-cell; white-space: nowrap; line-height: 1.5; max-width: 200px; text-align: center;" class="labelBkg" xmlns="http://www.w3.org/1999/xhtml"><span class="edgeLabel"><p>WHEN = 'no_new_facts'</p></span></div></foreignObject></g></g><g class="edgeLabel"><g transform="translate(0, 0)" class="label"><foreignObject height="0" width="0"><div style="display: table-cell; white-space: nowrap; line-height: 1.5; max-width: 200px; text-align: center;" class="labelBkg" xmlns="http://www.w3.org/1999/xhtml"><span class="edgeLabel"></span></div></foreignObject></g></g><g class="edgeLabel"><g transform="translate(0, 0)" class="label"><foreignObject height="0" width="0"><div style="display: table-cell; white-space: nowrap; line-height: 1.5; max-width: 200px; text-align: center;" class="labelBkg" xmlns="http://www.w3.org/1999/xhtml"><span class="edgeLabel"></span></div></foreignObject></g></g><g class="edgeLabel"><g transform="translate(0, 0)" class="label"><foreignObject height="0" width="0"><div style="display: table-cell; white-space: nowrap; line-height: 1.5; max-width: 200px; text-align: center;" class="labelBkg" xmlns="http://www.w3.org/1999/xhtml"><span class="edgeLabel"></span></div></foreignObject></g></g><g transform="translate(468.73046875, 1323.390625)" class="edgeLabel"><g transform="translate(-20.4609375, -12)" class="label"><foreignObject height="24" width="40.921875"><div style="display: table-cell; white-space: nowrap; line-height: 1.5; max-width: 200px; text-align: center;" class="labelBkg" xmlns="http://www.w3.org/1999/xhtml"><span class="edgeLabel"><p>ELSE</p></span></div></foreignObject></g></g><g class="edgeLabel"><g transform="translate(0, 0)" class="label"><foreignObject height="0" width="0"><div style="display: table-cell; white-space: nowrap; line-height: 1.5; max-width: 200px; text-align: center;" class="labelBkg" xmlns="http://www.w3.org/1999/xhtml"><span class="edgeLabel"></span></div></foreignObject></g></g><g class="edgeLabel"><g transform="translate(0, 0)" class="label"><foreignObject height="0" width="0"><div style="display: table-cell; white-space: nowrap; line-height: 1.5; max-width: 200px; text-align: center;" class="labelBkg" xmlns="http://www.w3.org/1999/xhtml"><span class="edgeLabel"></span></div></foreignObject></g></g><g class="edgeLabel"><g transform="translate(0, 0)" class="label"><foreignObject height="0" width="0"><div style="display: table-cell; white-space: nowrap; line-height: 1.5; max-width: 200px; text-align: center;" class="labelBkg" xmlns="http://www.w3.org/1999/xhtml"><span class="edgeLabel"></span></div></foreignObject></g></g><g class="edgeLabel"><g transform="translate(0, 0)" class="label"><foreignObject height="0" width="0"><div style="display: table-cell; white-space: nowrap; line-height: 1.5; max-width: 200px; text-align: center;" class="labelBkg" xmlns="http://www.w3.org/1999/xhtml"><span class="edgeLabel"></span></div></foreignObject></g></g><g class="edgeLabel"><g transform="translate(0, 0)" class="label"><foreignObject height="0" width="0"><div style="display: table-cell; white-space: nowrap; line-height: 1.5; max-width: 200px; text-align: center;" class="labelBkg" xmlns="http://www.w3.org/1999/xhtml"><span class="edgeLabel"></span></div></foreignObject></g></g><g class="edgeLabel"><g transform="translate(0, 0)" class="label"><foreignObject height="0" width="0"><div style="display: table-cell; white-space: nowrap; line-height: 1.5; max-width: 200px; text-align: center;" class="labelBkg" xmlns="http://www.w3.org/1999/xhtml"><span class="edgeLabel"></span></div></foreignObject></g></g><g class="edgeLabel"><g transform="translate(0, 0)" class="label"><foreignObject height="0" width="0"><div style="display: table-cell; white-space: nowrap; line-height: 1.5; max-width: 200px; text-align: center;" class="labelBkg" xmlns="http://www.w3.org/1999/xhtml"><span class="edgeLabel"></span></div></foreignObject></g></g><g class="edgeLabel"><g transform="translate(0, 0)" class="label"><foreignObject height="0" width="0"><div style="display: table-cell; white-space: nowrap; line-height: 1.5; max-width: 200px; text-align: center;" class="labelBkg" xmlns="http://www.w3.org/1999/xhtml"><span class="edgeLabel"></span></div></foreignObject></g></g><g class="edgeLabel"><g transform="translate(0, 0)" class="label"><foreignObject height="0" width="0"><div style="display: table-cell; white-space: nowrap; line-height: 1.5; max-width: 200px; text-align: center;" class="labelBkg" xmlns="http://www.w3.org/1999/xhtml"><span class="edgeLabel"></span></div></foreignObject></g></g><g class="edgeLabel"><g transform="translate(0, 0)" class="label"><foreignObject height="0" width="0"><div style="display: table-cell; white-space: nowrap; line-height: 1.5; max-width: 200px; text-align: center;" class="labelBkg" xmlns="http://www.w3.org/1999/xhtml"><span class="edgeLabel"></span></div></foreignObject></g></g></g><g class="nodes"><g transform="translate(322.54296875, 65)" id="flowchart-START1-0" class="node default term"><rect height="39" width="58.546875" y="-19.5" x="-29.2734375" ry="19.5" rx="19.5" style="fill:#fce7f3 !important;stroke:#ec4899 !important" class="basic label-container"/><g transform="translate(-16.8984375, -12)" style="color:#831843 !important" class="label"><rect/><foreignObject height="24" width="33.796875"><div xmlns="http://www.w3.org/1999/xhtml" style="color: rgb(131, 24, 67) !important; display: table-cell; white-space: nowrap; line-height: 1.5; max-width: 200px; text-align: center;"><span class="nodeLabel" style="color:#831843 !important"><p>Start</p></span></div></foreignObject></g></g><g transform="translate(322.54296875, 191)" id="flowchart-LOG2-1" class="node default log"><g transform="translate(7.875,0)" class="basic label-container"><path style="fill:#f8fafc !important;stroke:#94a3b8 !important" fill="#f8fafc" stroke-width="0" stroke="none" d="M-123.25 -31.5 C-117.33663963804915 -19.6732792760983, -111.4232792760983 -7.846558552196598, -107.5 0 C-113.43910696196066 11.878213923921333, -119.37821392392134 23.756427847842666, -123.25 31.5 C-31.78223520544202 31.5, 59.68552958911596 31.5, 107.5 31.5 C107.5 13.513188751110992, 107.5 -4.473622497778017, 107.5 -31.5 C60.9334409132839 -31.5, 14.366881826567806 -31.5, -123.25 -31.5"/><path style="fill:#f8fafc !important;stroke:#94a3b8 !important" fill="none" stroke-width="1.3" stroke="#94a3b8" d="M-123.25 -31.5 C-119.6268439941559 -24.253687988311814, -116.00368798831181 -17.007375976623628, -107.5 0 M-123.25 -31.5 C-118.28504258011552 -21.57008516023104, -113.32008516023105 -11.640170320462083, -107.5 0 M-107.5 0 C-110.86243750533842 6.724875010676832, -114.22487501067683 13.449750021353664, -123.25 31.5 M-107.5 0 C-111.6144630422916 8.228926084583218, -115.72892608458322 16.457852169166436, -123.25 31.5 M-123.25 31.5 C-65.60064500020454 31.5, -7.95129000040906 31.5, 107.5 31.5 M-123.25 31.5 C-38.128605151070445 31.5, 46.99278969785911 31.5, 107.5 31.5 M107.5 31.5 C107.5 17.048040310486435, 107.5 2.5960806209728737, 107.5 -31.5 M107.5 31.5 C107.5 18.790420364728085, 107.5 6.08084072945617, 107.5 -31.5 M107.5 -31.5 C48.336540497199664 -31.5, -10.826919005600672 -31.5, -123.25 -31.5 M107.5 -31.5 C29.244035614128464 -31.5, -49.01192877174307 -31.5, -123.25 -31.5"/></g><g transform="translate(-92.125, -24)" style="color:#64748b !important" class="label"><rect/><foreignObject height="48" width="200"><div xmlns="http://www.w3.org/1999/xhtml" style="color: rgb(100, 116, 139) !important; display: table; white-space: break-spaces; line-height: 1.5; max-width: 200px; text-align: center; width: 200px;"><span class="nodeLabel" style="color:#64748b !important"><p>LOG(INFO) f'Memory conversatio...'</p></span></div></foreignObject></g></g><g transform="translate(322.54296875, 336.5)" id="flowchart-A3-2" class="node default assign"><rect height="78" width="260" y="-39" x="-130" style="fill:#f8fafc !important;stroke:#64748b !important" class="basic label-container"/><g transform="translate(-100, -24)" style="color:#1e293b !important" class="label"><rect/><foreignObject height="48" width="200"><div xmlns="http://www.w3.org/1999/xhtml" style="color: rgb(30, 41, 59) !important; display: table; white-space: break-spaces; line-height: 1.5; max-width: 200px; text-align: center; width: 200px;"><span class="nodeLabel" style="color:#1e293b !important"><p>@profile := @memory('chat_use...)</p></span></div></foreignObject></g></g><g transform="translate(322.54296875, 489.5)" id="flowchart-A4-5" class="node default assign"><rect height="78" width="260" y="-39" x="-130" style="fill:#f8fafc !important;stroke:#64748b !important" class="basic label-container"/><g transform="translate(-100, -24)" style="color:#1e293b !important" class="label"><rect/><foreignObject height="48" width="200"><div xmlns="http://www.w3.org/1999/xhtml" style="color: rgb(30, 41, 59) !important; display: table; white-space: break-spaces; line-height: 1.5; max-width: 200px; text-align: center; width: 200px;"><span class="nodeLabel" style="color:#1e293b !important"><p>@chat_history := @memory('chat_his...)</p></span></div></foreignObject></g></g><g transform="translate(322.54296875, 635)" id="flowchart-LOG5-8" class="node default log"><g transform="translate(7.875,0)" class="basic label-container"><path style="fill:#f8fafc !important;stroke:#94a3b8 !important" fill="#f8fafc" stroke-width="0" stroke="none" d="M-123.25 -31.5 C-117.34629690940939 -19.692593818818786, -111.44259381881878 -7.885187637637571, -107.5 0 C-111.25383769746843 7.507675394936857, -115.00767539493685 15.015350789873715, -123.25 31.5 C-72.14450395814555 31.5, -21.039007916291098 31.5, 107.5 31.5 C107.5 11.093027085127478, 107.5 -9.313945829745045, 107.5 -31.5 C41.120975411451255 -31.5, -25.25804917709749 -31.5, -123.25 -31.5"/><path style="fill:#f8fafc !important;stroke:#94a3b8 !important" fill="none" stroke-width="1.3" stroke="#94a3b8" d="M-123.25 -31.5 C-118.28902007322783 -21.57804014645567, -113.32804014645568 -11.656080292911344, -107.5 0 M-123.25 -31.5 C-117.91042183745233 -20.820843674904673, -112.57084367490467 -10.141687349809345, -107.5 0 M-107.5 0 C-112.03568109934916 9.071362198698314, -116.57136219869831 18.142724397396627, -123.25 31.5 M-107.5 0 C-112.23716245815271 9.47432491630543, -116.97432491630543 18.94864983261086, -123.25 31.5 M-123.25 31.5 C-35.85969340719005 31.5, 51.5306131856199 31.5, 107.5 31.5 M-123.25 31.5 C-65.51906570030428 31.5, -7.788131400608549 31.5, 107.5 31.5 M107.5 31.5 C107.5 6.636303650234108, 107.5 -18.227392699531784, 107.5 -31.5 M107.5 31.5 C107.5 15.602929152062968, 107.5 -0.2941416958740639, 107.5 -31.5 M107.5 -31.5 C24.205326137840075 -31.5, -59.08934772431985 -31.5, -123.25 -31.5 M107.5 -31.5 C31.19015757028899 -31.5, -45.11968485942202 -31.5, -123.25 -31.5"/></g><g transform="translate(-92.125, -24)" style="color:#64748b !important" class="label"><rect/><foreignObject height="48" width="200"><div xmlns="http://www.w3.org/1999/xhtml" style="color: rgb(100, 116, 139) !important; display: table; white-space: break-spaces; line-height: 1.5; max-width: 200px; text-align: center; width: 200px;"><span class="nodeLabel" style="color:#64748b !important"><p>LOG(DEBUG) f'Profile loaded: (@...'</p></span></div></foreignObject></g></g><g transform="translate(322.54296875, 785)" id="flowchart-GEN6-11" class="node default llm"><polygon style="fill:#dbeafe !important;stroke:#3b82f6 !important" transform="translate(-107.5,43.5)" class="label-container" points="-43.5,0 215,0 258.5,-87 0,-87"/><g transform="translate(-100, -36)" style="color:#1e3a5f !important" class="label"><rect/><foreignObject height="72" width="200"><div xmlns="http://www.w3.org/1999/xhtml" style="color: rgb(30, 58, 95) !important; display: table; white-space: break-spaces; line-height: 1.5; max-width: 200px; text-align: center; width: 200px;"><span class="nodeLabel" style="color:#1e3a5f !important"><p>GENERATE extract_facts(@user_input) -&gt; @new_facts</p></span></div></foreignObject></g></g><g transform="translate(322.54296875, 935)" id="flowchart-LOG7-14" class="node default log"><g transform="translate(7.875,0)" class="basic label-container"><path style="fill:#f8fafc !important;stroke:#94a3b8 !important" fill="#f8fafc" stroke-width="0" stroke="none" d="M-123.25 -31.5 C-118.06803852707223 -21.136077054144465, -112.88607705414447 -10.77215410828893, -107.5 0 C-113.50803903039366 12.016078060787336, -119.51607806078734 24.032156121574673, -123.25 31.5 C-72.49221260129052 31.5, -21.734425202581036 31.5, 107.5 31.5 C107.5 15.105553820631005, 107.5 -1.2888923587379892, 107.5 -31.5 C23.723055842216198 -31.5, -60.053888315567605 -31.5, -123.25 -31.5"/><path style="fill:#f8fafc !important;stroke:#94a3b8 !important" fill="none" stroke-width="1.3" stroke="#94a3b8" d="M-123.25 -31.5 C-116.95692115509206 -18.913842310184123, -110.66384231018412 -6.327684620368249, -107.5 0 M-123.25 -31.5 C-117.24814756643468 -19.496295132869378, -111.24629513286938 -7.492590265738755, -107.5 0 M-107.5 0 C-112.8571448716029 10.714289743205796, -118.2142897432058 21.428579486411593, -123.25 31.5 M-107.5 0 C-111.11041443618605 7.220828872372102, -114.7208288723721 14.441657744744203, -123.25 31.5 M-123.25 31.5 C-73.25530588837857 31.5, -23.260611776757145 31.5, 107.5 31.5 M-123.25 31.5 C-70.12014739193239 31.5, -16.990294783864783 31.5, 107.5 31.5 M107.5 31.5 C107.5 12.668690769383772, 107.5 -6.162618461232455, 107.5 -31.5 M107.5 31.5 C107.5 6.999659621933613, 107.5 -17.500680756132773, 107.5 -31.5 M107.5 -31.5 C38.06205466264764 -31.5, -31.37589067470472 -31.5, -123.25 -31.5 M107.5 -31.5 C20.21285597958041 -31.5, -67.07428804083918 -31.5, -123.25 -31.5"/></g><g transform="translate(-92.125, -24)" style="color:#64748b !important" class="label"><rect/><foreignObject height="48" width="200"><div xmlns="http://www.w3.org/1999/xhtml" style="color: rgb(100, 116, 139) !important; display: table; white-space: break-spaces; line-height: 1.5; max-width: 200px; text-align: center; width: 200px;"><span class="nodeLabel" style="color:#64748b !important"><p>LOG(DEBUG) f'New facts: (@new_f...'</p></span></div></foreignObject></g></g><g transform="translate(322.54296875, 1157.6953125)" id="flowchart-EVAL8-17" class="node default ctrl"><polygon style="fill:#ede9fe !important;stroke:#8b5cf6 !important" transform="translate(-116.1953125,116.1953125)" class="label-container" points="116.1953125,0 232.390625,-116.1953125 116.1953125,-232.390625 0,-116.1953125"/><g transform="translate(-89.1953125, -12)" style="color:#3b0764 !important" class="label"><rect/><foreignObject height="24" width="178.390625"><div xmlns="http://www.w3.org/1999/xhtml" style="color: rgb(59, 7, 100) !important; display: table-cell; white-space: nowrap; line-height: 1.5; max-width: 200px; text-align: center;"><span class="nodeLabel" style="color:#3b0764 !important"><p>EVALUATE: @new_facts</p></span></div></foreignObject></g></g><g transform="translate(181.609375, 1752.7964782714844)" id="flowchart-LOG10-18" class="node default log"><g transform="translate(7.875,0)" class="basic label-container"><path style="fill:#f8fafc !important;stroke:#94a3b8 !important" fill="#f8fafc" stroke-width="0" stroke="none" d="M-123.25 -31.5 C-119.03534627592286 -23.07069255184571, -114.82069255184571 -14.641385103691423, -107.5 0 C-112.49296038402773 9.985920768055463, -117.48592076805546 19.971841536110926, -123.25 31.5 C-63.676624594506876 31.5, -4.103249189013752 31.5, 107.5 31.5 C107.5 10.774149706264115, 107.5 -9.95170058747177, 107.5 -31.5 C53.72619797124163 -31.5, -0.04760405751673602 -31.5, -123.25 -31.5"/><path style="fill:#f8fafc !important;stroke:#94a3b8 !important" fill="none" stroke-width="1.3" stroke="#94a3b8" d="M-123.25 -31.5 C-119.16256490006042 -23.325129800120827, -115.07512980012083 -15.150259600241657, -107.5 0 M-123.25 -31.5 C-118.82996980266653 -22.65993960533305, -114.40993960533305 -13.819879210666098, -107.5 0 M-107.5 0 C-112.89302255617673 10.786045112353467, -118.28604511235346 21.572090224706933, -123.25 31.5 M-107.5 0 C-111.42710613475744 7.8542122695148615, -115.35421226951486 15.708424539029723, -123.25 31.5 M-123.25 31.5 C-68.66994083136132 31.5, -14.089881662722618 31.5, 107.5 31.5 M-123.25 31.5 C-70.67943640121354 31.5, -18.108872802427058 31.5, 107.5 31.5 M107.5 31.5 C107.5 12.852818794436406, 107.5 -5.794362411127189, 107.5 -31.5 M107.5 31.5 C107.5 17.522350011818872, 107.5 3.5447000236377484, 107.5 -31.5 M107.5 -31.5 C57.000850545336 -31.5, 6.501701090672 -31.5, -123.25 -31.5 M107.5 -31.5 C46.06378596410083 -31.5, -15.372428071798339 -31.5, -123.25 -31.5"/></g><g transform="translate(-92.125, -24)" style="color:#64748b !important" class="label"><rect/><foreignObject height="48" width="200"><div xmlns="http://www.w3.org/1999/xhtml" style="color: rgb(100, 116, 139) !important; display: table; white-space: break-spaces; line-height: 1.5; max-width: 200px; text-align: center; width: 200px;"><span class="nodeLabel" style="color:#64748b !important"><p>LOG(DEBUG) 'No new facts — profi...'</p></span></div></foreignObject></g></g><g transform="translate(322.54296875, 1898.7023315429688)" id="flowchart-MERGE9-22" class="node default"><rect height="30" width="60" y="-15" x="-30" style="" class="basic label-container"/><g transform="translate(0, 0)" style="" class="label"><rect/><foreignObject height="0" width="0"><div style="display: table-cell; white-space: nowrap; line-height: 1.5; max-width: 200px; text-align: center;" xmlns="http://www.w3.org/1999/xhtml"><span class="nodeLabel"></span></div></foreignObject></g></g><g transform="translate(468.73046875, 1404.390625)" id="flowchart-LOG11-23" class="node default log"><g transform="translate(7.875,0)" class="basic label-container"><path style="fill:#f8fafc !important;stroke:#94a3b8 !important" fill="#f8fafc" stroke-width="0" stroke="none" d="M-123.25 -31.5 C-118.37244450092078 -21.744889001841557, -113.49488900184156 -11.989778003683114, -107.5 0 C-111.92892735559305 8.857854711186102, -116.3578547111861 17.715709422372203, -123.25 31.5 C-71.79356514530444 31.5, -20.337130290608883 31.5, 107.5 31.5 C107.5 13.589747167812607, 107.5 -4.320505664374785, 107.5 -31.5 C51.15148094011775 -31.5, -5.1970381197645 -31.5, -123.25 -31.5"/><path style="fill:#f8fafc !important;stroke:#94a3b8 !important" fill="none" stroke-width="1.3" stroke="#94a3b8" d="M-123.25 -31.5 C-119.57457291435155 -24.149145828703098, -115.8991458287031 -16.798291657406196, -107.5 0 M-123.25 -31.5 C-117.7920188841016 -20.584037768203185, -112.33403776820319 -9.66807553640637, -107.5 0 M-107.5 0 C-111.49336396344059 7.986727926881182, -115.48672792688119 15.973455853762363, -123.25 31.5 M-107.5 0 C-112.28906655400871 9.57813310801744, -117.07813310801744 19.15626621603488, -123.25 31.5 M-123.25 31.5 C-37.17096871204281 31.5, 48.908062575914386 31.5, 107.5 31.5 M-123.25 31.5 C-74.93268446115621 31.5, -26.615368922312427 31.5, 107.5 31.5 M107.5 31.5 C107.5 14.0048390888192, 107.5 -3.490321822361601, 107.5 -31.5 M107.5 31.5 C107.5 14.766642045259552, 107.5 -1.9667159094808966, 107.5 -31.5 M107.5 -31.5 C16.012342086716885 -31.5, -75.47531582656623 -31.5, -123.25 -31.5 M107.5 -31.5 C19.670395494641397 -31.5, -68.1592090107172 -31.5, -123.25 -31.5"/></g><g transform="translate(-92.125, -24)" style="color:#64748b !important" class="label"><rect/><foreignObject height="48" width="200"><div xmlns="http://www.w3.org/1999/xhtml" style="color: rgb(100, 116, 139) !important; display: table; white-space: break-spaces; line-height: 1.5; max-width: 200px; text-align: center; width: 200px;"><span class="nodeLabel" style="color:#64748b !important"><p>LOG(DEBUG) 'New facts detected —...'</p></span></div></foreignObject></g></g><g transform="translate(468.73046875, 1578.390625)" id="flowchart-GEN12-24" class="node default llm"><polygon style="fill:#dbeafe !important;stroke:#3b82f6 !important" transform="translate(-107.5,43.5)" class="label-container" points="-43.5,0 215,0 258.5,-87 0,-87"/><g transform="translate(-100, -36)" style="color:#1e3a5f !important" class="label"><rect/><foreignObject height="72" width="200"><div xmlns="http://www.w3.org/1999/xhtml" style="color: rgb(30, 58, 95) !important; display: table; white-space: break-spaces; line-height: 1.5; max-width: 200px; text-align: center; width: 200px;"><span class="nodeLabel" style="color:#1e3a5f !important"><p>GENERATE merge_profile(@profile, @new_facts) -&gt; @profile</p></span></div></foreignObject></g></g><g transform="translate(468.73046875, 1752.7964782714844)" id="flowchart-STA13-27" class="node default store"><path transform="translate(-116.4921875, -55.9058530836716)" style="fill:#dcfce7 !important;stroke:#22c55e !important" class="basic label-container" d="M0,16.27056872244773 a116.4921875,16.27056872244773 0,0,0 232.984375,0 a116.4921875,16.27056872244773 0,0,0 -232.984375,0 l0,79.27056872244773 a116.4921875,16.27056872244773 0,0,0 232.984375,0 l0,-79.27056872244773"/><g transform="translate(-108.9921875, -14)" style="color:#14532d !important" class="label"><rect/><foreignObject height="48" width="217.984375"><div xmlns="http://www.w3.org/1999/xhtml" style="color: rgb(20, 83, 45) !important; display: table; white-space: break-spaces; line-height: 1.5; max-width: 200px; text-align: center; width: 200px;"><span class="nodeLabel" style="color:#14532d !important"><p>@memory('chat_user_profile') := @profile</p></span></div></foreignObject></g></g><g transform="translate(322.54296875, 2032.2023315429688)" id="flowchart-GEN14-37" class="node default llm"><polygon style="fill:#dbeafe !important;stroke:#3b82f6 !important" transform="translate(-118.34375,43.5)" class="label-container" points="-43.5,0 236.6875,0 280.1875,-87 0,-87"/><g transform="translate(-110.84375, -36)" style="color:#1e3a5f !important" class="label"><rect/><foreignObject height="72" width="221.6875"><div xmlns="http://www.w3.org/1999/xhtml" style="color: rgb(30, 58, 95) !important; display: table; white-space: break-spaces; line-height: 1.5; max-width: 200px; text-align: center; width: 200px;"><span class="nodeLabel" style="color:#1e3a5f !important"><p>GENERATE contextual_reply(@user_input, @profile, ...) -&gt; @response</p></span></div></foreignObject></g></g><g transform="translate(322.54296875, 2189.7023315429688)" id="flowchart-A15-40" class="node default assign"><rect height="78" width="260" y="-39" x="-130" style="fill:#f8fafc !important;stroke:#64748b !important" class="basic label-container"/><g transform="translate(-100, -24)" style="color:#1e293b !important" class="label"><rect/><foreignObject height="48" width="200"><div xmlns="http://www.w3.org/1999/xhtml" style="color: rgb(30, 41, 59) !important; display: table; white-space: break-spaces; line-height: 1.5; max-width: 200px; text-align: center; width: 200px;"><span class="nodeLabel" style="color:#1e293b !important"><p>@chat_history := @chat_his... || @response</p></span></div></foreignObject></g></g><g transform="translate(322.54296875, 2347.2023315429688)" id="flowchart-SUB16-43" class="node default proc"><polygon style="fill:#fef3c7 !important;stroke:#f59e0b !important" transform="translate(-107.5,43.5)" class="label-container" points="0,0 215,0 215,-87 0,-87 0,0 -8,0 223,0 223,-87 -8,-87 -8,0"/><g transform="translate(-100, -36)" style="color:#78350f !important" class="label"><rect/><foreignObject height="72" width="200"><div xmlns="http://www.w3.org/1999/xhtml" style="color: rgb(120, 53, 15) !important; display: table; white-space: break-spaces; line-height: 1.5; max-width: 200px; text-align: center; width: 200px;"><span class="nodeLabel" style="color:#78350f !important"><p>CALL trim_turns(@chat_his..., '10') -&gt; @chat_history</p></span></div></foreignObject></g></g><g transform="translate(322.54296875, 2520.91556930542)" id="flowchart-STA17-46" class="node default store"><path transform="translate(-107.5, -55.21323529411765)" style="fill:#dcfce7 !important;stroke:#22c55e !important" class="basic label-container" d="M0,15.808823529411764 a107.5,15.808823529411764 0,0,0 215,0 a107.5,15.808823529411764 0,0,0 -215,0 l0,78.80882352941177 a107.5,15.808823529411764 0,0,0 215,0 l0,-78.80882352941177"/><g transform="translate(-100, -14)" style="color:#14532d !important" class="label"><rect/><foreignObject height="48" width="200"><div xmlns="http://www.w3.org/1999/xhtml" style="color: rgb(20, 83, 45) !important; display: table; white-space: break-spaces; line-height: 1.5; max-width: 200px; text-align: center; width: 200px;"><span class="nodeLabel" style="color:#14532d !important"><p>@memory('chat_history') := @chat_history</p></span></div></foreignObject></g></g><g transform="translate(322.54296875, 2790.128807067871)" id="flowchart-LOG18-49" class="node default log"><g transform="translate(7.875,0)" class="basic label-container"><path style="fill:#f8fafc !important;stroke:#94a3b8 !important" fill="#f8fafc" stroke-width="0" stroke="none" d="M-123.25 -31.5 C-118.39213846412966 -21.78427692825931, -113.53427692825932 -12.06855385651862, -107.5 0 C-112.03726411933567 9.07452823867134, -116.57452823867133 18.14905647734268, -123.25 31.5 C-44.46260900993329 31.5, 34.32478198013342 31.5, 107.5 31.5 C107.5 6.877229207712684, 107.5 -17.74554158457463, 107.5 -31.5 C18.760108743803784 -31.5, -69.97978251239243 -31.5, -123.25 -31.5"/><path style="fill:#f8fafc !important;stroke:#94a3b8 !important" fill="none" stroke-width="1.3" stroke="#94a3b8" d="M-123.25 -31.5 C-117.21613844326444 -19.432276886528868, -111.18227688652887 -7.3645537730577395, -107.5 0 M-123.25 -31.5 C-119.3854464892446 -23.770892978489186, -115.52089297848919 -16.041785956978373, -107.5 0 M-107.5 0 C-112.32236306338294 9.64472612676588, -117.14472612676587 19.28945225353176, -123.25 31.5 M-107.5 0 C-112.62829485839055 10.25658971678108, -117.75658971678108 20.51317943356216, -123.25 31.5 M-123.25 31.5 C-43.14579321867795 31.5, 36.9584135626441 31.5, 107.5 31.5 M-123.25 31.5 C-60.28999986627889 31.5, 2.6700002674422194 31.5, 107.5 31.5 M107.5 31.5 C107.5 18.519614203024055, 107.5 5.53922840604811, 107.5 -31.5 M107.5 31.5 C107.5 13.302785583181027, 107.5 -4.894428833637946, 107.5 -31.5 M107.5 -31.5 C18.06384990924404 -31.5, -71.37230018151192 -31.5, -123.25 -31.5 M107.5 -31.5 C45.17277260556417 -31.5, -17.15445478887166 -31.5, -123.25 -31.5"/></g><g transform="translate(-92.125, -24)" style="color:#64748b !important" class="label"><rect/><foreignObject height="48" width="200"><div xmlns="http://www.w3.org/1999/xhtml" style="color: rgb(100, 116, 139) !important; display: table; white-space: break-spaces; line-height: 1.5; max-width: 200px; text-align: center; width: 200px;"><span class="nodeLabel" style="color:#64748b !important"><p>LOG(INFO) 'Response ready'</p></span></div></foreignObject></g></g><g transform="translate(322.54296875, 3035.628807067871)" id="flowchart-RET19-52" class="node default term"><rect height="63" width="230.75" y="-31.5" x="-115.375" ry="31.5" rx="31.5" style="fill:#fce7f3 !important;stroke:#ec4899 !important" class="basic label-container"/><g transform="translate(-100, -24)" style="color:#831843 !important" class="label"><rect/><foreignObject height="48" width="200"><div xmlns="http://www.w3.org/1999/xhtml" style="color: rgb(131, 24, 67) !important; display: table; white-space: break-spaces; line-height: 1.5; max-width: 200px; text-align: center; width: 200px;"><span class="nodeLabel" style="color:#831843 !important"><p>RETURN @response (status='comp...)</p></span></div></foreignObject></g></g><g transform="translate(626.91796875, 2790.128807067871)" id="flowchart-EXC20-57" class="node default ctrl"><polygon style="fill:#ede9fe !important;stroke:#8b5cf6 !important" transform="translate(-139,139)" class="label-container" points="139,0 278,-139 139,-278 0,-139"/><g transform="translate(-100, -24)" style="color:#3b0764 !important" class="label"><rect/><foreignObject height="48" width="200"><div xmlns="http://www.w3.org/1999/xhtml" style="color: rgb(59, 7, 100) !important; display: table; white-space: break-spaces; line-height: 1.5; max-width: 200px; text-align: center; width: 200px;"><span class="nodeLabel" style="color:#3b0764 !important"><p>EXCEPTION BudgetExceeded</p></span></div></foreignObject></g></g><g transform="translate(626.91796875, 3035.628807067871)" id="flowchart-RET21-58" class="node default term"><rect height="63" width="230.75" y="-31.5" x="-115.375" ry="31.5" rx="31.5" style="fill:#fce7f3 !important;stroke:#ec4899 !important" class="basic label-container"/><g transform="translate(-100, -24)" style="color:#831843 !important" class="label"><rect/><foreignObject height="48" width="200"><div xmlns="http://www.w3.org/1999/xhtml" style="color: rgb(131, 24, 67) !important; display: table; white-space: break-spaces; line-height: 1.5; max-width: 200px; text-align: center; width: 200px;"><span class="nodeLabel" style="color:#831843 !important"><p>RETURN 'I remember you! But ...' (status='budg...)</p></span></div></foreignObject></g></g></g></g></g></g></g></svg>