<svg aria-roledescription="flowchart-v2" role="graphics-document document" viewBox="0 0 1877.203125 1665.1875" style="max-width: 1877.2px; background-color: white;" class="flowchart" xmlns:xlink="http://www.w3.org/1999/xlink" xmlns="http://www.w3.org/2000/svg" width="100%" id="my-svg"><style>#my-svg{font-family:"trebuchet ms",verdana,arial,sans-serif;font-size:16px;fill:#333;}@keyframes edge-animation-frame{from{stroke-dashoffset:0;}}@keyframes dash{to{stroke-dashoffset:0;}}#my-svg .edge-animation-slow{stroke-dasharray:9,5!important;stroke-dashoffset:900;animation:dash 50s linear infinite;stroke-linecap:round;}#my-svg .edge-animation-fast{stroke-dasharray:9,5!important;stroke-dashoffset:900;animation:dash 20s linear infinite;stroke-linecap:round;}#my-svg .error-icon{fill:#552222;}#my-svg .error-text{fill:#552222;stroke:#552222;}#my-svg .edge-thickness-normal{stroke-width:1px;}#my-svg .edge-thickness-thick{stroke-width:3.5px;}#my-svg .edge-pattern-solid{stroke-dasharray:0;}#my-svg .edge-thickness-invisible{stroke-width:0;fill:none;}#my-svg .edge-pattern-dashed{stroke-dasharray:3;}#my-svg .edge-pattern-dotted{stroke-dasharray:2;}#my-svg .marker{fill:#333333;stroke:#333333;}#my-svg .marker.cross{stroke:#333333;}#my-svg svg{font-family:"trebuchet ms",verdana,arial,sans-serif;font-size:16px;}#my-svg p{margin:0;}#my-svg .label{font-family:"trebuchet ms",verdana,arial,sans-serif;color:#333;}#my-svg .cluster-label text{fill:#333;}#my-svg .cluster-label span{color:#333;}#my-svg .cluster-label span p{background-color:transparent;}#my-svg .label text,#my-svg span{fill:#333;color:#333;}#my-svg .node rect,#my-svg .node circle,#my-svg .node ellipse,#my-svg .node polygon,#my-svg .node path{fill:#ECECFF;stroke:#9370DB;stroke-width:1px;}#my-svg .rough-node .label text,#my-svg .node .label text,#my-svg .image-shape .label,#my-svg .icon-shape .label{text-anchor:middle;}#my-svg .node .katex path{fill:#000;stroke:#000;stroke-width:1px;}#my-svg .rough-node .label,#my-svg .node .label,#my-svg .image-shape .label,#my-svg .icon-shape .label{text-align:center;}#my-svg .node.clickable{cursor:pointer;}#my-svg .root .anchor path{fill:#333333!important;stroke-width:0;stroke:#333333;}#my-svg .arrowheadPath{fill:#333333;}#my-svg .edgePath .path{stroke:#333333;stroke-width:2.0px;}#my-svg .flowchart-link{stroke:#333333;fill:none;}#my-svg .edgeLabel{background-color:rgba(232,232,232, 0.8);text-align:center;}#my-svg .edgeLabel p{background-color:rgba(232,232,232, 0.8);}#my-svg .edgeLabel rect{opacity:0.5;background-color:rgba(232,232,232, 0.8);fill:rgba(232,232,232, 0.8);}#my-svg .labelBkg{background-color:rgba(232, 232, 232, 0.5);}#my-svg .cluster rect{fill:#ffffde;stroke:#aaaa33;stroke-width:1px;}#my-svg .cluster text{fill:#333;}#my-svg .cluster span{color:#333;}#my-svg div.mermaidTooltip{position:absolute;text-align:center;max-width:200px;padding:2px;font-family:"trebuchet ms",verdana,arial,sans-serif;font-size:12px;background:hsl(80, 100%, 96.2745098039%);border:1px solid #aaaa33;border-radius:2px;pointer-events:none;z-index:100;}#my-svg .flowchartTitleText{text-anchor:middle;font-size:18px;fill:#333;}#my-svg rect.text{fill:none;stroke-width:0;}#my-svg .icon-shape,#my-svg .image-shape{background-color:rgba(232,232,232, 0.8);text-align:center;}#my-svg .icon-shape p,#my-svg .image-shape p{background-color:rgba(232,232,232, 0.8);padding:2px;}#my-svg .icon-shape rect,#my-svg .image-shape rect{opacity:0.5;background-color:rgba(232,232,232, 0.8);fill:rgba(232,232,232, 0.8);}#my-svg .label-icon{display:inline-block;height:1em;overflow:visible;vertical-align:-0.125em;}#my-svg .node .label-icon path{fill:currentColor;stroke:revert;stroke-width:revert;}#my-svg :root{--mermaid-font-family:"trebuchet ms",verdana,arial,sans-serif;}#my-svg .llm&gt;*{fill:#dbeafe!important;stroke:#3b82f6!important;color:#1e3a5f!important;}#my-svg .llm span{fill:#dbeafe!important;stroke:#3b82f6!important;color:#1e3a5f!important;}#my-svg .llm tspan{fill:#1e3a5f!important;}#my-svg .proc&gt;*{fill:#fef3c7!important;stroke:#f59e0b!important;color:#78350f!important;}#my-svg .proc span{fill:#fef3c7!important;stroke:#f59e0b!important;color:#78350f!important;}#my-svg .proc tspan{fill:#78350f!important;}#my-svg .ctrl&gt;*{fill:#ede9fe!important;stroke:#8b5cf6!important;color:#3b0764!important;}#my-svg .ctrl span{fill:#ede9fe!important;stroke:#8b5cf6!important;color:#3b0764!important;}#my-svg .ctrl tspan{fill:#3b0764!important;}#my-svg .term&gt;*{fill:#fce7f3!important;stroke:#ec4899!important;color:#831843!important;}#my-svg .term span{fill:#fce7f3!important;stroke:#ec4899!important;color:#831843!important;}#my-svg .term tspan{fill:#831843!important;}#my-svg .log&gt;*{fill:#f8fafc!important;stroke:#94a3b8!important;color:#64748b!important;}#my-svg .log span{fill:#f8fafc!important;stroke:#94a3b8!important;color:#64748b!important;}#my-svg .log tspan{fill:#64748b!important;}#my-svg .fn&gt;*{fill:#f0fdf4!important;stroke:#86efac!important;color:#166534!important;}#my-svg .fn span{fill:#f0fdf4!important;stroke:#86efac!important;color:#166534!important;}#my-svg .fn tspan{fill:#166534!important;}#my-svg .assign&gt;*{fill:#f8fafc!important;stroke:#64748b!important;color:#1e293b!important;}#my-svg .assign span{fill:#f8fafc!important;stroke:#64748b!important;color:#1e293b!important;}#my-svg .assign tspan{fill:#1e293b!important;}</style><g><marker orient="auto" markerHeight="8" markerWidth="8" markerUnits="userSpaceOnUse" refY="5" refX="5" viewBox="0 0 10 10" class="marker flowchart-v2" id="my-svg_flowchart-v2-pointEnd"><path style="stroke-width: 1; stroke-dasharray: 1, 0;" class="arrowMarkerPath" d="M 0 0 L 10 5 L 0 10 z"/></marker><marker orient="auto" markerHeight="8" markerWidth="8" markerUnits="userSpaceOnUse" refY="5" refX="4.5" viewBox="0 0 10 10" class="marker flowchart-v2" id="my-svg_flowchart-v2-pointStart"><path style="stroke-width: 1; stroke-dasharray: 1, 0;" class="arrowMarkerPath" d="M 0 5 L 10 10 L 10 0 z"/></marker><marker orient="auto" markerHeight="11" markerWidth="11" markerUnits="userSpaceOnUse" refY="5" refX="11" viewBox="0 0 10 10" class="marker flowchart-v2" id="my-svg_flowchart-v2-circleEnd"><circle style="stroke-width: 1; stroke-dasharray: 1, 0;" class="arrowMarkerPath" r="5" cy="5" cx="5"/></marker><marker orient="auto" markerHeight="11" markerWidth="11" markerUnits="userSpaceOnUse" refY="5" refX="-1" viewBox="0 0 10 10" class="marker flowchart-v2" id="my-svg_flowchart-v2-circleStart"><circle style="stroke-width: 1; stroke-dasharray: 1, 0;" class="arrowMarkerPath" r="5" cy="5" cx="5"/></marker><marker orient="auto" markerHeight="11" markerWidth="11" markerUnits="userSpaceOnUse" refY="5.2" refX="12" viewBox="0 0 11 11" class="marker cross flowchart-v2" id="my-svg_flowchart-v2-crossEnd"><path style="stroke-width: 2; stroke-dasharray: 1, 0;" class="arrowMarkerPath" d="M 1,1 l 9,9 M 10,1 l -9,9"/></marker><marker orient="auto" markerHeight="11" markerWidth="11" markerUnits="userSpaceOnUse" refY="5.2" refX="-1" viewBox="0 0 11 11" class="marker cross flowchart-v2" id="my-svg_flowchart-v2-crossStart"><path style="stroke-width: 2; stroke-dasharray: 1, 0;" class="arrowMarkerPath" d="M 1,1 l 9,9 M 10,1 l -9,9"/></marker><g class="root"><g class="clusters"/><g class="edgePaths"/><g class="edgeLabels"/><g class="nodes"><g transform="translate(0, 748.09375)" class="root"><g class="clusters"><g data-look="classic" id="FUNCTIONS" class="cluster"><rect height="153" width="640" y="8" x="8" style=""/><g transform="translate(257.7421875, 8)" class="cluster-label"><foreignObject height="24" width="140.515625"><div style="display: table-cell; white-space: nowrap; line-height: 1.5; max-width: 200px; text-align: center;" xmlns="http://www.w3.org/1999/xhtml"><span class="nodeLabel"><p>Function Definitions</p></span></div></foreignObject></g></g></g><g class="edgePaths"/><g class="edgeLabels"/><g class="nodes"><g transform="translate(173, 84.5)" id="flowchart-FN17-42" class="node default fn"><rect height="78" width="260" y="-39" x="-130" style="fill:#f0fdf4 !important;stroke:#86efac !important" class="basic label-container"/><g transform="translate(-100, -24)" style="color:#166534 !important" class="label"><rect/><foreignObject height="48" width="200"><div xmlns="http://www.w3.org/1999/xhtml" style="color: rgb(22, 101, 52) !important; display: table; white-space: break-spaces; line-height: 1.5; max-width: 200px; text-align: center; width: 200px;"><span class="nodeLabel" style="color:#166534 !important"><p>FUNCTION: search_population()</p></span></div></foreignObject></g></g><g transform="translate(483, 84.5)" id="flowchart-FN18-43" class="node default fn"><rect height="78" width="260" y="-39" x="-130" style="fill:#f0fdf4 !important;stroke:#86efac !important" class="basic label-container"/><g transform="translate(-100, -24)" style="color:#166534 !important" class="label"><rect/><foreignObject height="48" width="200"><div xmlns="http://www.w3.org/1999/xhtml" style="color: rgb(22, 101, 52) !important; display: table; white-space: break-spaces; line-height: 1.5; max-width: 200px; text-align: center; width: 200px;"><span class="nodeLabel" style="color:#166534 !important"><p>FUNCTION: growth_report()</p></span></div></foreignObject></g></g></g></g><g transform="translate(690, 0)" class="root"><g class="clusters"><g data-look="classic" id="SG_population_growth" class="cluster"><rect height="1649.1875" width="749.203125" y="8" x="8" style=""/><g transform="translate(282.6015625, 8)" class="cluster-label"><foreignObject height="48" width="200"><div style="display: table; white-space: break-spaces; line-height: 1.5; max-width: 200px; text-align: center; width: 200px;" xmlns="http://www.w3.org/1999/xhtml"><span class="nodeLabel"><p>WORKFLOW: population_growth</p></span></div></foreignObject></g></g></g><g class="edgePaths"><path marker-end="url(#my-svg_flowchart-v2-pointEnd)" style="" class="edge-thickness-normal edge-pattern-solid edge-thickness-normal edge-pattern-solid flowchart-link" id="L_A5_LOG6_0" d="M194,237.5L194,243.75C194,250,194,262.5,194.075,274.417C194.149,286.333,194.298,297.667,194.373,303.334L194.447,309"/><path marker-end="url(#my-svg_flowchart-v2-pointEnd)" style="" class="edge-thickness-normal edge-pattern-solid edge-thickness-normal edge-pattern-solid flowchart-link" id="L_LOG6_SUB7_0" d="M194.5,376L194.417,382.167C194.333,388.333,194.167,400.667,194.158,412.5C194.149,424.333,194.298,435.667,194.373,441.334L194.447,447"/><path marker-end="url(#my-svg_flowchart-v2-pointEnd)" style="" class="edge-thickness-normal edge-pattern-solid edge-thickness-normal edge-pattern-solid flowchart-link" id="L_SUB7_SUB8_0" d="M194.5,538L194.417,544.167C194.333,550.333,194.167,562.667,194.158,574.5C194.149,586.333,194.298,597.667,194.373,603.334L194.447,609"/><path marker-end="url(#my-svg_flowchart-v2-pointEnd)" style="" class="edge-thickness-normal edge-pattern-solid edge-thickness-normal edge-pattern-solid flowchart-link" id="L_SUB8_LOG9_0" d="M194.5,700L194.417,706.167C194.333,712.333,194.167,724.667,194.158,736.5C194.149,748.333,194.298,759.667,194.373,765.334L194.447,771"/><path marker-end="url(#my-svg_flowchart-v2-pointEnd)" style="" class="edge-thickness-normal edge-pattern-solid edge-thickness-normal edge-pattern-solid flowchart-link" id="L_LOG9_SUB10_0" d="M194.5,838L194.417,844.167C194.333,850.333,194.167,862.667,194.158,874.5C194.149,886.333,194.298,897.667,194.373,903.334L194.447,909"/><path marker-end="url(#my-svg_flowchart-v2-pointEnd)" style="" class="edge-thickness-normal edge-pattern-solid edge-thickness-normal edge-pattern-solid flowchart-link" id="L_SUB10_LOG11_0" d="M194.5,1000L194.417,1006.167C194.333,1012.333,194.167,1024.667,194.164,1051.682C194.162,1078.698,194.323,1120.396,194.404,1141.245L194.485,1162.094"/><path marker-end="url(#my-svg_flowchart-v2-pointEnd)" style="" class="edge-thickness-normal edge-pattern-solid edge-thickness-normal edge-pattern-solid flowchart-link" id="L_LOG11_GEN12_0" d="M194.5,1229.094L194.417,1250.443C194.333,1271.792,194.167,1314.49,194.158,1341.505C194.149,1368.521,194.298,1379.854,194.373,1385.521L194.447,1391.188"/><path marker-end="url(#my-svg_flowchart-v2-pointEnd)" style="" class="edge-thickness-normal edge-pattern-solid edge-thickness-normal edge-pattern-solid flowchart-link" id="L_GEN12_RET13_0" d="M194.5,1482.188L194.417,1488.354C194.333,1494.521,194.167,1506.854,194.083,1518.604C194,1530.354,194,1541.521,194,1547.104L194,1552.688"/><path marker-end="url(#my-svg_flowchart-v2-pointEnd)" style="" class="edge-thickness-normal edge-pattern-solid edge-thickness-normal edge-pattern-solid flowchart-link" id="L_START4_A5_0" d="M194,84.5L194,90.75C194,97,194,109.5,194,121.333C194,133.167,194,144.333,194,149.917L194,155.5"/><path marker-end="url(#my-svg_flowchart-v2-pointEnd)" style="" class="edge-thickness-normal edge-pattern-solid edge-thickness-normal edge-pattern-solid flowchart-link" id="L_GEN15_RET16_0" d="M559.102,1482.188L559.018,1488.354C558.935,1494.521,558.768,1506.854,558.685,1518.604C558.602,1530.354,558.602,1541.521,558.602,1547.104L558.602,1552.688"/><path marker-end="url(#my-svg_flowchart-v2-pointEnd)" style="" class="edge-thickness-normal edge-pattern-solid edge-thickness-normal edge-pattern-solid flowchart-link" id="L_EXC14_GEN15_0" d="M559.102,1320.188L559.018,1326.354C558.935,1332.521,558.768,1344.854,558.759,1356.688C558.751,1368.521,558.9,1379.854,558.974,1385.521L559.049,1391.188"/></g><g class="edgeLabels"><g class="edgeLabel"><g transform="translate(0, 0)" class="label"><foreignObject height="0" width="0"><div style="display: table-cell; white-space: nowrap; line-height: 1.5; max-width: 200px; text-align: center;" class="labelBkg" xmlns="http://www.w3.org/1999/xhtml"><span class="edgeLabel"></span></div></foreignObject></g></g><g class="edgeLabel"><g transform="translate(0, 0)" class="label"><foreignObject height="0" width="0"><div style="display: table-cell; white-space: nowrap; line-height: 1.5; max-width: 200px; text-align: center;" class="labelBkg" xmlns="http://www.w3.org/1999/xhtml"><span class="edgeLabel"></span></div></foreignObject></g></g><g class="edgeLabel"><g transform="translate(0, 0)" class="label"><foreignObject height="0" width="0"><div style="display: table-cell; white-space: nowrap; line-height: 1.5; max-width: 200px; text-align: center;" class="labelBkg" xmlns="http://www.w3.org/1999/xhtml"><span class="edgeLabel"></span></div></foreignObject></g></g><g class="edgeLabel"><g transform="translate(0, 0)" class="label"><foreignObject height="0" width="0"><div style="display: table-cell; white-space: nowrap; line-height: 1.5; max-width: 200px; text-align: center;" class="labelBkg" xmlns="http://www.w3.org/1999/xhtml"><span class="edgeLabel"></span></div></foreignObject></g></g><g class="edgeLabel"><g transform="translate(0, 0)" class="label"><foreignObject height="0" width="0"><div style="display: table-cell; white-space: nowrap; line-height: 1.5; max-width: 200px; text-align: center;" class="labelBkg" xmlns="http://www.w3.org/1999/xhtml"><span class="edgeLabel"></span></div></foreignObject></g></g><g class="edgeLabel"><g transform="translate(0, 0)" class="label"><foreignObject height="0" width="0"><div style="display: table-cell; white-space: nowrap; line-height: 1.5; max-width: 200px; text-align: center;" class="labelBkg" xmlns="http://www.w3.org/1999/xhtml"><span class="edgeLabel"></span></div></foreignObject></g></g><g class="edgeLabel"><g transform="translate(0, 0)" class="label"><foreignObject height="0" width="0"><div style="display: table-cell; white-space: nowrap; line-height: 1.5; max-width: 200px; text-align: center;" class="labelBkg" xmlns="http://www.w3.org/1999/xhtml"><span class="edgeLabel"></span></div></foreignObject></g></g><g class="edgeLabel"><g transform="translate(0, 0)" class="label"><foreignObject height="0" width="0"><div style="display: table-cell; white-space: nowrap; line-height: 1.5; max-width: 200px; text-align: center;" class="labelBkg" xmlns="http://www.w3.org/1999/xhtml"><span class="edgeLabel"></span></div></foreignObject></g></g><g class="edgeLabel"><g transform="translate(0, 0)" class="label"><foreignObject height="0" width="0"><div style="display: table-cell; white-space: nowrap; line-height: 1.5; max-width: 200px; text-align: center;" class="labelBkg" xmlns="http://www.w3.org/1999/xhtml"><span class="edgeLabel"></span></div></foreignObject></g></g><g class="edgeLabel"><g transform="translate(0, 0)" class="label"><foreignObject height="0" width="0"><div style="display: table-cell; white-space: nowrap; line-height: 1.5; max-width: 200px; text-align: center;" class="labelBkg" xmlns="http://www.w3.org/1999/xhtml"><span class="edgeLabel"></span></div></foreignObject></g></g><g class="edgeLabel"><g transform="translate(0, 0)" class="label"><foreignObject height="0" width="0"><div style="display: table-cell; white-space: nowrap; line-height: 1.5; max-width: 200px; text-align: center;" class="labelBkg" xmlns="http://www.w3.org/1999/xhtml"><span class="edgeLabel"></span></div></foreignObject></g></g></g><g class="nodes"><g transform="translate(194, 65)" id="flowchart-START4-7" class="node default term"><rect height="39" width="58.546875" y="-19.5" x="-29.2734375" ry="19.5" rx="19.5" style="fill:#fce7f3 !important;stroke:#ec4899 !important" class="basic label-container"/><g transform="translate(-16.8984375, -12)" style="color:#831843 !important" class="label"><rect/><foreignObject height="24" width="33.796875"><div xmlns="http://www.w3.org/1999/xhtml" style="color: rgb(131, 24, 67) !important; display: table-cell; white-space: nowrap; line-height: 1.5; max-width: 200px; text-align: center;"><span class="nodeLabel" style="color:#831843 !important"><p>Start</p></span></div></foreignObject></g></g><g transform="translate(194, 198.5)" id="flowchart-A5-8" class="node default assign"><rect height="78" width="260" y="-39" x="-130" style="fill:#f8fafc !important;stroke:#64748b !important" class="basic label-container"/><g transform="translate(-100, -24)" style="color:#1e293b !important" class="label"><rect/><foreignObject height="48" width="200"><div xmlns="http://www.w3.org/1999/xhtml" style="color: rgb(30, 41, 59) !important; display: table; white-space: break-spaces; line-height: 1.5; max-width: 200px; text-align: center; width: 200px;"><span class="nodeLabel" style="color:#1e293b !important"><p>@year_prev := @year_curr - 1</p></span></div></foreignObject></g></g><g transform="translate(194, 344)" id="flowchart-LOG6-9" class="node default log"><g transform="translate(7.875,0)" class="basic label-container"><path style="fill:#f8fafc !important;stroke:#94a3b8 !important" fill="#f8fafc" stroke-width="0" stroke="none" d="M-123.25 -31.5 C-120.04312034623507 -25.086240692470135, -116.83624069247014 -18.67248138494027, -107.5 0 C-113.26870506066763 11.537410121335261, -119.03741012133526 23.074820242670523, -123.25 31.5 C-72.20034830357537 31.5, -21.150696607150735 31.5, 107.5 31.5 C107.5 17.375394777594053, 107.5 3.25078955518811, 107.5 -31.5 C16.424913092410307 -31.5, -74.65017381517939 -31.5, -123.25 -31.5"/><path style="fill:#f8fafc !important;stroke:#94a3b8 !important" fill="none" stroke-width="1.3" stroke="#94a3b8" d="M-123.25 -31.5 C-118.22706899492337 -21.454137989846757, -113.20413798984676 -11.40827597969351, -107.5 0 M-123.25 -31.5 C-117.85242770472094 -20.704855409441876, -112.45485540944188 -9.909710818883749, -107.5 0 M-107.5 0 C-110.96712552590351 6.9342510518070375, -114.43425105180704 13.868502103614075, -123.25 31.5 M-107.5 0 C-111.77939547772547 8.558790955450938, -116.05879095545095 17.117581910901876, -123.25 31.5 M-123.25 31.5 C-53.362917427699756 31.5, 16.524165144600488 31.5, 107.5 31.5 M-123.25 31.5 C-31.584610459493973 31.5, 60.080779081012054 31.5, 107.5 31.5 M107.5 31.5 C107.5 16.877063496255218, 107.5 2.2541269925104395, 107.5 -31.5 M107.5 31.5 C107.5 7.956140010075966, 107.5 -15.587719979848067, 107.5 -31.5 M107.5 -31.5 C24.747843418032247 -31.5, -58.00431316393551 -31.5, -123.25 -31.5 M107.5 -31.5 C46.51066514431643 -31.5, -14.478669711367147 -31.5, -123.25 -31.5"/></g><g transform="translate(-92.125, -24)" style="color:#64748b !important" class="label"><rect/><foreignObject height="48" width="200"><div xmlns="http://www.w3.org/1999/xhtml" style="color: rgb(100, 116, 139) !important; display: table; white-space: break-spaces; line-height: 1.5; max-width: 200px; text-align: center; width: 200px;"><span class="nodeLabel" style="color:#64748b !important"><p>LOG(INFO) f'Population growth ...'</p></span></div></foreignObject></g></g><g transform="translate(194, 494)" id="flowchart-SUB7-12" class="node default proc"><polygon style="fill:#fef3c7 !important;stroke:#f59e0b !important" transform="translate(-113.7578125,43.5)" class="label-container" points="0,0 227.515625,0 227.515625,-87 0,-87 0,0 -8,0 235.515625,0 235.515625,-87 -8,-87 -8,0"/><g transform="translate(-106.2578125, -36)" style="color:#78350f !important" class="label"><rect/><foreignObject height="72" width="212.515625"><div xmlns="http://www.w3.org/1999/xhtml" style="color: rgb(120, 53, 15) !important; display: table; white-space: break-spaces; line-height: 1.5; max-width: 200px; text-align: center; width: 200px;"><span class="nodeLabel" style="color:#78350f !important"><p>CALL search_population(@country, @year_prev) -&gt; @pop_prev</p></span></div></foreignObject></g></g><g transform="translate(194, 656)" id="flowchart-SUB8-15" class="node default proc"><polygon style="fill:#fef3c7 !important;stroke:#f59e0b !important" transform="translate(-113.7578125,43.5)" class="label-container" points="0,0 227.515625,0 227.515625,-87 0,-87 0,0 -8,0 235.515625,0 235.515625,-87 -8,-87 -8,0"/><g transform="translate(-106.2578125, -36)" style="color:#78350f !important" class="label"><rect/><foreignObject height="72" width="212.515625"><div xmlns="http://www.w3.org/1999/xhtml" style="color: rgb(120, 53, 15) !important; display: table; white-space: break-spaces; line-height: 1.5; max-width: 200px; text-align: center; width: 200px;"><span class="nodeLabel" style="color:#78350f !important"><p>CALL search_population(@country, @year_curr) -&gt; @pop_curr</p></span></div></foreignObject></g></g><g transform="translate(194, 806)" id="flowchart-LOG9-18" class="node default log"><g transform="translate(7.875,0)" class="basic label-container"><path style="fill:#f8fafc !important;stroke:#94a3b8 !important" fill="#f8fafc" stroke-width="0" stroke="none" d="M-123.25 -31.5 C-119.05153293758443 -23.103065875168845, -114.85306587516884 -14.706131750337686, -107.5 0 C-111.17779615007957 7.355592300159158, -114.85559230015916 14.711184600318315, -123.25 31.5 C-47.03423161769797 31.5, 29.18153676460406 31.5, 107.5 31.5 C107.5 17.032652015340787, 107.5 2.5653040306815704, 107.5 -31.5 C50.928278602448245 -31.5, -5.64344279510351 -31.5, -123.25 -31.5"/><path style="fill:#f8fafc !important;stroke:#94a3b8 !important" fill="none" stroke-width="1.3" stroke="#94a3b8" d="M-123.25 -31.5 C-117.52062566834816 -20.041251336696313, -111.79125133669632 -8.582502673392625, -107.5 0 M-123.25 -31.5 C-119.98919648100247 -24.978392962004918, -116.72839296200492 -18.45678592400984, -107.5 0 M-107.5 0 C-112.71015937079663 10.420318741593253, -117.92031874159325 20.840637483186505, -123.25 31.5 M-107.5 0 C-110.92789265866575 6.855785317331513, -114.35578531733151 13.711570634663026, -123.25 31.5 M-123.25 31.5 C-64.47633814932614 31.5, -5.702676298652278 31.5, 107.5 31.5 M-123.25 31.5 C-38.05895462687836 31.5, 47.13209074624328 31.5, 107.5 31.5 M107.5 31.5 C107.5 13.120690278668079, 107.5 -5.258619442663843, 107.5 -31.5 M107.5 31.5 C107.5 8.13967956052322, 107.5 -15.22064087895356, 107.5 -31.5 M107.5 -31.5 C24.893988789223144 -31.5, -57.71202242155371 -31.5, -123.25 -31.5 M107.5 -31.5 C18.089133639634355 -31.5, -71.32173272073129 -31.5, -123.25 -31.5"/></g><g transform="translate(-92.125, -24)" style="color:#64748b !important" class="label"><rect/><foreignObject height="48" width="200"><div xmlns="http://www.w3.org/1999/xhtml" style="color: rgb(100, 116, 139) !important; display: table; white-space: break-spaces; line-height: 1.5; max-width: 200px; text-align: center; width: 200px;"><span class="nodeLabel" style="color:#64748b !important"><p>LOG(DEBUG) f'Population fetched...'</p></span></div></foreignObject></g></g><g transform="translate(194, 956)" id="flowchart-SUB10-21" class="node default proc"><polygon style="fill:#fef3c7 !important;stroke:#f59e0b !important" transform="translate(-116.421875,43.5)" class="label-container" points="0,0 232.84375,0 232.84375,-87 0,-87 0,0 -8,0 240.84375,0 240.84375,-87 -8,-87 -8,0"/><g transform="translate(-108.921875, -36)" style="color:#78350f !important" class="label"><rect/><foreignObject height="72" width="217.84375"><div xmlns="http://www.w3.org/1999/xhtml" style="color: rgb(120, 53, 15) !important; display: table; white-space: break-spaces; line-height: 1.5; max-width: 200px; text-align: center; width: 200px;"><span class="nodeLabel" style="color:#78350f !important"><p>CALL calc_growth_rate(@pop_prev, @pop_curr) -&gt; @growth_rate</p></span></div></foreignObject></g></g><g transform="translate(194, 1197.09375)" id="flowchart-LOG11-24" class="node default log"><g transform="translate(7.875,0)" class="basic label-container"><path style="fill:#f8fafc !important;stroke:#94a3b8 !important" fill="#f8fafc" stroke-width="0" stroke="none" d="M-123.25 -31.5 C-119.21034580384888 -23.42069160769777, -115.17069160769776 -15.341383215395535, -107.5 0 C-112.92215273228311 10.844305464566228, -118.34430546456623 21.688610929132455, -123.25 31.5 C-73.44234382541799 31.5, -23.634687650836 31.5, 107.5 31.5 C107.5 10.593997255441042, 107.5 -10.312005489117915, 107.5 -31.5 C43.072905603841974 -31.5, -21.35418879231605 -31.5, -123.25 -31.5"/><path style="fill:#f8fafc !important;stroke:#94a3b8 !important" fill="none" stroke-width="1.3" stroke="#94a3b8" d="M-123.25 -31.5 C-117.87534168147559 -20.750683362951168, -112.50068336295116 -10.001366725902336, -107.5 0 M-123.25 -31.5 C-119.20498483005129 -23.40996966010258, -115.15996966010258 -15.319939320205158, -107.5 0 M-107.5 0 C-113.68243907319852 12.364878146397052, -119.86487814639705 24.729756292794104, -123.25 31.5 M-107.5 0 C-111.3657845676968 7.731569135393601, -115.2315691353936 15.463138270787201, -123.25 31.5 M-123.25 31.5 C-70.44179751913455 31.5, -17.633595038269107 31.5, 107.5 31.5 M-123.25 31.5 C-68.32457133394263 31.5, -13.399142667885243 31.5, 107.5 31.5 M107.5 31.5 C107.5 15.088859064852272, 107.5 -1.3222818702954555, 107.5 -31.5 M107.5 31.5 C107.5 13.051501099945096, 107.5 -5.3969978001098085, 107.5 -31.5 M107.5 -31.5 C57.49451789196483 -31.5, 7.4890357839296655 -31.5, -123.25 -31.5 M107.5 -31.5 C46.51078302705084 -31.5, -14.478433945898317 -31.5, -123.25 -31.5"/></g><g transform="translate(-92.125, -24)" style="color:#64748b !important" class="label"><rect/><foreignObject height="48" width="200"><div xmlns="http://www.w3.org/1999/xhtml" style="color: rgb(100, 116, 139) !important; display: table; white-space: break-spaces; line-height: 1.5; max-width: 200px; text-align: center; width: 200px;"><span class="nodeLabel" style="color:#64748b !important"><p>LOG(INFO) f'Growth rate comput...'</p></span></div></foreignObject></g></g><g transform="translate(194, 1438.1875)" id="flowchart-GEN12-27" class="node default llm"><polygon style="fill:#dbeafe !important;stroke:#3b82f6 !important" transform="translate(-107.5,43.5)" class="label-container" points="-43.5,0 215,0 258.5,-87 0,-87"/><g transform="translate(-100, -36)" style="color:#1e3a5f !important" class="label"><rect/><foreignObject height="72" width="200"><div xmlns="http://www.w3.org/1999/xhtml" style="color: rgb(30, 58, 95) !important; display: table; white-space: break-spaces; line-height: 1.5; max-width: 200px; text-align: center; width: 200px;"><span class="nodeLabel" style="color:#1e3a5f !important"><p>GENERATE growth_report(@country, @year_prev, ...) -&gt; @report</p></span></div></foreignObject></g></g><g transform="translate(194, 1588.1875)" id="flowchart-RET13-30" class="node default term"><rect height="63" width="230.75" y="-31.5" x="-115.375" ry="31.5" rx="31.5" style="fill:#fce7f3 !important;stroke:#ec4899 !important" class="basic label-container"/><g transform="translate(-100, -24)" style="color:#831843 !important" class="label"><rect/><foreignObject height="48" width="200"><div xmlns="http://www.w3.org/1999/xhtml" style="color: rgb(131, 24, 67) !important; display: table; white-space: break-spaces; line-height: 1.5; max-width: 200px; text-align: center; width: 200px;"><span class="nodeLabel" style="color:#831843 !important"><p>RETURN @report (status='comp...)</p></span></div></foreignObject></g></g><g transform="translate(558.6015625, 1438.1875)" id="flowchart-GEN15-36" class="node default llm"><polygon style="fill:#dbeafe !important;stroke:#3b82f6 !important" transform="translate(-120.1015625,43.5)" class="label-container" points="-43.5,0 240.203125,0 283.703125,-87 0,-87"/><g transform="translate(-112.6015625, -36)" style="color:#1e3a5f !important" class="label"><rect/><foreignObject height="72" width="225.203125"><div xmlns="http://www.w3.org/1999/xhtml" style="color: rgb(30, 58, 95) !important; display: table; white-space: break-spaces; line-height: 1.5; max-width: 200px; text-align: center; width: 200px;"><span class="nodeLabel" style="color:#1e3a5f !important"><p>GENERATE search_error_report(@country) -&gt; @report</p></span></div></foreignObject></g></g><g transform="translate(558.6015625, 1588.1875)" id="flowchart-RET16-37" class="node default term"><rect height="63" width="230.75" y="-31.5" x="-115.375" ry="31.5" rx="31.5" style="fill:#fce7f3 !important;stroke:#ec4899 !important" class="basic label-container"/><g transform="translate(-100, -24)" style="color:#831843 !important" class="label"><rect/><foreignObject height="48" width="200"><div xmlns="http://www.w3.org/1999/xhtml" style="color: rgb(131, 24, 67) !important; display: table; white-space: break-spaces; line-height: 1.5; max-width: 200px; text-align: center; width: 200px;"><span class="nodeLabel" style="color:#831843 !important"><p>RETURN @report (status='error')</p></span></div></foreignObject></g></g><g transform="translate(558.6015625, 1197.09375)" id="flowchart-EXC14-35" class="node default ctrl"><polygon style="fill:#ede9fe !important;stroke:#8b5cf6 !important" transform="translate(-122.59375,122.59375)" class="label-container" points="122.59375,0 245.1875,-122.59375 122.59375,-245.1875 0,-122.59375"/><g transform="translate(-95.59375, -12)" style="color:#3b0764 !important" class="label"><rect/><foreignObject height="24" width="191.1875"><div xmlns="http://www.w3.org/1999/xhtml" style="color: rgb(59, 7, 100) !important; display: table-cell; white-space: nowrap; line-height: 1.5; max-width: 200px; text-align: center;"><span class="nodeLabel" style="color:#3b0764 !important"><p>EXCEPTION SearchFailed</p></span></div></foreignObject></g></g></g></g><g transform="translate(1489.203125, 629.59375)" class="root"><g class="clusters"><g data-look="classic" id="SG_search_population" class="cluster"><rect height="390" width="372" y="8" x="8" style=""/><g transform="translate(94, 8)" class="cluster-label"><foreignObject height="48" width="200"><div style="display: table; white-space: break-spaces; line-height: 1.5; max-width: 200px; text-align: center; width: 200px;" xmlns="http://www.w3.org/1999/xhtml"><span class="nodeLabel"><p>PROCEDURE: search_population</p></span></div></foreignObject></g></g></g><g class="edgePaths"><path marker-end="url(#my-svg_flowchart-v2-pointEnd)" style="" class="edge-thickness-normal edge-pattern-solid edge-thickness-normal edge-pattern-solid flowchart-link" id="L_GEN2_RET3_0" d="M194.5,247L194.417,253.167C194.333,259.333,194.167,271.667,194.083,283.417C194,295.167,194,306.333,194,311.917L194,317.5"/><path marker-end="url(#my-svg_flowchart-v2-pointEnd)" style="" class="edge-thickness-normal edge-pattern-solid edge-thickness-normal edge-pattern-solid flowchart-link" id="L_START1_GEN2_0" d="M194,84.5L194,90.75C194,97,194,109.5,194.075,121.417C194.149,133.333,194.298,144.667,194.373,150.334L194.447,156"/></g><g class="edgeLabels"><g class="edgeLabel"><g transform="translate(0, 0)" class="label"><foreignObject height="0" width="0"><div style="display: table-cell; white-space: nowrap; line-height: 1.5; max-width: 200px; text-align: center;" class="labelBkg" xmlns="http://www.w3.org/1999/xhtml"><span class="edgeLabel"></span></div></foreignObject></g></g><g class="edgeLabel"><g transform="translate(0, 0)" class="label"><foreignObject height="0" width="0"><div style="display: table-cell; white-space: nowrap; line-height: 1.5; max-width: 200px; text-align: center;" class="labelBkg" xmlns="http://www.w3.org/1999/xhtml"><span class="edgeLabel"></span></div></foreignObject></g></g></g><g class="nodes"><g transform="translate(194, 65)" id="flowchart-START1-0" class="node default term"><rect height="39" width="58.546875" y="-19.5" x="-29.2734375" ry="19.5" rx="19.5" style="fill:#fce7f3 !important;stroke:#ec4899 !important" class="basic label-container"/><g transform="translate(-16.8984375, -12)" style="color:#831843 !important" class="label"><rect/><foreignObject height="24" width="33.796875"><div xmlns="http://www.w3.org/1999/xhtml" style="color: rgb(131, 24, 67) !important; display: table-cell; white-space: nowrap; line-height: 1.5; max-width: 200px; text-align: center;"><span class="nodeLabel" style="color:#831843 !important"><p>Start</p></span></div></foreignObject></g></g><g transform="translate(194, 203)" id="flowchart-GEN2-1" class="node default llm"><polygon style="fill:#dbeafe !important;stroke:#3b82f6 !important" transform="translate(-107.5,43.5)" class="label-container" points="-43.5,0 215,0 258.5,-87 0,-87"/><g transform="translate(-100, -36)" style="color:#1e3a5f !important" class="label"><rect/><foreignObject height="72" width="200"><div xmlns="http://www.w3.org/1999/xhtml" style="color: rgb(30, 58, 95) !important; display: table; white-space: break-spaces; line-height: 1.5; max-width: 200px; text-align: center; width: 200px;"><span class="nodeLabel" style="color:#1e3a5f !important"><p>GENERATE search_population(country, year) -&gt; @result</p></span></div></foreignObject></g></g><g transform="translate(194, 341)" id="flowchart-RET3-2" class="node default term"><rect height="39" width="151.234375" y="-19.5" x="-75.6171875" ry="19.5" rx="19.5" style="fill:#fce7f3 !important;stroke:#ec4899 !important" class="basic label-container"/><g transform="translate(-63.2421875, -12)" style="color:#831843 !important" class="label"><rect/><foreignObject height="24" width="126.484375"><div xmlns="http://www.w3.org/1999/xhtml" style="color: rgb(131, 24, 67) !important; display: table-cell; white-space: nowrap; line-height: 1.5; max-width: 200px; text-align: center;"><span class="nodeLabel" style="color:#831843 !important"><p>RETURN @result</p></span></div></foreignObject></g></g></g></g></g></g></g></svg>