<svg aria-roledescription="flowchart-v2" role="graphics-document document" viewBox="0 0 1404.48046875 2274.28125" style="max-width: 1404.48px; background-color: white;" class="flowchart" xmlns:xlink="http://www.w3.org/1999/xlink" xmlns="http://www.w3.org/2000/svg" width="100%" id="my-svg"><style>#my-svg{font-family:"trebuchet ms",verdana,arial,sans-serif;font-size:16px;fill:#333;}@keyframes edge-animation-frame{from{stroke-dashoffset:0;}}@keyframes dash{to{stroke-dashoffset:0;}}#my-svg .edge-animation-slow{stroke-dasharray:9,5!important;stroke-dashoffset:900;animation:dash 50s linear infinite;stroke-linecap:round;}#my-svg .edge-animation-fast{stroke-dasharray:9,5!important;stroke-dashoffset:900;animation:dash 20s linear infinite;stroke-linecap:round;}#my-svg .error-icon{fill:#552222;}#my-svg .error-text{fill:#552222;stroke:#552222;}#my-svg .edge-thickness-normal{stroke-width:1px;}#my-svg .edge-thickness-thick{stroke-width:3.5px;}#my-svg .edge-pattern-solid{stroke-dasharray:0;}#my-svg .edge-thickness-invisible{stroke-width:0;fill:none;}#my-svg .edge-pattern-dashed{stroke-dasharray:3;}#my-svg .edge-pattern-dotted{stroke-dasharray:2;}#my-svg .marker{fill:#333333;stroke:#333333;}#my-svg .marker.cross{stroke:#333333;}#my-svg svg{font-family:"trebuchet ms",verdana,arial,sans-serif;font-size:16px;}#my-svg p{margin:0;}#my-svg .label{font-family:"trebuchet ms",verdana,arial,sans-serif;color:#333;}#my-svg .cluster-label text{fill:#333;}#my-svg .cluster-label span{color:#333;}#my-svg .cluster-label span p{background-color:transparent;}#my-svg .label text,#my-svg span{fill:#333;color:#333;}#my-svg .node rect,#my-svg .node circle,#my-svg .node ellipse,#my-svg .node polygon,#my-svg .node path{fill:#ECECFF;stroke:#9370DB;stroke-width:1px;}#my-svg .rough-node .label text,#my-svg .node .label text,#my-svg .image-shape .label,#my-svg .icon-shape .label{text-anchor:middle;}#my-svg .node .katex path{fill:#000;stroke:#000;stroke-width:1px;}#my-svg .rough-node .label,#my-svg .node .label,#my-svg .image-shape .label,#my-svg .icon-shape .label{text-align:center;}#my-svg .node.clickable{cursor:pointer;}#my-svg .root .anchor path{fill:#333333!important;stroke-width:0;stroke:#333333;}#my-svg .arrowheadPath{fill:#333333;}#my-svg .edgePath .path{stroke:#333333;stroke-width:2.0px;}#my-svg .flowchart-link{stroke:#333333;fill:none;}#my-svg .edgeLabel{background-color:rgba(232,232,232, 0.8);text-align:center;}#my-svg .edgeLabel p{background-color:rgba(232,232,232, 0.8);}#my-svg .edgeLabel rect{opacity:0.5;background-color:rgba(232,232,232, 0.8);fill:rgba(232,232,232, 0.8);}#my-svg .labelBkg{background-color:rgba(232, 232, 232, 0.5);}#my-svg .cluster rect{fill:#ffffde;stroke:#aaaa33;stroke-width:1px;}#my-svg .cluster text{fill:#333;}#my-svg .cluster span{color:#333;}#my-svg div.mermaidTooltip{position:absolute;text-align:center;max-width:200px;padding:2px;font-family:"trebuchet ms",verdana,arial,sans-serif;font-size:12px;background:hsl(80, 100%, 96.2745098039%);border:1px solid #aaaa33;border-radius:2px;pointer-events:none;z-index:100;}#my-svg .flowchartTitleText{text-anchor:middle;font-size:18px;fill:#333;}#my-svg rect.text{fill:none;stroke-width:0;}#my-svg .icon-shape,#my-svg .image-shape{background-color:rgba(232,232,232, 0.8);text-align:center;}#my-svg .icon-shape p,#my-svg .image-shape p{background-color:rgba(232,232,232, 0.8);padding:2px;}#my-svg .icon-shape rect,#my-svg .image-shape rect{opacity:0.5;background-color:rgba(232,232,232, 0.8);fill:rgba(232,232,232, 0.8);}#my-svg .label-icon{display:inline-block;height:1em;overflow:visible;vertical-align:-0.125em;}#my-svg .node .label-icon path{fill:currentColor;stroke:revert;stroke-width:revert;}#my-svg :root{--mermaid-font-family:"trebuchet ms",verdana,arial,sans-serif;}#my-svg .llm&gt;*{fill:#dbeafe!important;stroke:#3b82f6!important;color:#1e3a5f!important;}#my-svg .llm span{fill:#dbeafe!important;stroke:#3b82f6!important;color:#1e3a5f!important;}#my-svg .llm tspan{fill:#1e3a5f!important;}#my-svg .proc&gt;*{fill:#fef3c7!important;stroke:#f59e0b!important;color:#78350f!important;}#my-svg .proc span{fill:#fef3c7!important;stroke:#f59e0b!important;color:#78350f!important;}#my-svg .proc tspan{fill:#78350f!important;}#my-svg .ctrl&gt;*{fill:#ede9fe!important;stroke:#8b5cf6!important;color:#3b0764!important;}#my-svg .ctrl span{fill:#ede9fe!important;stroke:#8b5cf6!important;color:#3b0764!important;}#my-svg .ctrl tspan{fill:#3b0764!important;}#my-svg .term&gt;*{fill:#fce7f3!important;stroke:#ec4899!important;color:#831843!important;}#my-svg .term span{fill:#fce7f3!important;stroke:#ec4899!important;color:#831843!important;}#my-svg .term tspan{fill:#831843!important;}#my-svg .log&gt;*{fill:#f8fafc!important;stroke:#94a3b8!important;color:#64748b!important;}#my-svg .log span{fill:#f8fafc!important;stroke:#94a3b8!important;color:#64748b!important;}#my-svg .log tspan{fill:#64748b!important;}#my-svg .fn&gt;*{fill:#f0fdf4!important;stroke:#86efac!important;color:#166534!important;}#my-svg .fn span{fill:#f0fdf4!important;stroke:#86efac!important;color:#166534!important;}#my-svg .fn tspan{fill:#166534!important;}#my-svg .assign&gt;*{fill:#f8fafc!important;stroke:#64748b!important;color:#1e293b!important;}#my-svg .assign span{fill:#f8fafc!important;stroke:#64748b!important;color:#1e293b!important;}#my-svg .assign tspan{fill:#1e293b!important;}</style><g><marker orient="auto" markerHeight="8" markerWidth="8" markerUnits="userSpaceOnUse" refY="5" refX="5" viewBox="0 0 10 10" class="marker flowchart-v2" id="my-svg_flowchart-v2-pointEnd"><path style="stroke-width: 1; stroke-dasharray: 1, 0;" class="arrowMarkerPath" d="M 0 0 L 10 5 L 0 10 z"/></marker><marker orient="auto" markerHeight="8" markerWidth="8" markerUnits="userSpaceOnUse" refY="5" refX="4.5" viewBox="0 0 10 10" class="marker flowchart-v2" id="my-svg_flowchart-v2-pointStart"><path style="stroke-width: 1; stroke-dasharray: 1, 0;" class="arrowMarkerPath" d="M 0 5 L 10 10 L 10 0 z"/></marker><marker orient="auto" markerHeight="11" markerWidth="11" markerUnits="userSpaceOnUse" refY="5" refX="11" viewBox="0 0 10 10" class="marker flowchart-v2" id="my-svg_flowchart-v2-circleEnd"><circle style="stroke-width: 1; stroke-dasharray: 1, 0;" class="arrowMarkerPath" r="5" cy="5" cx="5"/></marker><marker orient="auto" markerHeight="11" markerWidth="11" markerUnits="userSpaceOnUse" refY="5" refX="-1" viewBox="0 0 10 10" class="marker flowchart-v2" id="my-svg_flowchart-v2-circleStart"><circle style="stroke-width: 1; stroke-dasharray: 1, 0;" class="arrowMarkerPath" r="5" cy="5" cx="5"/></marker><marker orient="auto" markerHeight="11" markerWidth="11" markerUnits="userSpaceOnUse" refY="5.2" refX="12" viewBox="0 0 11 11" class="marker cross flowchart-v2" id="my-svg_flowchart-v2-crossEnd"><path style="stroke-width: 2; stroke-dasharray: 1, 0;" class="arrowMarkerPath" d="M 1,1 l 9,9 M 10,1 l -9,9"/></marker><marker orient="auto" markerHeight="11" markerWidth="11" markerUnits="userSpaceOnUse" refY="5.2" refX="-1" viewBox="0 0 11 11" class="marker cross flowchart-v2" id="my-svg_flowchart-v2-crossStart"><path style="stroke-width: 2; stroke-dasharray: 1, 0;" class="arrowMarkerPath" d="M 1,1 l 9,9 M 10,1 l -9,9"/></marker><g class="root"><g class="clusters"/><g class="edgePaths"/><g class="edgeLabels"/><g class="nodes"><g transform="translate(0, 1064.640625)" class="root"><g class="clusters"><g data-look="classic" id="FUNCTIONS" class="cluster"><rect height="129" width="516.453125" y="8" x="8" style=""/><g transform="translate(195.96875, 8)" class="cluster-label"><foreignObject height="24" width="140.515625"><div style="display: table-cell; white-space: nowrap; line-height: 1.5; max-width: 200px; text-align: center;" xmlns="http://www.w3.org/1999/xhtml"><span class="nodeLabel"><p>Function Definitions</p></span></div></foreignObject></g></g></g><g class="edgePaths"/><g class="edgeLabels"/><g class="nodes"><g transform="translate(140.109375, 72.5)" id="flowchart-FN18-49" class="node default fn"><rect height="54" width="194.21875" y="-27" x="-97.109375" style="fill:#f0fdf4 !important;stroke:#86efac !important" class="basic label-container"/><g transform="translate(-67.109375, -12)" style="color:#166534 !important" class="label"><rect/><foreignObject height="24" width="134.21875"><div xmlns="http://www.w3.org/1999/xhtml" style="color: rgb(22, 101, 52) !important; display: table-cell; white-space: nowrap; line-height: 1.5; max-width: 200px; text-align: center;"><span class="nodeLabel" style="color:#166534 !important"><p>FUNCTION: draft()</p></span></div></foreignObject></g></g><g transform="translate(388.3359375, 72.5)" id="flowchart-FN19-50" class="node default fn"><rect height="54" width="202.234375" y="-27" x="-101.1171875" style="fill:#f0fdf4 !important;stroke:#86efac !important" class="basic label-container"/><g transform="translate(-71.1171875, -12)" style="color:#166534 !important" class="label"><rect/><foreignObject height="24" width="142.234375"><div xmlns="http://www.w3.org/1999/xhtml" style="color: rgb(22, 101, 52) !important; display: table-cell; white-space: nowrap; line-height: 1.5; max-width: 200px; text-align: center;"><span class="nodeLabel" style="color:#166534 !important"><p>FUNCTION: refine()</p></span></div></foreignObject></g></g></g></g><g transform="translate(566.453125, 0)" class="root"><g class="clusters"><g data-look="classic" id="SG_human_steering" class="cluster"><rect height="2258.28125" width="822.02734375" y="8" x="8" style=""/><g transform="translate(319.013671875, 8)" class="cluster-label"><foreignObject height="48" width="200"><div style="display: table; white-space: break-spaces; line-height: 1.5; max-width: 200px; text-align: center; width: 200px;" xmlns="http://www.w3.org/1999/xhtml"><span class="nodeLabel"><p>WORKFLOW: human_steering</p></span></div></foreignObject></g></g></g><g class="edgePaths"><path marker-end="url(#my-svg_flowchart-v2-pointEnd)" style="" class="edge-thickness-normal edge-pattern-solid edge-thickness-normal edge-pattern-solid flowchart-link" id="L_LOG2_GEN3_0" d="M352.027,223L351.944,229.167C351.861,235.333,351.694,247.667,351.685,259.5C351.676,271.333,351.826,282.667,351.9,288.334L351.975,294"/><path marker-end="url(#my-svg_flowchart-v2-pointEnd)" style="" class="edge-thickness-normal edge-pattern-solid edge-thickness-normal edge-pattern-solid flowchart-link" id="L_GEN3_LOG4_0" d="M352.027,361L351.944,367.167C351.861,373.333,351.694,385.667,351.685,397.5C351.676,409.333,351.826,420.667,351.9,426.334L351.975,432"/><path marker-end="url(#my-svg_flowchart-v2-pointEnd)" style="" class="edge-thickness-normal edge-pattern-solid edge-thickness-normal edge-pattern-solid flowchart-link" id="L_LOG4_SUB5_0" d="M352.027,499L351.944,505.167C351.861,511.333,351.694,523.667,351.685,535.5C351.676,547.333,351.826,558.667,351.9,564.334L351.975,570"/><path marker-end="url(#my-svg_flowchart-v2-pointEnd)" style="" class="edge-thickness-normal edge-pattern-solid edge-thickness-normal edge-pattern-solid flowchart-link" id="L_SUB5_SUB6_0" d="M352.027,661L351.944,667.167C351.861,673.333,351.694,685.667,351.685,697.5C351.676,709.333,351.826,720.667,351.9,726.334L351.975,732"/><path marker-end="url(#my-svg_flowchart-v2-pointEnd)" style="" class="edge-thickness-normal edge-pattern-solid edge-thickness-normal edge-pattern-solid flowchart-link" id="L_SUB6_SUB7_0" d="M352.027,823L351.944,829.167C351.861,835.333,351.694,847.667,351.685,859.5C351.676,871.333,351.826,882.667,351.9,888.334L351.975,894"/><path marker-end="url(#my-svg_flowchart-v2-pointEnd)" style="" class="edge-thickness-normal edge-pattern-solid edge-thickness-normal edge-pattern-solid flowchart-link" id="L_LOG10_GEN11_0" d="M194.5,1447.281L194.417,1453.448C194.333,1459.615,194.167,1471.948,194.158,1483.781C194.149,1495.615,194.298,1506.948,194.373,1512.615L194.447,1518.282"/><path marker-end="url(#my-svg_flowchart-v2-pointEnd)" style="" class="edge-thickness-normal edge-pattern-solid edge-thickness-normal edge-pattern-solid flowchart-link" id="L_EVAL8_LOG10_0" d="M296.52,1229.774L279.433,1247.192C262.347,1264.61,228.173,1299.445,211.163,1324.53C194.153,1349.615,194.307,1364.948,194.383,1372.615L194.46,1380.281"/><path marker-end="url(#my-svg_flowchart-v2-pointEnd)" style="" class="edge-thickness-normal edge-pattern-solid edge-thickness-normal edge-pattern-solid flowchart-link" id="L_GEN11_MERGE9_0" d="M194.5,1609.281L194.417,1615.448C194.333,1621.615,194.167,1633.948,214.705,1646.987C235.244,1660.027,276.488,1673.773,297.11,1680.645L317.733,1687.518"/><path marker-end="url(#my-svg_flowchart-v2-pointEnd)" style="" class="edge-thickness-normal edge-pattern-solid edge-thickness-normal edge-pattern-solid flowchart-link" id="L_LOG12_A13_0" d="M516.09,1447.281L516.007,1453.448C515.923,1459.615,515.757,1471.948,515.673,1486.448C515.59,1500.948,515.59,1517.615,515.59,1525.948L515.59,1534.281"/><path marker-end="url(#my-svg_flowchart-v2-pointEnd)" style="" class="edge-thickness-normal edge-pattern-solid edge-thickness-normal edge-pattern-solid flowchart-link" id="L_EVAL8_LOG12_0" d="M408.679,1228.629L426.498,1246.238C444.316,1263.846,479.953,1299.064,497.848,1324.339C515.743,1349.615,515.897,1364.948,515.973,1372.615L516.05,1380.281"/><path marker-end="url(#my-svg_flowchart-v2-pointEnd)" style="" class="edge-thickness-normal edge-pattern-solid edge-thickness-normal edge-pattern-solid flowchart-link" id="L_A13_MERGE9_0" d="M515.59,1592.281L515.59,1601.281C515.59,1610.281,515.59,1628.281,493.881,1644.228C472.172,1660.175,428.755,1674.069,407.046,1681.015L385.337,1687.962"/><path marker-end="url(#my-svg_flowchart-v2-pointEnd)" style="" class="edge-thickness-normal edge-pattern-solid edge-thickness-normal edge-pattern-solid flowchart-link" id="L_SUB7_EVAL8_0" d="M352.027,985L351.944,991.167C351.861,997.333,351.694,1009.667,351.685,1021.5C351.676,1033.333,351.826,1044.667,351.9,1050.334L351.975,1056"/><path marker-end="url(#my-svg_flowchart-v2-pointEnd)" style="" class="edge-thickness-normal edge-pattern-solid edge-thickness-normal edge-pattern-solid flowchart-link" id="L_MERGE9_SUB14_0" d="M351.527,1713.781L351.527,1720.031C351.527,1726.281,351.527,1738.781,351.608,1766.615C351.689,1794.448,351.851,1837.615,351.932,1859.198L352.012,1880.781"/><path marker-end="url(#my-svg_flowchart-v2-pointEnd)" style="" class="edge-thickness-normal edge-pattern-solid edge-thickness-normal edge-pattern-solid flowchart-link" id="L_SUB14_RET15_0" d="M352.027,1971.781L351.944,1993.865C351.861,2015.948,351.694,2060.115,351.611,2089.781C351.527,2119.448,351.527,2134.615,351.527,2142.198L351.527,2149.781"/><path marker-end="url(#my-svg_flowchart-v2-pointEnd)" style="" class="edge-thickness-normal edge-pattern-solid edge-thickness-normal edge-pattern-solid flowchart-link" id="L_START1_LOG2_0" d="M351.527,84.5L351.527,90.75C351.527,97,351.527,109.5,351.602,121.417C351.676,133.333,351.826,144.667,351.9,150.334L351.975,156"/><path marker-end="url(#my-svg_flowchart-v2-pointEnd)" style="" class="edge-thickness-normal edge-pattern-solid edge-thickness-normal edge-pattern-solid flowchart-link" id="L_EXC16_RET17_0" d="M656.527,2067.281L656.444,2073.448C656.361,2079.615,656.194,2091.948,656.111,2103.698C656.027,2115.448,656.027,2126.615,656.027,2132.198L656.027,2137.781"/></g><g class="edgeLabels"><g class="edgeLabel"><g transform="translate(0, 0)" class="label"><foreignObject height="0" width="0"><div style="display: table-cell; white-space: nowrap; line-height: 1.5; max-width: 200px; text-align: center;" class="labelBkg" xmlns="http://www.w3.org/1999/xhtml"><span class="edgeLabel"></span></div></foreignObject></g></g><g class="edgeLabel"><g transform="translate(0, 0)" class="label"><foreignObject height="0" width="0"><div style="display: table-cell; white-space: nowrap; line-height: 1.5; max-width: 200px; text-align: center;" class="labelBkg" xmlns="http://www.w3.org/1999/xhtml"><span class="edgeLabel"></span></div></foreignObject></g></g><g class="edgeLabel"><g transform="translate(0, 0)" class="label"><foreignObject height="0" width="0"><div style="display: table-cell; white-space: nowrap; line-height: 1.5; max-width: 200px; text-align: center;" class="labelBkg" xmlns="http://www.w3.org/1999/xhtml"><span class="edgeLabel"></span></div></foreignObject></g></g><g class="edgeLabel"><g transform="translate(0, 0)" class="label"><foreignObject height="0" width="0"><div style="display: table-cell; white-space: nowrap; line-height: 1.5; max-width: 200px; text-align: center;" class="labelBkg" xmlns="http://www.w3.org/1999/xhtml"><span class="edgeLabel"></span></div></foreignObject></g></g><g class="edgeLabel"><g transform="translate(0, 0)" class="label"><foreignObject height="0" width="0"><div style="display: table-cell; white-space: nowrap; line-height: 1.5; max-width: 200px; text-align: center;" class="labelBkg" xmlns="http://www.w3.org/1999/xhtml"><span class="edgeLabel"></span></div></foreignObject></g></g><g class="edgeLabel"><g transform="translate(0, 0)" class="label"><foreignObject height="0" width="0"><div style="display: table-cell; white-space: nowrap; line-height: 1.5; max-width: 200px; text-align: center;" class="labelBkg" xmlns="http://www.w3.org/1999/xhtml"><span class="edgeLabel"></span></div></foreignObject></g></g><g transform="translate(194, 1334.28125)" class="edgeLabel"><g transform="translate(-38.8359375, -12)" class="label"><foreignObject height="24" width="77.671875"><div style="display: table-cell; white-space: nowrap; line-height: 1.5; max-width: 200px; text-align: center;" class="labelBkg" xmlns="http://www.w3.org/1999/xhtml"><span class="edgeLabel"><p>WHEN != ''</p></span></div></foreignObject></g></g><g class="edgeLabel"><g transform="translate(0, 0)" class="label"><foreignObject height="0" width="0"><div style="display: table-cell; white-space: nowrap; line-height: 1.5; max-width: 200px; text-align: center;" class="labelBkg" xmlns="http://www.w3.org/1999/xhtml"><span class="edgeLabel"></span></div></foreignObject></g></g><g class="edgeLabel"><g transform="translate(0, 0)" class="label"><foreignObject height="0" width="0"><div style="display: table-cell; white-space: nowrap; line-height: 1.5; max-width: 200px; text-align: center;" class="labelBkg" xmlns="http://www.w3.org/1999/xhtml"><span class="edgeLabel"></span></div></foreignObject></g></g><g transform="translate(515.58984375, 1334.28125)" class="edgeLabel"><g transform="translate(-20.4609375, -12)" class="label"><foreignObject height="24" width="40.921875"><div style="display: table-cell; white-space: nowrap; line-height: 1.5; max-width: 200px; text-align: center;" class="labelBkg" xmlns="http://www.w3.org/1999/xhtml"><span class="edgeLabel"><p>ELSE</p></span></div></foreignObject></g></g><g class="edgeLabel"><g transform="translate(0, 0)" class="label"><foreignObject height="0" width="0"><div style="display: table-cell; white-space: nowrap; line-height: 1.5; max-width: 200px; text-align: center;" class="labelBkg" xmlns="http://www.w3.org/1999/xhtml"><span class="edgeLabel"></span></div></foreignObject></g></g><g class="edgeLabel"><g transform="translate(0, 0)" class="label"><foreignObject height="0" width="0"><div style="display: table-cell; white-space: nowrap; line-height: 1.5; max-width: 200px; text-align: center;" class="labelBkg" xmlns="http://www.w3.org/1999/xhtml"><span class="edgeLabel"></span></div></foreignObject></g></g><g class="edgeLabel"><g transform="translate(0, 0)" class="label"><foreignObject height="0" width="0"><div style="display: table-cell; white-space: nowrap; line-height: 1.5; max-width: 200px; text-align: center;" class="labelBkg" xmlns="http://www.w3.org/1999/xhtml"><span class="edgeLabel"></span></div></foreignObject></g></g><g class="edgeLabel"><g transform="translate(0, 0)" class="label"><foreignObject height="0" width="0"><div style="display: table-cell; white-space: nowrap; line-height: 1.5; max-width: 200px; text-align: center;" class="labelBkg" xmlns="http://www.w3.org/1999/xhtml"><span class="edgeLabel"></span></div></foreignObject></g></g><g class="edgeLabel"><g transform="translate(0, 0)" class="label"><foreignObject height="0" width="0"><div style="display: table-cell; white-space: nowrap; line-height: 1.5; max-width: 200px; text-align: center;" class="labelBkg" xmlns="http://www.w3.org/1999/xhtml"><span class="edgeLabel"></span></div></foreignObject></g></g><g class="edgeLabel"><g transform="translate(0, 0)" class="label"><foreignObject height="0" width="0"><div style="display: table-cell; white-space: nowrap; line-height: 1.5; max-width: 200px; text-align: center;" class="labelBkg" xmlns="http://www.w3.org/1999/xhtml"><span class="edgeLabel"></span></div></foreignObject></g></g></g><g class="nodes"><g transform="translate(351.52734375, 65)" id="flowchart-START1-0" class="node default term"><rect height="39" width="58.546875" y="-19.5" x="-29.2734375" ry="19.5" rx="19.5" style="fill:#fce7f3 !important;stroke:#ec4899 !important" class="basic label-container"/><g transform="translate(-16.8984375, -12)" style="color:#831843 !important" class="label"><rect/><foreignObject height="24" width="33.796875"><div xmlns="http://www.w3.org/1999/xhtml" style="color: rgb(131, 24, 67) !important; display: table-cell; white-space: nowrap; line-height: 1.5; max-width: 200px; text-align: center;"><span class="nodeLabel" style="color:#831843 !important"><p>Start</p></span></div></foreignObject></g></g><g transform="translate(351.52734375, 191)" id="flowchart-LOG2-1" class="node default log"><g transform="translate(7.875,0)" class="basic label-container"><path style="fill:#f8fafc !important;stroke:#94a3b8 !important" fill="#f8fafc" stroke-width="0" stroke="none" d="M-123.25 -31.5 C-118.54083042343771 -22.081660846875426, -113.83166084687542 -12.663321693750852, -107.5 0 C-113.68435910781993 12.368718215639856, -119.86871821563986 24.73743643127971, -123.25 31.5 C-42.9130513342796 31.5, 37.4238973314408 31.5, 107.5 31.5 C107.5 14.434494078860336, 107.5 -2.631011842279328, 107.5 -31.5 C45.34487020739631 -31.5, -16.810259585207376 -31.5, -123.25 -31.5"/><path style="fill:#f8fafc !important;stroke:#94a3b8 !important" fill="none" stroke-width="1.3" stroke="#94a3b8" d="M-123.25 -31.5 C-118.15946577874841 -21.318931557496832, -113.06893155749682 -11.13786311499366, -107.5 0 M-123.25 -31.5 C-119.41148627272088 -23.82297254544175, -115.57297254544174 -16.1459450908835, -107.5 0 M-107.5 0 C-113.57412429766606 12.148248595332113, -119.64824859533212 24.296497190664226, -123.25 31.5 M-107.5 0 C-111.2179284011712 7.435856802342402, -114.9358568023424 14.871713604684803, -123.25 31.5 M-123.25 31.5 C-36.17450002190073 31.5, 50.90099995619855 31.5, 107.5 31.5 M-123.25 31.5 C-33.18885536935589 31.5, 56.872289261288216 31.5, 107.5 31.5 M107.5 31.5 C107.5 18.06128894081706, 107.5 4.622577881634122, 107.5 -31.5 M107.5 31.5 C107.5 10.170421026923915, 107.5 -11.15915794615217, 107.5 -31.5 M107.5 -31.5 C17.7748186850295 -31.5, -71.950362629941 -31.5, -123.25 -31.5 M107.5 -31.5 C28.807647351868454 -31.5, -49.88470529626309 -31.5, -123.25 -31.5"/></g><g transform="translate(-92.125, -24)" style="color:#64748b !important" class="label"><rect/><foreignObject height="48" width="200"><div xmlns="http://www.w3.org/1999/xhtml" style="color: rgb(100, 116, 139) !important; display: table; white-space: break-spaces; line-height: 1.5; max-width: 200px; text-align: center; width: 200px;"><span class="nodeLabel" style="color:#64748b !important"><p>LOG(INFO) f'Drafting article o...'</p></span></div></foreignObject></g></g><g transform="translate(351.52734375, 329)" id="flowchart-GEN3-2" class="node default llm"><polygon style="fill:#dbeafe !important;stroke:#3b82f6 !important" transform="translate(-107.5,31.5)" class="label-container" points="-31.5,0 215,0 246.5,-63 0,-63"/><g transform="translate(-100, -24)" style="color:#1e3a5f !important" class="label"><rect/><foreignObject height="48" width="200"><div xmlns="http://www.w3.org/1999/xhtml" style="color: rgb(30, 58, 95) !important; display: table; white-space: break-spaces; line-height: 1.5; max-width: 200px; text-align: center; width: 200px;"><span class="nodeLabel" style="color:#1e3a5f !important"><p>GENERATE draft(@topic) -&gt; @draft</p></span></div></foreignObject></g></g><g transform="translate(351.52734375, 467)" id="flowchart-LOG4-5" class="node default log"><g transform="translate(7.875,0)" class="basic label-container"><path style="fill:#f8fafc !important;stroke:#94a3b8 !important" fill="#f8fafc" stroke-width="0" stroke="none" d="M-123.25 -31.5 C-118.27088515939786 -21.54177031879572, -113.29177031879573 -11.58354063759144, -107.5 0 C-112.5646294738564 10.129258947712799, -117.6292589477128 20.258517895425598, -123.25 31.5 C-42.685330155643655 31.5, 37.87933968871269 31.5, 107.5 31.5 C107.5 14.285181417521898, 107.5 -2.9296371649562047, 107.5 -31.5 C21.715189671977043 -31.5, -64.06962065604591 -31.5, -123.25 -31.5"/><path style="fill:#f8fafc !important;stroke:#94a3b8 !important" fill="none" stroke-width="1.3" stroke="#94a3b8" d="M-123.25 -31.5 C-120.03267546621171 -25.065350932423428, -116.81535093242343 -18.630701864846852, -107.5 0 M-123.25 -31.5 C-118.54553109021575 -22.09106218043149, -113.84106218043149 -12.682124360862979, -107.5 0 M-107.5 0 C-112.09928277582769 9.198565551655385, -116.69856555165538 18.39713110331077, -123.25 31.5 M-107.5 0 C-111.15048551037792 7.300971020755832, -114.80097102075584 14.601942041511665, -123.25 31.5 M-123.25 31.5 C-49.93699486911659 31.5, 23.376010261766822 31.5, 107.5 31.5 M-123.25 31.5 C-62.4387380166229 31.5, -1.6274760332457987 31.5, 107.5 31.5 M107.5 31.5 C107.5 9.726420697563498, 107.5 -12.047158604873005, 107.5 -31.5 M107.5 31.5 C107.5 10.035979583663263, 107.5 -11.428040832673474, 107.5 -31.5 M107.5 -31.5 C18.830113016627195 -31.5, -69.83977396674561 -31.5, -123.25 -31.5 M107.5 -31.5 C17.22171141631891 -31.5, -73.05657716736218 -31.5, -123.25 -31.5"/></g><g transform="translate(-92.125, -24)" style="color:#64748b !important" class="label"><rect/><foreignObject height="48" width="200"><div xmlns="http://www.w3.org/1999/xhtml" style="color: rgb(100, 116, 139) !important; display: table; white-space: break-spaces; line-height: 1.5; max-width: 200px; text-align: center; width: 200px;"><span class="nodeLabel" style="color:#64748b !important"><p>LOG(INFO) 'Draft generated — re...'</p></span></div></foreignObject></g></g><g transform="translate(351.52734375, 617)" id="flowchart-SUB5-8" class="node default proc"><polygon style="fill:#fef3c7 !important;stroke:#f59e0b !important" transform="translate(-107.5,43.5)" class="label-container" points="0,0 215,0 215,-87 0,-87 0,0 -8,0 223,0 223,-87 -8,-87 -8,0"/><g transform="translate(-100, -36)" style="color:#78350f !important" class="label"><rect/><foreignObject height="72" width="200"><div xmlns="http://www.w3.org/1999/xhtml" style="color: rgb(120, 53, 15) !important; display: table; white-space: break-spaces; line-height: 1.5; max-width: 200px; text-align: center; width: 200px;"><span class="nodeLabel" style="color:#78350f !important"><p>CALL write_file(f'(@log_d..., @draft)</p></span></div></foreignObject></g></g><g transform="translate(351.52734375, 779)" id="flowchart-SUB6-11" class="node default proc"><polygon style="fill:#fef3c7 !important;stroke:#f59e0b !important" transform="translate(-136.2109375,43.5)" class="label-container" points="0,0 272.421875,0 272.421875,-87 0,-87 0,0 -8,0 280.421875,0 280.421875,-87 -8,-87 -8,0"/><g transform="translate(-128.7109375, -36)" style="color:#78350f !important" class="label"><rect/><foreignObject height="72" width="257.421875"><div xmlns="http://www.w3.org/1999/xhtml" style="color: rgb(120, 53, 15) !important; display: table; white-space: break-spaces; line-height: 1.5; max-width: 200px; text-align: center; width: 200px;"><span class="nodeLabel" style="color:#78350f !important"><p>CALL wait_for_human_feedback(f'Review ...) -&gt; @feedback</p></span></div></foreignObject></g></g><g transform="translate(351.52734375, 941)" id="flowchart-SUB7-14" class="node default proc"><polygon style="fill:#fef3c7 !important;stroke:#f59e0b !important" transform="translate(-107.5,43.5)" class="label-container" points="0,0 215,0 215,-87 0,-87 0,0 -8,0 223,0 223,-87 -8,-87 -8,0"/><g transform="translate(-100, -36)" style="color:#78350f !important" class="label"><rect/><foreignObject height="72" width="200"><div xmlns="http://www.w3.org/1999/xhtml" style="color: rgb(120, 53, 15) !important; display: table; white-space: break-spaces; line-height: 1.5; max-width: 200px; text-align: center; width: 200px;"><span class="nodeLabel" style="color:#78350f !important"><p>CALL write_file(f'(@log_d..., @feedback)</p></span></div></foreignObject></g></g><g transform="translate(194, 1415.28125)" id="flowchart-LOG10-18" class="node default log"><g transform="translate(7.875,0)" class="basic label-container"><path style="fill:#f8fafc !important;stroke:#94a3b8 !important" fill="#f8fafc" stroke-width="0" stroke="none" d="M-123.25 -31.5 C-117.9377655254545 -20.875531050908997, -112.62553105090899 -10.25106210181799, -107.5 0 C-111.23655386922275 7.473107738445493, -114.97310773844549 14.946215476890986, -123.25 31.5 C-75.72876792223016 31.5, -28.20753584446031 31.5, 107.5 31.5 C107.5 6.866927751903077, 107.5 -17.766144496193846, 107.5 -31.5 C56.8978132510136 -31.5, 6.295626502027204 -31.5, -123.25 -31.5"/><path style="fill:#f8fafc !important;stroke:#94a3b8 !important" fill="none" stroke-width="1.3" stroke="#94a3b8" d="M-123.25 -31.5 C-119.35581957114626 -23.711639142292498, -115.4616391422925 -15.923278284584999, -107.5 0 M-123.25 -31.5 C-118.18482781311539 -21.369655626230784, -113.11965562623078 -11.239311252461569, -107.5 0 M-107.5 0 C-110.9505926977489 6.9011853954977935, -114.40118539549779 13.802370790995587, -123.25 31.5 M-107.5 0 C-113.7167178142968 12.433435628593607, -119.9334356285936 24.866871257187213, -123.25 31.5 M-123.25 31.5 C-33.77920924260275 31.5, 55.69158151479451 31.5, 107.5 31.5 M-123.25 31.5 C-52.936235594220534 31.5, 17.377528811558932 31.5, 107.5 31.5 M107.5 31.5 C107.5 9.208480739307277, 107.5 -13.083038521385447, 107.5 -31.5 M107.5 31.5 C107.5 17.715503548018788, 107.5 3.9310070960375754, 107.5 -31.5 M107.5 -31.5 C60.850164912216705 -31.5, 14.20032982443341 -31.5, -123.25 -31.5 M107.5 -31.5 C17.962149686389637 -31.5, -71.57570062722073 -31.5, -123.25 -31.5"/></g><g transform="translate(-92.125, -24)" style="color:#64748b !important" class="label"><rect/><foreignObject height="48" width="200"><div xmlns="http://www.w3.org/1999/xhtml" style="color: rgb(100, 116, 139) !important; display: table; white-space: break-spaces; line-height: 1.5; max-width: 200px; text-align: center; width: 200px;"><span class="nodeLabel" style="color:#64748b !important"><p>LOG(INFO) 'Human feedback recei...'</p></span></div></foreignObject></g></g><g transform="translate(194, 1565.28125)" id="flowchart-GEN11-19" class="node default llm"><polygon style="fill:#dbeafe !important;stroke:#3b82f6 !important" transform="translate(-107.5,43.5)" class="label-container" points="-43.5,0 215,0 258.5,-87 0,-87"/><g transform="translate(-100, -36)" style="color:#1e3a5f !important" class="label"><rect/><foreignObject height="72" width="200"><div xmlns="http://www.w3.org/1999/xhtml" style="color: rgb(30, 58, 95) !important; display: table; white-space: break-spaces; line-height: 1.5; max-width: 200px; text-align: center; width: 200px;"><span class="nodeLabel" style="color:#1e3a5f !important"><p>GENERATE refine(@draft, @feedback) -&gt; @final_article</p></span></div></foreignObject></g></g><g transform="translate(351.52734375, 1172.140625)" id="flowchart-EVAL8-17" class="node default ctrl"><polygon style="fill:#ede9fe !important;stroke:#8b5cf6 !important" transform="translate(-112.640625,112.640625)" class="label-container" points="112.640625,0 225.28125,-112.640625 112.640625,-225.28125 0,-112.640625"/><g transform="translate(-85.640625, -12)" style="color:#3b0764 !important" class="label"><rect/><foreignObject height="24" width="171.28125"><div xmlns="http://www.w3.org/1999/xhtml" style="color: rgb(59, 7, 100) !important; display: table-cell; white-space: nowrap; line-height: 1.5; max-width: 200px; text-align: center;"><span class="nodeLabel" style="color:#3b0764 !important"><p>EVALUATE: @feedback</p></span></div></foreignObject></g></g><g transform="translate(351.52734375, 1698.78125)" id="flowchart-MERGE9-25" class="node default"><rect height="30" width="60" y="-15" x="-30" style="" class="basic label-container"/><g transform="translate(0, 0)" style="" class="label"><rect/><foreignObject height="0" width="0"><div style="display: table-cell; white-space: nowrap; line-height: 1.5; max-width: 200px; text-align: center;" xmlns="http://www.w3.org/1999/xhtml"><span class="nodeLabel"></span></div></foreignObject></g></g><g transform="translate(515.58984375, 1415.28125)" id="flowchart-LOG12-26" class="node default log"><g transform="translate(7.875,0)" class="basic label-container"><path style="fill:#f8fafc !important;stroke:#94a3b8 !important" fill="#f8fafc" stroke-width="0" stroke="none" d="M-123.25 -31.5 C-117.47510146600975 -19.950202932019486, -111.7002029320195 -8.400405864038973, -107.5 0 C-112.0306814530452 9.061362906090418, -116.56136290609042 18.122725812180835, -123.25 31.5 C-49.09820088394791 31.5, 25.05359823210418 31.5, 107.5 31.5 C107.5 6.903464229441013, 107.5 -17.693071541117973, 107.5 -31.5 C27.194408087357843 -31.5, -53.111183825284314 -31.5, -123.25 -31.5"/><path style="fill:#f8fafc !important;stroke:#94a3b8 !important" fill="none" stroke-width="1.3" stroke="#94a3b8" d="M-123.25 -31.5 C-117.30900304900265 -19.618006098005303, -111.36800609800531 -7.736012196010609, -107.5 0 M-123.25 -31.5 C-118.84116814198539 -22.682336283970777, -114.43233628397077 -13.86467256794155, -107.5 0 M-107.5 0 C-112.26912090799279 9.538241815985577, -117.03824181598557 19.076483631971154, -123.25 31.5 M-107.5 0 C-110.81846813207152 6.636936264143022, -114.13693626414302 13.273872528286043, -123.25 31.5 M-123.25 31.5 C-37.825724224940146 31.5, 47.59855155011971 31.5, 107.5 31.5 M-123.25 31.5 C-31.609477959966483 31.5, 60.03104408006703 31.5, 107.5 31.5 M107.5 31.5 C107.5 7.950928957092049, 107.5 -15.598142085815901, 107.5 -31.5 M107.5 31.5 C107.5 17.91675039462444, 107.5 4.33350078924888, 107.5 -31.5 M107.5 -31.5 C57.02534033149429 -31.5, 6.550680662988583 -31.5, -123.25 -31.5 M107.5 -31.5 C26.219698403239562 -31.5, -55.060603193520876 -31.5, -123.25 -31.5"/></g><g transform="translate(-92.125, -24)" style="color:#64748b !important" class="label"><rect/><foreignObject height="48" width="200"><div xmlns="http://www.w3.org/1999/xhtml" style="color: rgb(100, 116, 139) !important; display: table; white-space: break-spaces; line-height: 1.5; max-width: 200px; text-align: center; width: 200px;"><span class="nodeLabel" style="color:#64748b !important"><p>LOG(DEBUG) 'No feedback received...'</p></span></div></foreignObject></g></g><g transform="translate(515.58984375, 1565.28125)" id="flowchart-A13-27" class="node default assign"><rect height="54" width="228.109375" y="-27" x="-114.0546875" style="fill:#f8fafc !important;stroke:#64748b !important" class="basic label-container"/><g transform="translate(-84.0546875, -12)" style="color:#1e293b !important" class="label"><rect/><foreignObject height="24" width="168.109375"><div xmlns="http://www.w3.org/1999/xhtml" style="color: rgb(30, 41, 59) !important; display: table-cell; white-space: nowrap; line-height: 1.5; max-width: 200px; text-align: center;"><span class="nodeLabel" style="color:#1e293b !important"><p>@final_article := @draft</p></span></div></foreignObject></g></g><g transform="translate(351.52734375, 1927.78125)" id="flowchart-SUB14-37" class="node default proc"><polygon style="fill:#fef3c7 !important;stroke:#f59e0b !important" transform="translate(-107.5,43.5)" class="label-container" points="0,0 215,0 215,-87 0,-87 0,0 -8,0 223,0 223,-87 -8,-87 -8,0"/><g transform="translate(-100, -36)" style="color:#78350f !important" class="label"><rect/><foreignObject height="72" width="200"><div xmlns="http://www.w3.org/1999/xhtml" style="color: rgb(120, 53, 15) !important; display: table; white-space: break-spaces; line-height: 1.5; max-width: 200px; text-align: center; width: 200px;"><span class="nodeLabel" style="color:#78350f !important"><p>CALL write_file(f'(@log_d..., @final_ar...)</p></span></div></foreignObject></g></g><g transform="translate(351.52734375, 2185.28125)" id="flowchart-RET15-40" class="node default term"><rect height="63" width="230.75" y="-31.5" x="-115.375" ry="31.5" rx="31.5" style="fill:#fce7f3 !important;stroke:#ec4899 !important" class="basic label-container"/><g transform="translate(-100, -24)" style="color:#831843 !important" class="label"><rect/><foreignObject height="48" width="200"><div xmlns="http://www.w3.org/1999/xhtml" style="color: rgb(131, 24, 67) !important; display: table; white-space: break-spaces; line-height: 1.5; max-width: 200px; text-align: center; width: 200px;"><span class="nodeLabel" style="color:#831843 !important"><p>RETURN @final_article (status='comp...)</p></span></div></foreignObject></g></g><g transform="translate(656.02734375, 1927.78125)" id="flowchart-EXC16-45" class="node default ctrl"><polygon style="fill:#ede9fe !important;stroke:#8b5cf6 !important" transform="translate(-139,139)" class="label-container" points="139,0 278,-139 139,-278 0,-139"/><g transform="translate(-100, -24)" style="color:#3b0764 !important" class="label"><rect/><foreignObject height="48" width="200"><div xmlns="http://www.w3.org/1999/xhtml" style="color: rgb(59, 7, 100) !important; display: table; white-space: break-spaces; line-height: 1.5; max-width: 200px; text-align: center; width: 200px;"><span class="nodeLabel" style="color:#3b0764 !important"><p>EXCEPTION GenerationError</p></span></div></foreignObject></g></g><g transform="translate(656.02734375, 2185.28125)" id="flowchart-RET17-46" class="node default term"><rect height="87" width="236.75" y="-43.5" x="-118.375" ry="43.5" rx="43.5" style="fill:#fce7f3 !important;stroke:#ec4899 !important" class="basic label-container"/><g transform="translate(-100, -36)" style="color:#831843 !important" class="label"><rect/><foreignObject height="72" width="200"><div xmlns="http://www.w3.org/1999/xhtml" style="color: rgb(131, 24, 67) !important; display: table; white-space: break-spaces; line-height: 1.5; max-width: 200px; text-align: center; width: 200px;"><span class="nodeLabel" style="color:#831843 !important"><p>RETURN @draft (status='draf..., reason='gene...)</p></span></div></foreignObject></g></g></g></g></g></g></g></svg>