<svg aria-roledescription="flowchart-v2" role="graphics-document document" viewBox="0 0 2188.34375 1302" style="max-width: 2188.34px; background-color: white;" class="flowchart" xmlns:xlink="http://www.w3.org/1999/xlink" xmlns="http://www.w3.org/2000/svg" width="100%" id="my-svg"><style>#my-svg{font-family:"trebuchet ms",verdana,arial,sans-serif;font-size:16px;fill:#333;}@keyframes edge-animation-frame{from{stroke-dashoffset:0;}}@keyframes dash{to{stroke-dashoffset:0;}}#my-svg .edge-animation-slow{stroke-dasharray:9,5!important;stroke-dashoffset:900;animation:dash 50s linear infinite;stroke-linecap:round;}#my-svg .edge-animation-fast{stroke-dasharray:9,5!important;stroke-dashoffset:900;animation:dash 20s linear infinite;stroke-linecap:round;}#my-svg .error-icon{fill:#552222;}#my-svg .error-text{fill:#552222;stroke:#552222;}#my-svg .edge-thickness-normal{stroke-width:1px;}#my-svg .edge-thickness-thick{stroke-width:3.5px;}#my-svg .edge-pattern-solid{stroke-dasharray:0;}#my-svg .edge-thickness-invisible{stroke-width:0;fill:none;}#my-svg .edge-pattern-dashed{stroke-dasharray:3;}#my-svg .edge-pattern-dotted{stroke-dasharray:2;}#my-svg .marker{fill:#333333;stroke:#333333;}#my-svg .marker.cross{stroke:#333333;}#my-svg svg{font-family:"trebuchet ms",verdana,arial,sans-serif;font-size:16px;}#my-svg p{margin:0;}#my-svg .label{font-family:"trebuchet ms",verdana,arial,sans-serif;color:#333;}#my-svg .cluster-label text{fill:#333;}#my-svg .cluster-label span{color:#333;}#my-svg .cluster-label span p{background-color:transparent;}#my-svg .label text,#my-svg span{fill:#333;color:#333;}#my-svg .node rect,#my-svg .node circle,#my-svg .node ellipse,#my-svg .node polygon,#my-svg .node path{fill:#ECECFF;stroke:#9370DB;stroke-width:1px;}#my-svg .rough-node .label text,#my-svg .node .label text,#my-svg .image-shape .label,#my-svg .icon-shape .label{text-anchor:middle;}#my-svg .node .katex path{fill:#000;stroke:#000;stroke-width:1px;}#my-svg .rough-node .label,#my-svg .node .label,#my-svg .image-shape .label,#my-svg .icon-shape .label{text-align:center;}#my-svg .node.clickable{cursor:pointer;}#my-svg .root .anchor path{fill:#333333!important;stroke-width:0;stroke:#333333;}#my-svg .arrowheadPath{fill:#333333;}#my-svg .edgePath .path{stroke:#333333;stroke-width:2.0px;}#my-svg .flowchart-link{stroke:#333333;fill:none;}#my-svg .edgeLabel{background-color:rgba(232,232,232, 0.8);text-align:center;}#my-svg .edgeLabel p{background-color:rgba(232,232,232, 0.8);}#my-svg .edgeLabel rect{opacity:0.5;background-color:rgba(232,232,232, 0.8);fill:rgba(232,232,232, 0.8);}#my-svg .labelBkg{background-color:rgba(232, 232, 232, 0.5);}#my-svg .cluster rect{fill:#ffffde;stroke:#aaaa33;stroke-width:1px;}#my-svg .cluster text{fill:#333;}#my-svg .cluster span{color:#333;}#my-svg div.mermaidTooltip{position:absolute;text-align:center;max-width:200px;padding:2px;font-family:"trebuchet ms",verdana,arial,sans-serif;font-size:12px;background:hsl(80, 100%, 96.2745098039%);border:1px solid #aaaa33;border-radius:2px;pointer-events:none;z-index:100;}#my-svg .flowchartTitleText{text-anchor:middle;font-size:18px;fill:#333;}#my-svg rect.text{fill:none;stroke-width:0;}#my-svg .icon-shape,#my-svg .image-shape{background-color:rgba(232,232,232, 0.8);text-align:center;}#my-svg .icon-shape p,#my-svg .image-shape p{background-color:rgba(232,232,232, 0.8);padding:2px;}#my-svg .icon-shape rect,#my-svg .image-shape rect{opacity:0.5;background-color:rgba(232,232,232, 0.8);fill:rgba(232,232,232, 0.8);}#my-svg .label-icon{display:inline-block;height:1em;overflow:visible;vertical-align:-0.125em;}#my-svg .node .label-icon path{fill:currentColor;stroke:revert;stroke-width:revert;}#my-svg :root{--mermaid-font-family:"trebuchet ms",verdana,arial,sans-serif;}#my-svg .llm&gt;*{fill:#dbeafe!important;stroke:#3b82f6!important;color:#1e3a5f!important;}#my-svg .llm span{fill:#dbeafe!important;stroke:#3b82f6!important;color:#1e3a5f!important;}#my-svg .llm tspan{fill:#1e3a5f!important;}#my-svg .ctrl&gt;*{fill:#ede9fe!important;stroke:#8b5cf6!important;color:#3b0764!important;}#my-svg .ctrl span{fill:#ede9fe!important;stroke:#8b5cf6!important;color:#3b0764!important;}#my-svg .ctrl tspan{fill:#3b0764!important;}#my-svg .term&gt;*{fill:#fce7f3!important;stroke:#ec4899!important;color:#831843!important;}#my-svg .term span{fill:#fce7f3!important;stroke:#ec4899!important;color:#831843!important;}#my-svg .term tspan{fill:#831843!important;}#my-svg .log&gt;*{fill:#f8fafc!important;stroke:#94a3b8!important;color:#64748b!important;}#my-svg .log span{fill:#f8fafc!important;stroke:#94a3b8!important;color:#64748b!important;}#my-svg .log tspan{fill:#64748b!important;}#my-svg .fn&gt;*{fill:#f0fdf4!important;stroke:#86efac!important;color:#166534!important;}#my-svg .fn span{fill:#f0fdf4!important;stroke:#86efac!important;color:#166534!important;}#my-svg .fn tspan{fill:#166534!important;}#my-svg .assign&gt;*{fill:#f8fafc!important;stroke:#64748b!important;color:#1e293b!important;}#my-svg .assign span{fill:#f8fafc!important;stroke:#64748b!important;color:#1e293b!important;}#my-svg .assign tspan{fill:#1e293b!important;}</style><g><marker orient="auto" markerHeight="8" markerWidth="8" markerUnits="userSpaceOnUse" refY="5" refX="5" viewBox="0 0 10 10" class="marker flowchart-v2" id="my-svg_flowchart-v2-pointEnd"><path style="stroke-width: 1; stroke-dasharray: 1, 0;" class="arrowMarkerPath" d="M 0 0 L 10 5 L 0 10 z"/></marker><marker orient="auto" markerHeight="8" markerWidth="8" markerUnits="userSpaceOnUse" refY="5" refX="4.5" viewBox="0 0 10 10" class="marker flowchart-v2" id="my-svg_flowchart-v2-pointStart"><path style="stroke-width: 1; stroke-dasharray: 1, 0;" class="arrowMarkerPath" d="M 0 5 L 10 10 L 10 0 z"/></marker><marker orient="auto" markerHeight="11" markerWidth="11" markerUnits="userSpaceOnUse" refY="5" refX="11" viewBox="0 0 10 10" class="marker flowchart-v2" id="my-svg_flowchart-v2-circleEnd"><circle style="stroke-width: 1; stroke-dasharray: 1, 0;" class="arrowMarkerPath" r="5" cy="5" cx="5"/></marker><marker orient="auto" markerHeight="11" markerWidth="11" markerUnits="userSpaceOnUse" refY="5" refX="-1" viewBox="0 0 10 10" class="marker flowchart-v2" id="my-svg_flowchart-v2-circleStart"><circle style="stroke-width: 1; stroke-dasharray: 1, 0;" class="arrowMarkerPath" r="5" cy="5" cx="5"/></marker><marker orient="auto" markerHeight="11" markerWidth="11" markerUnits="userSpaceOnUse" refY="5.2" refX="12" viewBox="0 0 11 11" class="marker cross flowchart-v2" id="my-svg_flowchart-v2-crossEnd"><path style="stroke-width: 2; stroke-dasharray: 1, 0;" class="arrowMarkerPath" d="M 1,1 l 9,9 M 10,1 l -9,9"/></marker><marker orient="auto" markerHeight="11" markerWidth="11" markerUnits="userSpaceOnUse" refY="5.2" refX="-1" viewBox="0 0 11 11" class="marker cross flowchart-v2" id="my-svg_flowchart-v2-crossStart"><path style="stroke-width: 2; stroke-dasharray: 1, 0;" class="arrowMarkerPath" d="M 1,1 l 9,9 M 10,1 l -9,9"/></marker><g class="root"><g class="clusters"/><g class="edgePaths"/><g class="edgeLabels"/><g class="nodes"><g transform="translate(0, 566.5)" class="root"><g class="clusters"><g data-look="classic" id="FUNCTIONS" class="cluster"><rect height="153" width="640" y="8" x="8" style=""/><g transform="translate(257.7421875, 8)" class="cluster-label"><foreignObject height="24" width="140.515625"><div style="display: table-cell; white-space: nowrap; line-height: 1.5; max-width: 200px; text-align: center;" xmlns="http://www.w3.org/1999/xhtml"><span class="nodeLabel"><p>Function Definitions</p></span></div></foreignObject></g></g></g><g class="edgePaths"/><g class="edgeLabels"/><g class="nodes"><g transform="translate(173, 84.5)" id="flowchart-FN19-46" class="node default fn"><rect height="78" width="260" y="-39" x="-130" style="fill:#f0fdf4 !important;stroke:#86efac !important" class="basic label-container"/><g transform="translate(-100, -24)" style="color:#166534 !important" class="label"><rect/><foreignObject height="48" width="200"><div xmlns="http://www.w3.org/1999/xhtml" style="color: rgb(22, 101, 52) !important; display: table; white-space: break-spaces; line-height: 1.5; max-width: 200px; text-align: center; width: 200px;"><span class="nodeLabel" style="color:#166534 !important"><p>FUNCTION: summarise_topic()</p></span></div></foreignObject></g></g><g transform="translate(483, 84.5)" id="flowchart-FN20-47" class="node default fn"><rect height="78" width="260" y="-39" x="-130" style="fill:#f0fdf4 !important;stroke:#86efac !important" class="basic label-container"/><g transform="translate(-100, -24)" style="color:#166534 !important" class="label"><rect/><foreignObject height="48" width="200"><div xmlns="http://www.w3.org/1999/xhtml" style="color: rgb(22, 101, 52) !important; display: table; white-space: break-spaces; line-height: 1.5; max-width: 200px; text-align: center; width: 200px;"><span class="nodeLabel" style="color:#166534 !important"><p>FUNCTION: morning_briefing()</p></span></div></foreignObject></g></g></g></g><g transform="translate(690, 0)" class="root"><g class="clusters"><g data-look="classic" id="SG_parallel_news_digest" class="cluster"><rect height="1286" width="1060.34375" y="8" x="8" style=""/><g transform="translate(438.171875, 8)" class="cluster-label"><foreignObject height="48" width="200"><div style="display: table; white-space: break-spaces; line-height: 1.5; max-width: 200px; text-align: center; width: 200px;" xmlns="http://www.w3.org/1999/xhtml"><span class="nodeLabel"><p>WORKFLOW: parallel_news_digest</p></span></div></foreignObject></g></g></g><g class="edgePaths"><path marker-end="url(#my-svg_flowchart-v2-pointEnd)" style="" class="edge-thickness-normal edge-pattern-solid edge-thickness-normal edge-pattern-solid flowchart-link" id="L_LOG6_LOG7_0" d="M210.672,223L210.589,229.167C210.505,235.333,210.339,247.667,210.33,259.5C210.321,271.333,210.47,282.667,210.545,288.334L210.619,294"/><path marker-end="url(#my-svg_flowchart-v2-pointEnd)" style="" class="edge-thickness-normal edge-pattern-solid edge-thickness-normal edge-pattern-solid flowchart-link" id="L_LOG7_S8_0" d="M210.672,361L210.589,367.167C210.505,373.333,210.339,385.667,210.255,397.417C210.172,409.167,210.172,420.333,210.172,425.917L210.172,431.5"/><path marker-end="url(#my-svg_flowchart-v2-pointEnd)" style="" class="edge-thickness-normal edge-pattern-solid edge-thickness-normal edge-pattern-solid flowchart-link" id="L_S8_LOG9_0" d="M210.172,489.5L210.172,495.75C210.172,502,210.172,514.5,210.246,526.417C210.321,538.333,210.47,549.667,210.545,555.334L210.619,561"/><path marker-end="url(#my-svg_flowchart-v2-pointEnd)" style="" class="edge-thickness-normal edge-pattern-solid edge-thickness-normal edge-pattern-solid flowchart-link" id="L_LOG9_GEN10_0" d="M210.672,628L210.589,634.167C210.505,640.333,210.339,652.667,210.336,680.417C210.334,708.167,210.495,751.333,210.576,772.917L210.657,794.5"/><path marker-end="url(#my-svg_flowchart-v2-pointEnd)" style="" class="edge-thickness-normal edge-pattern-solid edge-thickness-normal edge-pattern-solid flowchart-link" id="L_GEN10_LOG11_0" d="M210.672,885.5L210.589,907.583C210.505,929.667,210.339,973.833,210.33,1001.583C210.321,1029.333,210.47,1040.667,210.545,1046.334L210.619,1052"/><path marker-end="url(#my-svg_flowchart-v2-pointEnd)" style="" class="edge-thickness-normal edge-pattern-solid edge-thickness-normal edge-pattern-solid flowchart-link" id="L_LOG11_RET12_0" d="M210.672,1119L210.589,1125.167C210.505,1131.333,210.339,1143.667,210.255,1157.417C210.172,1171.167,210.172,1186.333,210.172,1193.917L210.172,1201.5"/><path marker-end="url(#my-svg_flowchart-v2-pointEnd)" style="" class="edge-thickness-normal edge-pattern-solid edge-thickness-normal edge-pattern-solid flowchart-link" id="L_START5_LOG6_0" d="M210.172,84.5L210.172,90.75C210.172,97,210.172,109.5,210.246,121.417C210.321,133.333,210.47,144.667,210.545,150.334L210.619,156"/><path marker-end="url(#my-svg_flowchart-v2-pointEnd)" style="" class="edge-thickness-normal edge-pattern-solid edge-thickness-normal edge-pattern-solid flowchart-link" id="L_LOG14_RET15_0" d="M566.844,1119L566.76,1125.167C566.677,1131.333,566.51,1143.667,566.427,1155.417C566.344,1167.167,566.344,1178.333,566.344,1183.917L566.344,1189.5"/><path marker-end="url(#my-svg_flowchart-v2-pointEnd)" style="" class="edge-thickness-normal edge-pattern-solid edge-thickness-normal edge-pattern-solid flowchart-link" id="L_EXC13_LOG14_0" d="M566.844,981L566.76,987.167C566.677,993.333,566.51,1005.667,566.502,1017.5C566.493,1029.333,566.642,1040.667,566.717,1046.334L566.791,1052"/><path marker-end="url(#my-svg_flowchart-v2-pointEnd)" style="" class="edge-thickness-normal edge-pattern-solid edge-thickness-normal edge-pattern-solid flowchart-link" id="L_LOG17_RET18_0" d="M894.844,1119L894.76,1125.167C894.677,1131.333,894.51,1143.667,894.427,1155.417C894.344,1167.167,894.344,1178.333,894.344,1183.917L894.344,1189.5"/><path marker-end="url(#my-svg_flowchart-v2-pointEnd)" style="" class="edge-thickness-normal edge-pattern-solid edge-thickness-normal edge-pattern-solid flowchart-link" id="L_EXC16_LOG17_0" d="M894.844,981L894.76,987.167C894.677,993.333,894.51,1005.667,894.502,1017.5C894.493,1029.333,894.642,1040.667,894.717,1046.334L894.791,1052"/></g><g class="edgeLabels"><g class="edgeLabel"><g transform="translate(0, 0)" class="label"><foreignObject height="0" width="0"><div style="display: table-cell; white-space: nowrap; line-height: 1.5; max-width: 200px; text-align: center;" class="labelBkg" xmlns="http://www.w3.org/1999/xhtml"><span class="edgeLabel"></span></div></foreignObject></g></g><g class="edgeLabel"><g transform="translate(0, 0)" class="label"><foreignObject height="0" width="0"><div style="display: table-cell; white-space: nowrap; line-height: 1.5; max-width: 200px; text-align: center;" class="labelBkg" xmlns="http://www.w3.org/1999/xhtml"><span class="edgeLabel"></span></div></foreignObject></g></g><g class="edgeLabel"><g transform="translate(0, 0)" class="label"><foreignObject height="0" width="0"><div style="display: table-cell; white-space: nowrap; line-height: 1.5; max-width: 200px; text-align: center;" class="labelBkg" xmlns="http://www.w3.org/1999/xhtml"><span class="edgeLabel"></span></div></foreignObject></g></g><g class="edgeLabel"><g transform="translate(0, 0)" class="label"><foreignObject height="0" width="0"><div style="display: table-cell; white-space: nowrap; line-height: 1.5; max-width: 200px; text-align: center;" class="labelBkg" xmlns="http://www.w3.org/1999/xhtml"><span class="edgeLabel"></span></div></foreignObject></g></g><g class="edgeLabel"><g transform="translate(0, 0)" class="label"><foreignObject height="0" width="0"><div style="display: table-cell; white-space: nowrap; line-height: 1.5; max-width: 200px; text-align: center;" class="labelBkg" xmlns="http://www.w3.org/1999/xhtml"><span class="edgeLabel"></span></div></foreignObject></g></g><g class="edgeLabel"><g transform="translate(0, 0)" class="label"><foreignObject height="0" width="0"><div style="display: table-cell; white-space: nowrap; line-height: 1.5; max-width: 200px; text-align: center;" class="labelBkg" xmlns="http://www.w3.org/1999/xhtml"><span class="edgeLabel"></span></div></foreignObject></g></g><g class="edgeLabel"><g transform="translate(0, 0)" class="label"><foreignObject height="0" width="0"><div style="display: table-cell; white-space: nowrap; line-height: 1.5; max-width: 200px; text-align: center;" class="labelBkg" xmlns="http://www.w3.org/1999/xhtml"><span class="edgeLabel"></span></div></foreignObject></g></g><g class="edgeLabel"><g transform="translate(0, 0)" class="label"><foreignObject height="0" width="0"><div style="display: table-cell; white-space: nowrap; line-height: 1.5; max-width: 200px; text-align: center;" class="labelBkg" xmlns="http://www.w3.org/1999/xhtml"><span class="edgeLabel"></span></div></foreignObject></g></g><g class="edgeLabel"><g transform="translate(0, 0)" class="label"><foreignObject height="0" width="0"><div style="display: table-cell; white-space: nowrap; line-height: 1.5; max-width: 200px; text-align: center;" class="labelBkg" xmlns="http://www.w3.org/1999/xhtml"><span class="edgeLabel"></span></div></foreignObject></g></g><g class="edgeLabel"><g transform="translate(0, 0)" class="label"><foreignObject height="0" width="0"><div style="display: table-cell; white-space: nowrap; line-height: 1.5; max-width: 200px; text-align: center;" class="labelBkg" xmlns="http://www.w3.org/1999/xhtml"><span class="edgeLabel"></span></div></foreignObject></g></g><g class="edgeLabel"><g transform="translate(0, 0)" class="label"><foreignObject height="0" width="0"><div style="display: table-cell; white-space: nowrap; line-height: 1.5; max-width: 200px; text-align: center;" class="labelBkg" xmlns="http://www.w3.org/1999/xhtml"><span class="edgeLabel"></span></div></foreignObject></g></g></g><g class="nodes"><g transform="translate(210.171875, 65)" id="flowchart-START5-10" class="node default term"><rect height="39" width="58.546875" y="-19.5" x="-29.2734375" ry="19.5" rx="19.5" style="fill:#fce7f3 !important;stroke:#ec4899 !important" class="basic label-container"/><g transform="translate(-16.8984375, -12)" style="color:#831843 !important" class="label"><rect/><foreignObject height="24" width="33.796875"><div xmlns="http://www.w3.org/1999/xhtml" style="color: rgb(131, 24, 67) !important; display: table-cell; white-space: nowrap; line-height: 1.5; max-width: 200px; text-align: center;"><span class="nodeLabel" style="color:#831843 !important"><p>Start</p></span></div></foreignObject></g></g><g transform="translate(210.171875, 191)" id="flowchart-LOG6-11" class="node default log"><g transform="translate(7.875,0)" class="basic label-container"><path style="fill:#f8fafc !important;stroke:#94a3b8 !important" fill="#f8fafc" stroke-width="0" stroke="none" d="M-123.25 -31.5 C-119.52272657913912 -24.045453158278242, -115.79545315827824 -16.59090631655648, -107.5 0 C-111.3418431392418 7.683686278483614, -115.18368627848362 15.367372556967227, -123.25 31.5 C-42.89455792882066 31.5, 37.46088414235868 31.5, 107.5 31.5 C107.5 18.219739283017525, 107.5 4.939478566035053, 107.5 -31.5 C19.142868327375297 -31.5, -69.2142633452494 -31.5, -123.25 -31.5"/><path style="fill:#f8fafc !important;stroke:#94a3b8 !important" fill="none" stroke-width="1.3" stroke="#94a3b8" d="M-123.25 -31.5 C-118.03272305174283 -21.065446103485677, -112.81544610348568 -10.630892206971357, -107.5 0 M-123.25 -31.5 C-117.14611329938222 -19.29222659876443, -111.04222659876443 -7.084453197528859, -107.5 0 M-107.5 0 C-110.98338497538064 6.966769950761303, -114.4667699507613 13.933539901522606, -123.25 31.5 M-107.5 0 C-110.76682612498703 6.533652249974069, -114.03365224997407 13.067304499948138, -123.25 31.5 M-123.25 31.5 C-54.53783552107008 31.5, 14.174328957859842 31.5, 107.5 31.5 M-123.25 31.5 C-64.24946391863358 31.5, -5.248927837267161 31.5, 107.5 31.5 M107.5 31.5 C107.5 7.7361288205697285, 107.5 -16.027742358860543, 107.5 -31.5 M107.5 31.5 C107.5 15.42310570460597, 107.5 -0.6537885907880607, 107.5 -31.5 M107.5 -31.5 C44.71472728439259 -31.5, -18.070545431214825 -31.5, -123.25 -31.5 M107.5 -31.5 C37.007418927577476 -31.5, -33.48516214484505 -31.5, -123.25 -31.5"/></g><g transform="translate(-92.125, -24)" style="color:#64748b !important" class="label"><rect/><foreignObject height="48" width="200"><div xmlns="http://www.w3.org/1999/xhtml" style="color: rgb(100, 116, 139) !important; display: table; white-space: break-spaces; line-height: 1.5; max-width: 200px; text-align: center; width: 200px;"><span class="nodeLabel" style="color:#64748b !important"><p>LOG(INFO) f'(parallel_news_dig...'</p></span></div></foreignObject></g></g><g transform="translate(210.171875, 329)" id="flowchart-LOG7-12" class="node default log"><g transform="translate(7.875,0)" class="basic label-container"><path style="fill:#f8fafc !important;stroke:#94a3b8 !important" fill="#f8fafc" stroke-width="0" stroke="none" d="M-123.25 -31.5 C-118.85110214711582 -22.702204294231656, -114.45220429423166 -13.904408588463316, -107.5 0 C-112.57993553043433 10.159871060868655, -117.65987106086865 20.31974212173731, -123.25 31.5 C-75.81765898981317 31.5, -28.385317979626336 31.5, 107.5 31.5 C107.5 14.237487206391545, 107.5 -3.025025587216909, 107.5 -31.5 C40.813848078906034 -31.5, -25.872303842187932 -31.5, -123.25 -31.5"/><path style="fill:#f8fafc !important;stroke:#94a3b8 !important" fill="none" stroke-width="1.3" stroke="#94a3b8" d="M-123.25 -31.5 C-117.37812271151405 -19.756245423028098, -111.5062454230281 -8.012490846056199, -107.5 0 M-123.25 -31.5 C-119.03201570392565 -23.064031407851317, -114.81403140785132 -14.62806281570263, -107.5 0 M-107.5 0 C-113.15077291134278 11.301545822685577, -118.80154582268558 22.603091645371155, -123.25 31.5 M-107.5 0 C-113.20661773881436 11.41323547762871, -118.91323547762872 22.82647095525742, -123.25 31.5 M-123.25 31.5 C-43.015819122179195 31.5, 37.21836175564161 31.5, 107.5 31.5 M-123.25 31.5 C-31.905077833068802 31.5, 59.439844333862396 31.5, 107.5 31.5 M107.5 31.5 C107.5 7.873952328607107, 107.5 -15.752095342785786, 107.5 -31.5 M107.5 31.5 C107.5 16.718603524231263, 107.5 1.9372070484625254, 107.5 -31.5 M107.5 -31.5 C38.698572310492 -31.5, -30.102855379016006 -31.5, -123.25 -31.5 M107.5 -31.5 C28.775726546205348 -31.5, -49.948546907589304 -31.5, -123.25 -31.5"/></g><g transform="translate(-92.125, -24)" style="color:#64748b !important" class="label"><rect/><foreignObject height="48" width="200"><div xmlns="http://www.w3.org/1999/xhtml" style="color: rgb(100, 116, 139) !important; display: table; white-space: break-spaces; line-height: 1.5; max-width: 200px; text-align: center; width: 200px;"><span class="nodeLabel" style="color:#64748b !important"><p>LOG(INFO) f'(parallel_news_dig...'</p></span></div></foreignObject></g></g><g transform="translate(210.171875, 462.5)" id="flowchart-S8-15" class="node default assign"><rect height="54" width="213.859375" y="-27" x="-106.9296875" style="fill:#f8fafc !important;stroke:#64748b !important" class="basic label-container"/><g transform="translate(-76.9296875, -12)" style="color:#1e293b !important" class="label"><rect/><foreignObject height="24" width="153.859375"><div xmlns="http://www.w3.org/1999/xhtml" style="color: rgb(30, 41, 59) !important; display: table-cell; white-space: nowrap; line-height: 1.5; max-width: 200px; text-align: center;"><span class="nodeLabel" style="color:#1e293b !important"><p>CallParallelStatement</p></span></div></foreignObject></g></g><g transform="translate(210.171875, 596)" id="flowchart-LOG9-18" class="node default log"><g transform="translate(7.875,0)" class="basic label-container"><path style="fill:#f8fafc !important;stroke:#94a3b8 !important" fill="#f8fafc" stroke-width="0" stroke="none" d="M-123.25 -31.5 C-116.96599622687906 -18.931992453758102, -110.6819924537581 -6.363984907516205, -107.5 0 C-112.3845382604578 9.769076520915615, -117.26907652091562 19.53815304183123, -123.25 31.5 C-75.39398196855444 31.5, -27.5379639371089 31.5, 107.5 31.5 C107.5 13.84465495749885, 107.5 -3.8106900850022996, 107.5 -31.5 C61.09101918474781 -31.5, 14.682038369495615 -31.5, -123.25 -31.5"/><path style="fill:#f8fafc !important;stroke:#94a3b8 !important" fill="none" stroke-width="1.3" stroke="#94a3b8" d="M-123.25 -31.5 C-118.19179585139602 -21.383591702792053, -113.13359170279205 -11.267183405584102, -107.5 0 M-123.25 -31.5 C-117.56726229819219 -20.13452459638438, -111.88452459638438 -8.769049192768762, -107.5 0 M-107.5 0 C-111.05251556684746 7.105031133694921, -114.60503113369492 14.210062267389842, -123.25 31.5 M-107.5 0 C-113.02038959833885 11.040779196677693, -118.54077919667769 22.081558393355387, -123.25 31.5 M-123.25 31.5 C-58.53229704548586 31.5, 6.185405909028276 31.5, 107.5 31.5 M-123.25 31.5 C-73.03761904559097 31.5, -22.825238091181944 31.5, 107.5 31.5 M107.5 31.5 C107.5 15.772501356486464, 107.5 0.04500271297292713, 107.5 -31.5 M107.5 31.5 C107.5 9.668431745676536, 107.5 -12.163136508646929, 107.5 -31.5 M107.5 -31.5 C46.136949568531335 -31.5, -15.22610086293733 -31.5, -123.25 -31.5 M107.5 -31.5 C25.524859166820093 -31.5, -56.450281666359814 -31.5, -123.25 -31.5"/></g><g transform="translate(-92.125, -24)" style="color:#64748b !important" class="label"><rect/><foreignObject height="48" width="200"><div xmlns="http://www.w3.org/1999/xhtml" style="color: rgb(100, 116, 139) !important; display: table; white-space: break-spaces; line-height: 1.5; max-width: 200px; text-align: center; width: 200px;"><span class="nodeLabel" style="color:#64748b !important"><p>LOG(INFO) '(parallel_news_diges...'</p></span></div></foreignObject></g></g><g transform="translate(210.171875, 841.5)" id="flowchart-GEN10-21" class="node default llm"><polygon style="fill:#dbeafe !important;stroke:#3b82f6 !important" transform="translate(-123.671875,43.5)" class="label-container" points="-43.5,0 247.34375,0 290.84375,-87 0,-87"/><g transform="translate(-116.171875, -36)" style="color:#1e3a5f !important" class="label"><rect/><foreignObject height="72" width="232.34375"><div xmlns="http://www.w3.org/1999/xhtml" style="color: rgb(30, 58, 95) !important; display: table; white-space: break-spaces; line-height: 1.5; max-width: 200px; text-align: center; width: 200px;"><span class="nodeLabel" style="color:#1e3a5f !important"><p>GENERATE morning_briefing(@tech_sum..., @sci_summary, ...) -&gt; @digest</p></span></div></foreignObject></g></g><g transform="translate(210.171875, 1087)" id="flowchart-LOG11-24" class="node default log"><g transform="translate(7.875,0)" class="basic label-container"><path style="fill:#f8fafc !important;stroke:#94a3b8 !important" fill="#f8fafc" stroke-width="0" stroke="none" d="M-123.25 -31.5 C-119.14659784083946 -23.293195681678927, -115.04319568167892 -15.086391363357855, -107.5 0 C-111.77421132846294 8.548422656925887, -116.04842265692588 17.096845313851773, -123.25 31.5 C-55.206060480054234 31.5, 12.837879039891533 31.5, 107.5 31.5 C107.5 15.400909534253678, 107.5 -0.6981809314926437, 107.5 -31.5 C17.34273306747913 -31.5, -72.81453386504174 -31.5, -123.25 -31.5"/><path style="fill:#f8fafc !important;stroke:#94a3b8 !important" fill="none" stroke-width="1.3" stroke="#94a3b8" d="M-123.25 -31.5 C-118.9917588971868 -22.983517794373583, -114.73351779437358 -14.467035588747166, -107.5 0 M-123.25 -31.5 C-119.15734865089287 -23.314697301785742, -115.06469730178574 -15.129394603571484, -107.5 0 M-107.5 0 C-111.5880847703987 8.176169540797375, -115.67616954079737 16.35233908159475, -123.25 31.5 M-107.5 0 C-112.58940767064169 10.17881534128338, -117.67881534128338 20.35763068256676, -123.25 31.5 M-123.25 31.5 C-34.45155808603458 31.5, 54.34688382793084 31.5, 107.5 31.5 M-123.25 31.5 C-59.85580097486297 31.5, 3.538398050274054 31.5, 107.5 31.5 M107.5 31.5 C107.5 14.391269482213868, 107.5 -2.7174610355722635, 107.5 -31.5 M107.5 31.5 C107.5 9.899247404794572, 107.5 -11.701505190410856, 107.5 -31.5 M107.5 -31.5 C43.21744178635497 -31.5, -21.065116427290064 -31.5, -123.25 -31.5 M107.5 -31.5 C21.602743784451135 -31.5, -64.29451243109773 -31.5, -123.25 -31.5"/></g><g transform="translate(-92.125, -24)" style="color:#64748b !important" class="label"><rect/><foreignObject height="48" width="200"><div xmlns="http://www.w3.org/1999/xhtml" style="color: rgb(100, 116, 139) !important; display: table; white-space: break-spaces; line-height: 1.5; max-width: 200px; text-align: center; width: 200px;"><span class="nodeLabel" style="color:#64748b !important"><p>LOG(INFO) f'(parallel_news_dig...'</p></span></div></foreignObject></g></g><g transform="translate(210.171875, 1225)" id="flowchart-RET12-27" class="node default term"><rect height="39" width="154.796875" y="-19.5" x="-77.3984375" ry="19.5" rx="19.5" style="fill:#fce7f3 !important;stroke:#ec4899 !important" class="basic label-container"/><g transform="translate(-65.0234375, -12)" style="color:#831843 !important" class="label"><rect/><foreignObject height="24" width="130.046875"><div xmlns="http://www.w3.org/1999/xhtml" style="color: rgb(131, 24, 67) !important; display: table-cell; white-space: nowrap; line-height: 1.5; max-width: 200px; text-align: center;"><span class="nodeLabel" style="color:#831843 !important"><p>RETURN @digest</p></span></div></foreignObject></g></g><g transform="translate(566.34375, 1087)" id="flowchart-LOG14-33" class="node default log"><g transform="translate(7.875,0)" class="basic label-container"><path style="fill:#f8fafc !important;stroke:#94a3b8 !important" fill="#f8fafc" stroke-width="0" stroke="none" d="M-123.25 -31.5 C-119.56562718208748 -24.131254364174968, -115.88125436417496 -16.762508728349935, -107.5 0 C-111.58766759542303 8.175335190846058, -115.67533519084606 16.350670381692115, -123.25 31.5 C-62.048906453617235 31.5, -0.84781290723447 31.5, 107.5 31.5 C107.5 14.10171436475791, 107.5 -3.296571270484179, 107.5 -31.5 C49.6025071307896 -31.5, -8.294985738420806 -31.5, -123.25 -31.5"/><path style="fill:#f8fafc !important;stroke:#94a3b8 !important" fill="none" stroke-width="1.3" stroke="#94a3b8" d="M-123.25 -31.5 C-118.92521682163826 -22.85043364327651, -114.60043364327652 -14.200867286553024, -107.5 0 M-123.25 -31.5 C-117.29610686961207 -19.592213739224146, -111.34221373922415 -7.684427478448292, -107.5 0 M-107.5 0 C-112.74324414801181 10.486488296023632, -117.98648829602364 20.972976592047264, -123.25 31.5 M-107.5 0 C-112.91021730505494 10.820434610109892, -118.32043461010988 21.640869220219784, -123.25 31.5 M-123.25 31.5 C-54.599651468789205 31.5, 14.050697062421591 31.5, 107.5 31.5 M-123.25 31.5 C-42.972137278025315 31.5, 37.30572544394937 31.5, 107.5 31.5 M107.5 31.5 C107.5 16.773450322469216, 107.5 2.046900644938429, 107.5 -31.5 M107.5 31.5 C107.5 10.659202301499338, 107.5 -10.181595397001324, 107.5 -31.5 M107.5 -31.5 C51.14995112537084 -31.5, -5.200097749258319 -31.5, -123.25 -31.5 M107.5 -31.5 C16.59533370568191 -31.5, -74.30933258863618 -31.5, -123.25 -31.5"/></g><g transform="translate(-92.125, -24)" style="color:#64748b !important" class="label"><rect/><foreignObject height="48" width="200"><div xmlns="http://www.w3.org/1999/xhtml" style="color: rgb(100, 116, 139) !important; display: table; white-space: break-spaces; line-height: 1.5; max-width: 200px; text-align: center; width: 200px;"><span class="nodeLabel" style="color:#64748b !important"><p>LOG(ERROR) f'(parallel_news_dig...'</p></span></div></foreignObject></g></g><g transform="translate(566.34375, 1225)" id="flowchart-RET15-34" class="node default term"><rect height="63" width="230.75" y="-31.5" x="-115.375" ry="31.5" rx="31.5" style="fill:#fce7f3 !important;stroke:#ec4899 !important" class="basic label-container"/><g transform="translate(-100, -24)" style="color:#831843 !important" class="label"><rect/><foreignObject height="48" width="200"><div xmlns="http://www.w3.org/1999/xhtml" style="color: rgb(131, 24, 67) !important; display: table; white-space: break-spaces; line-height: 1.5; max-width: 200px; text-align: center; width: 200px;"><span class="nodeLabel" style="color:#831843 !important"><p>RETURN '(ERROR) Model unavai...' (status='failed')</p></span></div></foreignObject></g></g><g transform="translate(566.34375, 841.5)" id="flowchart-EXC13-32" class="node default ctrl"><polygon style="fill:#ede9fe !important;stroke:#8b5cf6 !important" transform="translate(-139,139)" class="label-container" points="139,0 278,-139 139,-278 0,-139"/><g transform="translate(-100, -24)" style="color:#3b0764 !important" class="label"><rect/><foreignObject height="48" width="200"><div xmlns="http://www.w3.org/1999/xhtml" style="color: rgb(59, 7, 100) !important; display: table; white-space: break-spaces; line-height: 1.5; max-width: 200px; text-align: center; width: 200px;"><span class="nodeLabel" style="color:#3b0764 !important"><p>EXCEPTION ModelUnavailable</p></span></div></foreignObject></g></g><g transform="translate(894.34375, 1087)" id="flowchart-LOG17-40" class="node default log"><g transform="translate(7.875,0)" class="basic label-container"><path style="fill:#f8fafc !important;stroke:#94a3b8 !important" fill="#f8fafc" stroke-width="0" stroke="none" d="M-123.25 -31.5 C-119.99124264764875 -24.982485295297504, -116.73248529529751 -18.46497059059501, -107.5 0 C-111.47100937591753 7.942018751835074, -115.44201875183508 15.884037503670148, -123.25 31.5 C-63.5982550685349 31.5, -3.9465101370697937 31.5, 107.5 31.5 C107.5 9.14592842019438, 107.5 -13.20814315961124, 107.5 -31.5 C27.451900496047713 -31.5, -52.59619900790457 -31.5, -123.25 -31.5"/><path style="fill:#f8fafc !important;stroke:#94a3b8 !important" fill="none" stroke-width="1.3" stroke="#94a3b8" d="M-123.25 -31.5 C-117.47170190930042 -19.94340381860085, -111.69340381860086 -8.386807637201702, -107.5 0 M-123.25 -31.5 C-117.0511985393008 -19.102397078601584, -110.85239707860158 -6.7047941572031675, -107.5 0 M-107.5 0 C-111.76271875525194 8.525437510503886, -116.02543751050389 17.050875021007773, -123.25 31.5 M-107.5 0 C-111.7619170375084 8.523834075016802, -116.02383407501681 17.047668150033605, -123.25 31.5 M-123.25 31.5 C-64.0670132388122 31.5, -4.884026477624374 31.5, 107.5 31.5 M-123.25 31.5 C-32.39612783731042 31.5, 58.45774432537917 31.5, 107.5 31.5 M107.5 31.5 C107.5 6.443355653620948, 107.5 -18.613288692758104, 107.5 -31.5 M107.5 31.5 C107.5 6.579859806362041, 107.5 -18.340280387275918, 107.5 -31.5 M107.5 -31.5 C50.20265611926581 -31.5, -7.0946877614683785 -31.5, -123.25 -31.5 M107.5 -31.5 C55.15944892620196 -31.5, 2.8188978524039214 -31.5, -123.25 -31.5"/></g><g transform="translate(-92.125, -24)" style="color:#64748b !important" class="label"><rect/><foreignObject height="48" width="200"><div xmlns="http://www.w3.org/1999/xhtml" style="color: rgb(100, 116, 139) !important; display: table; white-space: break-spaces; line-height: 1.5; max-width: 200px; text-align: center; width: 200px;"><span class="nodeLabel" style="color:#64748b !important"><p>LOG(WARN) '(parallel_news_diges...'</p></span></div></foreignObject></g></g><g transform="translate(894.34375, 1225)" id="flowchart-RET18-41" class="node default term"><rect height="63" width="230.75" y="-31.5" x="-115.375" ry="31.5" rx="31.5" style="fill:#fce7f3 !important;stroke:#ec4899 !important" class="basic label-container"/><g transform="translate(-100, -24)" style="color:#831843 !important" class="label"><rect/><foreignObject height="48" width="200"><div xmlns="http://www.w3.org/1999/xhtml" style="color: rgb(131, 24, 67) !important; display: table; white-space: break-spaces; line-height: 1.5; max-width: 200px; text-align: center; width: 200px;"><span class="nodeLabel" style="color:#831843 !important"><p>RETURN @digest (status='trun...)</p></span></div></foreignObject></g></g><g transform="translate(894.34375, 841.5)" id="flowchart-EXC16-39" class="node default ctrl"><polygon style="fill:#ede9fe !important;stroke:#8b5cf6 !important" transform="translate(-139,139)" class="label-container" points="139,0 278,-139 139,-278 0,-139"/><g transform="translate(-100, -24)" style="color:#3b0764 !important" class="label"><rect/><foreignObject height="48" width="200"><div xmlns="http://www.w3.org/1999/xhtml" style="color: rgb(59, 7, 100) !important; display: table; white-space: break-spaces; line-height: 1.5; max-width: 200px; text-align: center; width: 200px;"><span class="nodeLabel" style="color:#3b0764 !important"><p>EXCEPTION BudgetExceeded</p></span></div></foreignObject></g></g></g></g><g transform="translate(1800.34375, 379)" class="root"><g class="clusters"><g data-look="classic" id="SG_summarise_single" class="cluster"><rect height="528" width="372" y="8" x="8" style=""/><g transform="translate(94, 8)" class="cluster-label"><foreignObject height="48" width="200"><div style="display: table; white-space: break-spaces; line-height: 1.5; max-width: 200px; text-align: center; width: 200px;" xmlns="http://www.w3.org/1999/xhtml"><span class="nodeLabel"><p>WORKFLOW: summarise_single</p></span></div></foreignObject></g></g></g><g class="edgePaths"><path marker-end="url(#my-svg_flowchart-v2-pointEnd)" style="" class="edge-thickness-normal edge-pattern-solid edge-thickness-normal edge-pattern-solid flowchart-link" id="L_LOG2_GEN3_0" d="M194.5,223L194.417,229.167C194.333,235.333,194.167,247.667,194.158,259.5C194.149,271.333,194.298,282.667,194.373,288.334L194.447,294"/><path marker-end="url(#my-svg_flowchart-v2-pointEnd)" style="" class="edge-thickness-normal edge-pattern-solid edge-thickness-normal edge-pattern-solid flowchart-link" id="L_GEN3_RET4_0" d="M194.5,385L194.417,391.167C194.333,397.333,194.167,409.667,194.083,421.417C194,433.167,194,444.333,194,449.917L194,455.5"/><path marker-end="url(#my-svg_flowchart-v2-pointEnd)" style="" class="edge-thickness-normal edge-pattern-solid edge-thickness-normal edge-pattern-solid flowchart-link" id="L_START1_LOG2_0" d="M194,84.5L194,90.75C194,97,194,109.5,194.075,121.417C194.149,133.333,194.298,144.667,194.373,150.334L194.447,156"/></g><g class="edgeLabels"><g class="edgeLabel"><g transform="translate(0, 0)" class="label"><foreignObject height="0" width="0"><div style="display: table-cell; white-space: nowrap; line-height: 1.5; max-width: 200px; text-align: center;" class="labelBkg" xmlns="http://www.w3.org/1999/xhtml"><span class="edgeLabel"></span></div></foreignObject></g></g><g class="edgeLabel"><g transform="translate(0, 0)" class="label"><foreignObject height="0" width="0"><div style="display: table-cell; white-space: nowrap; line-height: 1.5; max-width: 200px; text-align: center;" class="labelBkg" xmlns="http://www.w3.org/1999/xhtml"><span class="edgeLabel"></span></div></foreignObject></g></g><g class="edgeLabel"><g transform="translate(0, 0)" class="label"><foreignObject height="0" width="0"><div style="display: table-cell; white-space: nowrap; line-height: 1.5; max-width: 200px; text-align: center;" class="labelBkg" xmlns="http://www.w3.org/1999/xhtml"><span class="edgeLabel"></span></div></foreignObject></g></g></g><g class="nodes"><g transform="translate(194, 65)" id="flowchart-START1-0" class="node default term"><rect height="39" width="58.546875" y="-19.5" x="-29.2734375" ry="19.5" rx="19.5" style="fill:#fce7f3 !important;stroke:#ec4899 !important" class="basic label-container"/><g transform="translate(-16.8984375, -12)" style="color:#831843 !important" class="label"><rect/><foreignObject height="24" width="33.796875"><div xmlns="http://www.w3.org/1999/xhtml" style="color: rgb(131, 24, 67) !important; display: table-cell; white-space: nowrap; line-height: 1.5; max-width: 200px; text-align: center;"><span class="nodeLabel" style="color:#831843 !important"><p>Start</p></span></div></foreignObject></g></g><g transform="translate(194, 191)" id="flowchart-LOG2-1" class="node default log"><g transform="translate(7.875,0)" class="basic label-container"><path style="fill:#f8fafc !important;stroke:#94a3b8 !important" fill="#f8fafc" stroke-width="0" stroke="none" d="M-123.25 -31.5 C-119.71533584401007 -24.430671688020148, -116.18067168802015 -17.3613433760403, -107.5 0 C-111.43824129186147 7.876482583722942, -115.37648258372295 15.752965167445884, -123.25 31.5 C-47.88029167344992 31.5, 27.489416653100164 31.5, 107.5 31.5 C107.5 13.759736205803371, 107.5 -3.980527588393258, 107.5 -31.5 C58.46341397337002 -31.5, 9.426827946740033 -31.5, -123.25 -31.5"/><path style="fill:#f8fafc !important;stroke:#94a3b8 !important" fill="none" stroke-width="1.3" stroke="#94a3b8" d="M-123.25 -31.5 C-118.7869044192211 -22.573808838442204, -114.3238088384422 -13.647617676884405, -107.5 0 M-123.25 -31.5 C-117.61084102836944 -20.22168205673887, -111.97168205673887 -8.943364113477738, -107.5 0 M-107.5 0 C-111.27306017305513 7.546120346110261, -115.04612034611026 15.092240692220521, -123.25 31.5 M-107.5 0 C-112.75144017193642 10.502880343872853, -118.00288034387285 21.005760687745706, -123.25 31.5 M-123.25 31.5 C-72.20745046700318 31.5, -21.16490093400637 31.5, 107.5 31.5 M-123.25 31.5 C-39.21774834040998 31.5, 44.814503319180034 31.5, 107.5 31.5 M107.5 31.5 C107.5 17.86700522827292, 107.5 4.234010456545839, 107.5 -31.5 M107.5 31.5 C107.5 11.183747579263414, 107.5 -9.132504841473171, 107.5 -31.5 M107.5 -31.5 C59.876476115492615 -31.5, 12.25295223098523 -31.5, -123.25 -31.5 M107.5 -31.5 C26.47939907698141 -31.5, -54.54120184603718 -31.5, -123.25 -31.5"/></g><g transform="translate(-92.125, -24)" style="color:#64748b !important" class="label"><rect/><foreignObject height="48" width="200"><div xmlns="http://www.w3.org/1999/xhtml" style="color: rgb(100, 116, 139) !important; display: table; white-space: break-spaces; line-height: 1.5; max-width: 200px; text-align: center; width: 200px;"><span class="nodeLabel" style="color:#64748b !important"><p>LOG(DEBUG) f'(summarise_single)...'</p></span></div></foreignObject></g></g><g transform="translate(194, 341)" id="flowchart-GEN3-2" class="node default llm"><polygon style="fill:#dbeafe !important;stroke:#3b82f6 !important" transform="translate(-107.5,43.5)" class="label-container" points="-43.5,0 215,0 258.5,-87 0,-87"/><g transform="translate(-100, -36)" style="color:#1e3a5f !important" class="label"><rect/><foreignObject height="72" width="200"><div xmlns="http://www.w3.org/1999/xhtml" style="color: rgb(30, 58, 95) !important; display: table; white-space: break-spaces; line-height: 1.5; max-width: 200px; text-align: center; width: 200px;"><span class="nodeLabel" style="color:#1e3a5f !important"><p>GENERATE summarise_topic(@topic, @context) -&gt; @summary</p></span></div></foreignObject></g></g><g transform="translate(194, 479)" id="flowchart-RET4-5" class="node default term"><rect height="39" width="177.890625" y="-19.5" x="-88.9453125" ry="19.5" rx="19.5" style="fill:#fce7f3 !important;stroke:#ec4899 !important" class="basic label-container"/><g transform="translate(-76.5703125, -12)" style="color:#831843 !important" class="label"><rect/><foreignObject height="24" width="153.140625"><div xmlns="http://www.w3.org/1999/xhtml" style="color: rgb(131, 24, 67) !important; display: table-cell; white-space: nowrap; line-height: 1.5; max-width: 200px; text-align: center;"><span class="nodeLabel" style="color:#831843 !important"><p>RETURN @summary</p></span></div></foreignObject></g></g></g></g></g></g></g></svg>