<svg aria-roledescription="flowchart-v2" role="graphics-document document" viewBox="0 0 1695 1727.75" style="max-width: 1695px; background-color: white;" class="flowchart" xmlns:xlink="http://www.w3.org/1999/xlink" xmlns="http://www.w3.org/2000/svg" width="100%" id="my-svg"><style>#my-svg{font-family:"trebuchet ms",verdana,arial,sans-serif;font-size:16px;fill:#333;}@keyframes edge-animation-frame{from{stroke-dashoffset:0;}}@keyframes dash{to{stroke-dashoffset:0;}}#my-svg .edge-animation-slow{stroke-dasharray:9,5!important;stroke-dashoffset:900;animation:dash 50s linear infinite;stroke-linecap:round;}#my-svg .edge-animation-fast{stroke-dasharray:9,5!important;stroke-dashoffset:900;animation:dash 20s linear infinite;stroke-linecap:round;}#my-svg .error-icon{fill:#552222;}#my-svg .error-text{fill:#552222;stroke:#552222;}#my-svg .edge-thickness-normal{stroke-width:1px;}#my-svg .edge-thickness-thick{stroke-width:3.5px;}#my-svg .edge-pattern-solid{stroke-dasharray:0;}#my-svg .edge-thickness-invisible{stroke-width:0;fill:none;}#my-svg .edge-pattern-dashed{stroke-dasharray:3;}#my-svg .edge-pattern-dotted{stroke-dasharray:2;}#my-svg .marker{fill:#333333;stroke:#333333;}#my-svg .marker.cross{stroke:#333333;}#my-svg svg{font-family:"trebuchet ms",verdana,arial,sans-serif;font-size:16px;}#my-svg p{margin:0;}#my-svg .label{font-family:"trebuchet ms",verdana,arial,sans-serif;color:#333;}#my-svg .cluster-label text{fill:#333;}#my-svg .cluster-label span{color:#333;}#my-svg .cluster-label span p{background-color:transparent;}#my-svg .label text,#my-svg span{fill:#333;color:#333;}#my-svg .node rect,#my-svg .node circle,#my-svg .node ellipse,#my-svg .node polygon,#my-svg .node path{fill:#ECECFF;stroke:#9370DB;stroke-width:1px;}#my-svg .rough-node .label text,#my-svg .node .label text,#my-svg .image-shape .label,#my-svg .icon-shape .label{text-anchor:middle;}#my-svg .node .katex path{fill:#000;stroke:#000;stroke-width:1px;}#my-svg .rough-node .label,#my-svg .node .label,#my-svg .image-shape .label,#my-svg .icon-shape .label{text-align:center;}#my-svg .node.clickable{cursor:pointer;}#my-svg .root .anchor path{fill:#333333!important;stroke-width:0;stroke:#333333;}#my-svg .arrowheadPath{fill:#333333;}#my-svg .edgePath .path{stroke:#333333;stroke-width:2.0px;}#my-svg .flowchart-link{stroke:#333333;fill:none;}#my-svg .edgeLabel{background-color:rgba(232,232,232, 0.8);text-align:center;}#my-svg .edgeLabel p{background-color:rgba(232,232,232, 0.8);}#my-svg .edgeLabel rect{opacity:0.5;background-color:rgba(232,232,232, 0.8);fill:rgba(232,232,232, 0.8);}#my-svg .labelBkg{background-color:rgba(232, 232, 232, 0.5);}#my-svg .cluster rect{fill:#ffffde;stroke:#aaaa33;stroke-width:1px;}#my-svg .cluster text{fill:#333;}#my-svg .cluster span{color:#333;}#my-svg div.mermaidTooltip{position:absolute;text-align:center;max-width:200px;padding:2px;font-family:"trebuchet ms",verdana,arial,sans-serif;font-size:12px;background:hsl(80, 100%, 96.2745098039%);border:1px solid #aaaa33;border-radius:2px;pointer-events:none;z-index:100;}#my-svg .flowchartTitleText{text-anchor:middle;font-size:18px;fill:#333;}#my-svg rect.text{fill:none;stroke-width:0;}#my-svg .icon-shape,#my-svg .image-shape{background-color:rgba(232,232,232, 0.8);text-align:center;}#my-svg .icon-shape p,#my-svg .image-shape p{background-color:rgba(232,232,232, 0.8);padding:2px;}#my-svg .icon-shape rect,#my-svg .image-shape rect{opacity:0.5;background-color:rgba(232,232,232, 0.8);fill:rgba(232,232,232, 0.8);}#my-svg .label-icon{display:inline-block;height:1em;overflow:visible;vertical-align:-0.125em;}#my-svg .node .label-icon path{fill:currentColor;stroke:revert;stroke-width:revert;}#my-svg :root{--mermaid-font-family:"trebuchet ms",verdana,arial,sans-serif;}#my-svg .llm&gt;*{fill:#dbeafe!important;stroke:#3b82f6!important;color:#1e3a5f!important;}#my-svg .llm span{fill:#dbeafe!important;stroke:#3b82f6!important;color:#1e3a5f!important;}#my-svg .llm tspan{fill:#1e3a5f!important;}#my-svg .ctrl&gt;*{fill:#ede9fe!important;stroke:#8b5cf6!important;color:#3b0764!important;}#my-svg .ctrl span{fill:#ede9fe!important;stroke:#8b5cf6!important;color:#3b0764!important;}#my-svg .ctrl tspan{fill:#3b0764!important;}#my-svg .term&gt;*{fill:#fce7f3!important;stroke:#ec4899!important;color:#831843!important;}#my-svg .term span{fill:#fce7f3!important;stroke:#ec4899!important;color:#831843!important;}#my-svg .term tspan{fill:#831843!important;}#my-svg .log&gt;*{fill:#f8fafc!important;stroke:#94a3b8!important;color:#64748b!important;}#my-svg .log span{fill:#f8fafc!important;stroke:#94a3b8!important;color:#64748b!important;}#my-svg .log tspan{fill:#64748b!important;}#my-svg .fn&gt;*{fill:#f0fdf4!important;stroke:#86efac!important;color:#166534!important;}#my-svg .fn span{fill:#f0fdf4!important;stroke:#86efac!important;color:#166534!important;}#my-svg .fn tspan{fill:#166534!important;}#my-svg .assign&gt;*{fill:#f8fafc!important;stroke:#64748b!important;color:#1e293b!important;}#my-svg .assign span{fill:#f8fafc!important;stroke:#64748b!important;color:#1e293b!important;}#my-svg .assign tspan{fill:#1e293b!important;}</style><g><marker orient="auto" markerHeight="8" markerWidth="8" markerUnits="userSpaceOnUse" refY="5" refX="5" viewBox="0 0 10 10" class="marker flowchart-v2" id="my-svg_flowchart-v2-pointEnd"><path style="stroke-width: 1; stroke-dasharray: 1, 0;" class="arrowMarkerPath" d="M 0 0 L 10 5 L 0 10 z"/></marker><marker orient="auto" markerHeight="8" markerWidth="8" markerUnits="userSpaceOnUse" refY="5" refX="4.5" viewBox="0 0 10 10" class="marker flowchart-v2" id="my-svg_flowchart-v2-pointStart"><path style="stroke-width: 1; stroke-dasharray: 1, 0;" class="arrowMarkerPath" d="M 0 5 L 10 10 L 10 0 z"/></marker><marker orient="auto" markerHeight="11" markerWidth="11" markerUnits="userSpaceOnUse" refY="5" refX="11" viewBox="0 0 10 10" class="marker flowchart-v2" id="my-svg_flowchart-v2-circleEnd"><circle style="stroke-width: 1; stroke-dasharray: 1, 0;" class="arrowMarkerPath" r="5" cy="5" cx="5"/></marker><marker orient="auto" markerHeight="11" markerWidth="11" markerUnits="userSpaceOnUse" refY="5" refX="-1" viewBox="0 0 10 10" class="marker flowchart-v2" id="my-svg_flowchart-v2-circleStart"><circle style="stroke-width: 1; stroke-dasharray: 1, 0;" class="arrowMarkerPath" r="5" cy="5" cx="5"/></marker><marker orient="auto" markerHeight="11" markerWidth="11" markerUnits="userSpaceOnUse" refY="5.2" refX="12" viewBox="0 0 11 11" class="marker cross flowchart-v2" id="my-svg_flowchart-v2-crossEnd"><path style="stroke-width: 2; stroke-dasharray: 1, 0;" class="arrowMarkerPath" d="M 1,1 l 9,9 M 10,1 l -9,9"/></marker><marker orient="auto" markerHeight="11" markerWidth="11" markerUnits="userSpaceOnUse" refY="5.2" refX="-1" viewBox="0 0 11 11" class="marker cross flowchart-v2" id="my-svg_flowchart-v2-crossStart"><path style="stroke-width: 2; stroke-dasharray: 1, 0;" class="arrowMarkerPath" d="M 1,1 l 9,9 M 10,1 l -9,9"/></marker><g class="root"><g class="clusters"/><g class="edgePaths"/><g class="edgeLabels"/><g class="nodes"><g transform="translate(0, 791.375)" class="root"><g class="clusters"><g data-look="classic" id="FUNCTIONS" class="cluster"><rect height="129" width="284.65625" y="8" x="8" style=""/><g transform="translate(80.0703125, 8)" class="cluster-label"><foreignObject height="24" width="140.515625"><div style="display: table-cell; white-space: nowrap; line-height: 1.5; max-width: 200px; text-align: center;" xmlns="http://www.w3.org/1999/xhtml"><span class="nodeLabel"><p>Function Definitions</p></span></div></foreignObject></g></g></g><g class="edgePaths"/><g class="edgeLabels"/><g class="nodes"><g transform="translate(150.328125, 72.5)" id="flowchart-FN17-48" class="node default fn"><rect height="54" width="214.65625" y="-27" x="-107.328125" style="fill:#f0fdf4 !important;stroke:#86efac !important" class="basic label-container"/><g transform="translate(-77.328125, -12)" style="color:#166534 !important" class="label"><rect/><foreignObject height="24" width="154.65625"><div xmlns="http://www.w3.org/1999/xhtml" style="color: rgb(22, 101, 52) !important; display: table-cell; white-space: nowrap; line-height: 1.5; max-width: 200px; text-align: center;"><span class="nodeLabel" style="color:#166534 !important"><p>FUNCTION: classify()</p></span></div></foreignObject></g></g></g></g><g transform="translate(334.65625, 0)" class="root"><g class="clusters"><g data-look="classic" id="SG_vision_to_action" class="cluster"><rect height="1711.75" width="1344.34375" y="8" x="8" style=""/><g transform="translate(580.171875, 8)" class="cluster-label"><foreignObject height="48" width="200"><div style="display: table; white-space: break-spaces; line-height: 1.5; max-width: 200px; text-align: center; width: 200px;" xmlns="http://www.w3.org/1999/xhtml"><span class="nodeLabel"><p>WORKFLOW: vision_to_action</p></span></div></foreignObject></g></g></g><g class="edgePaths"><path marker-end="url(#my-svg_flowchart-v2-pointEnd)" style="" class="edge-thickness-normal edge-pattern-solid edge-thickness-normal edge-pattern-solid flowchart-link" id="L_LOG2_GEN3_0" d="M532.773,223L532.69,229.167C532.607,235.333,532.44,247.667,532.431,259.5C532.423,271.333,532.572,282.667,532.646,288.334L532.721,294"/><path marker-end="url(#my-svg_flowchart-v2-pointEnd)" style="" class="edge-thickness-normal edge-pattern-solid edge-thickness-normal edge-pattern-solid flowchart-link" id="L_GEN3_LOG4_0" d="M532.773,385L532.69,391.167C532.607,397.333,532.44,409.667,532.431,421.5C532.423,433.333,532.572,444.667,532.646,450.334L532.721,456"/><path marker-end="url(#my-svg_flowchart-v2-pointEnd)" style="" class="edge-thickness-normal edge-pattern-solid edge-thickness-normal edge-pattern-solid flowchart-link" id="L_LOG7_A8_0" d="M189.047,1029.75L188.964,1035.917C188.88,1042.083,188.714,1054.417,188.63,1082.833C188.547,1111.25,188.547,1155.75,188.547,1178L188.547,1200.25"/><path marker-end="url(#my-svg_flowchart-v2-pointEnd)" style="" class="edge-thickness-normal edge-pattern-solid edge-thickness-normal edge-pattern-solid flowchart-link" id="L_EVAL5_LOG7_0" d="M452.798,763.774L408.756,787.27C364.714,810.766,276.63,857.758,232.667,890.921C188.703,924.083,188.859,943.417,188.937,953.083L189.015,962.75"/><path marker-end="url(#my-svg_flowchart-v2-pointEnd)" style="" class="edge-thickness-normal edge-pattern-solid edge-thickness-normal edge-pattern-solid flowchart-link" id="L_A8_MERGE6_0" d="M188.547,1282.25L188.547,1305.167C188.547,1328.083,188.547,1373.917,240.635,1407.207C292.724,1440.498,396.9,1461.246,448.989,1471.62L501.077,1481.994"/><path marker-end="url(#my-svg_flowchart-v2-pointEnd)" style="" class="edge-thickness-normal edge-pattern-solid edge-thickness-normal edge-pattern-solid flowchart-link" id="L_LOG9_A10_0" d="M532.773,1029.75L532.69,1035.917C532.607,1042.083,532.44,1054.417,532.357,1082.833C532.273,1111.25,532.273,1155.75,532.273,1178L532.273,1200.25"/><path marker-end="url(#my-svg_flowchart-v2-pointEnd)" style="" class="edge-thickness-normal edge-pattern-solid edge-thickness-normal edge-pattern-solid flowchart-link" id="L_EVAL5_LOG9_0" d="M532.773,843.75L532.69,853.917C532.607,864.083,532.44,884.417,532.435,904.25C532.429,924.083,532.585,943.417,532.663,953.083L532.741,962.75"/><path marker-end="url(#my-svg_flowchart-v2-pointEnd)" style="" class="edge-thickness-normal edge-pattern-solid edge-thickness-normal edge-pattern-solid flowchart-link" id="L_A10_MERGE6_0" d="M532.273,1282.25L532.273,1305.167C532.273,1328.083,532.273,1373.917,532.603,1405.167C532.932,1436.418,533.591,1453.085,533.92,1461.419L534.249,1469.753"/><path marker-end="url(#my-svg_flowchart-v2-pointEnd)" style="" class="edge-thickness-normal edge-pattern-solid edge-thickness-normal edge-pattern-solid flowchart-link" id="L_LOG11_A12_0" d="M860.398,1029.75L860.315,1035.917C860.232,1042.083,860.065,1054.417,859.982,1084.833C859.898,1115.25,859.898,1163.75,859.898,1188L859.898,1212.25"/><path marker-end="url(#my-svg_flowchart-v2-pointEnd)" style="" class="edge-thickness-normal edge-pattern-solid edge-thickness-normal edge-pattern-solid flowchart-link" id="L_EVAL5_LOG11_0" d="M611.4,765.123L652.817,788.394C694.233,811.665,777.066,858.208,818.56,891.146C860.054,924.083,860.21,943.417,860.288,953.083L860.366,962.75"/><path marker-end="url(#my-svg_flowchart-v2-pointEnd)" style="" class="edge-thickness-normal edge-pattern-solid edge-thickness-normal edge-pattern-solid flowchart-link" id="L_A12_MERGE6_0" d="M859.898,1270.25L859.898,1295.167C859.898,1320.083,859.898,1369.917,811.401,1405.133C762.903,1440.349,665.908,1460.949,617.41,1471.248L568.913,1481.548"/><path marker-end="url(#my-svg_flowchart-v2-pointEnd)" style="" class="edge-thickness-normal edge-pattern-solid edge-thickness-normal edge-pattern-solid flowchart-link" id="L_LOG4_EVAL5_0" d="M532.773,523L532.69,529.167C532.607,535.333,532.44,547.667,532.431,559.5C532.423,571.333,532.572,582.667,532.646,588.334L532.721,594"/><path marker-end="url(#my-svg_flowchart-v2-pointEnd)" style="" class="edge-thickness-normal edge-pattern-solid edge-thickness-normal edge-pattern-solid flowchart-link" id="L_MERGE6_RET13_0" d="M535,1503.75L535,1512.75C535,1521.75,535,1539.75,535,1554.333C535,1568.917,535,1580.083,535,1585.667L535,1591.25"/><path marker-end="url(#my-svg_flowchart-v2-pointEnd)" style="" class="edge-thickness-normal edge-pattern-solid edge-thickness-normal edge-pattern-solid flowchart-link" id="L_START1_LOG2_0" d="M532.273,84.5L532.273,90.75C532.273,97,532.273,109.5,532.348,121.417C532.423,133.333,532.572,144.667,532.646,150.334L532.721,156"/><path marker-end="url(#my-svg_flowchart-v2-pointEnd)" style="" class="edge-thickness-normal edge-pattern-solid edge-thickness-normal edge-pattern-solid flowchart-link" id="L_LOG15_RET16_0" d="M1178.844,1520.75L1178.76,1526.917C1178.677,1533.083,1178.51,1545.417,1178.427,1557.167C1178.344,1568.917,1178.344,1580.083,1178.344,1585.667L1178.344,1591.25"/><path marker-end="url(#my-svg_flowchart-v2-pointEnd)" style="" class="edge-thickness-normal edge-pattern-solid edge-thickness-normal edge-pattern-solid flowchart-link" id="L_EXC14_LOG15_0" d="M1178.844,1382.75L1178.76,1388.917C1178.677,1395.083,1178.51,1407.417,1178.502,1419.25C1178.493,1431.083,1178.642,1442.417,1178.717,1448.084L1178.791,1453.75"/></g><g class="edgeLabels"><g class="edgeLabel"><g transform="translate(0, 0)" class="label"><foreignObject height="0" width="0"><div style="display: table-cell; white-space: nowrap; line-height: 1.5; max-width: 200px; text-align: center;" class="labelBkg" xmlns="http://www.w3.org/1999/xhtml"><span class="edgeLabel"></span></div></foreignObject></g></g><g class="edgeLabel"><g transform="translate(0, 0)" class="label"><foreignObject height="0" width="0"><div style="display: table-cell; white-space: nowrap; line-height: 1.5; max-width: 200px; text-align: center;" class="labelBkg" xmlns="http://www.w3.org/1999/xhtml"><span class="edgeLabel"></span></div></foreignObject></g></g><g class="edgeLabel"><g transform="translate(0, 0)" class="label"><foreignObject height="0" width="0"><div style="display: table-cell; white-space: nowrap; line-height: 1.5; max-width: 200px; text-align: center;" class="labelBkg" xmlns="http://www.w3.org/1999/xhtml"><span class="edgeLabel"></span></div></foreignObject></g></g><g transform="translate(188.546875, 904.75)" class="edgeLabel"><g transform="translate(-100, -24)" class="label"><foreignObject height="48" width="200"><div style="display: table; white-space: break-spaces; line-height: 1.5; max-width: 200px; text-align: center; width: 200px;" class="labelBkg" xmlns="http://www.w3.org/1999/xhtml"><span class="edgeLabel"><p>WHEN contains:INTRUSION</p></span></div></foreignObject></g></g><g class="edgeLabel"><g transform="translate(0, 0)" class="label"><foreignObject height="0" width="0"><div style="display: table-cell; white-space: nowrap; line-height: 1.5; max-width: 200px; text-align: center;" class="labelBkg" xmlns="http://www.w3.org/1999/xhtml"><span class="edgeLabel"></span></div></foreignObject></g></g><g class="edgeLabel"><g transform="translate(0, 0)" class="label"><foreignObject height="0" width="0"><div style="display: table-cell; white-space: nowrap; line-height: 1.5; max-width: 200px; text-align: center;" class="labelBkg" xmlns="http://www.w3.org/1999/xhtml"><span class="edgeLabel"></span></div></foreignObject></g></g><g transform="translate(532.2734375, 904.75)" class="edgeLabel"><g transform="translate(-98.109375, -12)" class="label"><foreignObject height="24" width="196.21875"><div style="display: table-cell; white-space: nowrap; line-height: 1.5; max-width: 200px; text-align: center;" class="labelBkg" xmlns="http://www.w3.org/1999/xhtml"><span class="edgeLabel"><p>WHEN contains:DELIVERY</p></span></div></foreignObject></g></g><g class="edgeLabel"><g transform="translate(0, 0)" class="label"><foreignObject height="0" width="0"><div style="display: table-cell; white-space: nowrap; line-height: 1.5; max-width: 200px; text-align: center;" class="labelBkg" xmlns="http://www.w3.org/1999/xhtml"><span class="edgeLabel"></span></div></foreignObject></g></g><g class="edgeLabel"><g transform="translate(0, 0)" class="label"><foreignObject height="0" width="0"><div style="display: table-cell; white-space: nowrap; line-height: 1.5; max-width: 200px; text-align: center;" class="labelBkg" xmlns="http://www.w3.org/1999/xhtml"><span class="edgeLabel"></span></div></foreignObject></g></g><g transform="translate(859.8984375, 904.75)" class="edgeLabel"><g transform="translate(-20.4609375, -12)" class="label"><foreignObject height="24" width="40.921875"><div style="display: table-cell; white-space: nowrap; line-height: 1.5; max-width: 200px; text-align: center;" class="labelBkg" xmlns="http://www.w3.org/1999/xhtml"><span class="edgeLabel"><p>ELSE</p></span></div></foreignObject></g></g><g class="edgeLabel"><g transform="translate(0, 0)" class="label"><foreignObject height="0" width="0"><div style="display: table-cell; white-space: nowrap; line-height: 1.5; max-width: 200px; text-align: center;" class="labelBkg" xmlns="http://www.w3.org/1999/xhtml"><span class="edgeLabel"></span></div></foreignObject></g></g><g class="edgeLabel"><g transform="translate(0, 0)" class="label"><foreignObject height="0" width="0"><div style="display: table-cell; white-space: nowrap; line-height: 1.5; max-width: 200px; text-align: center;" class="labelBkg" xmlns="http://www.w3.org/1999/xhtml"><span class="edgeLabel"></span></div></foreignObject></g></g><g class="edgeLabel"><g transform="translate(0, 0)" class="label"><foreignObject height="0" width="0"><div style="display: table-cell; white-space: nowrap; line-height: 1.5; max-width: 200px; text-align: center;" class="labelBkg" xmlns="http://www.w3.org/1999/xhtml"><span class="edgeLabel"></span></div></foreignObject></g></g><g class="edgeLabel"><g transform="translate(0, 0)" class="label"><foreignObject height="0" width="0"><div style="display: table-cell; white-space: nowrap; line-height: 1.5; max-width: 200px; text-align: center;" class="labelBkg" xmlns="http://www.w3.org/1999/xhtml"><span class="edgeLabel"></span></div></foreignObject></g></g><g class="edgeLabel"><g transform="translate(0, 0)" class="label"><foreignObject height="0" width="0"><div style="display: table-cell; white-space: nowrap; line-height: 1.5; max-width: 200px; text-align: center;" class="labelBkg" xmlns="http://www.w3.org/1999/xhtml"><span class="edgeLabel"></span></div></foreignObject></g></g><g class="edgeLabel"><g transform="translate(0, 0)" class="label"><foreignObject height="0" width="0"><div style="display: table-cell; white-space: nowrap; line-height: 1.5; max-width: 200px; text-align: center;" class="labelBkg" xmlns="http://www.w3.org/1999/xhtml"><span class="edgeLabel"></span></div></foreignObject></g></g></g><g class="nodes"><g transform="translate(532.2734375, 65)" id="flowchart-START1-0" class="node default term"><rect height="39" width="58.546875" y="-19.5" x="-29.2734375" ry="19.5" rx="19.5" style="fill:#fce7f3 !important;stroke:#ec4899 !important" class="basic label-container"/><g transform="translate(-16.8984375, -12)" style="color:#831843 !important" class="label"><rect/><foreignObject height="24" width="33.796875"><div xmlns="http://www.w3.org/1999/xhtml" style="color: rgb(131, 24, 67) !important; display: table-cell; white-space: nowrap; line-height: 1.5; max-width: 200px; text-align: center;"><span class="nodeLabel" style="color:#831843 !important"><p>Start</p></span></div></foreignObject></g></g><g transform="translate(532.2734375, 191)" id="flowchart-LOG2-1" class="node default log"><g transform="translate(7.875,0)" class="basic label-container"><path style="fill:#f8fafc !important;stroke:#94a3b8 !important" fill="#f8fafc" stroke-width="0" stroke="none" d="M-123.25 -31.5 C-118.83877146662567 -22.67754293325133, -114.42754293325133 -13.855085866502662, -107.5 0 C-113.73224095206217 12.464481904124336, -119.96448190412434 24.92896380824867, -123.25 31.5 C-40.87326161674902 31.5, 41.50347676650196 31.5, 107.5 31.5 C107.5 8.043844509426926, 107.5 -15.412310981146149, 107.5 -31.5 C38.09345209891427 -31.5, -31.31309580217146 -31.5, -123.25 -31.5"/><path style="fill:#f8fafc !important;stroke:#94a3b8 !important" fill="none" stroke-width="1.3" stroke="#94a3b8" d="M-123.25 -31.5 C-118.545250281125 -22.090500562250003, -113.84050056225 -12.681001124500007, -107.5 0 M-123.25 -31.5 C-118.1168788010045 -21.23375760200902, -112.98375760200902 -10.967515204018042, -107.5 0 M-107.5 0 C-110.80553600524371 6.611072010487418, -114.11107201048742 13.222144020974836, -123.25 31.5 M-107.5 0 C-113.47876479240755 11.957529584815083, -119.45752958481508 23.915059169630165, -123.25 31.5 M-123.25 31.5 C-50.40286579430634 31.5, 22.444268411387327 31.5, 107.5 31.5 M-123.25 31.5 C-64.69461984284757 31.5, -6.139239685695145 31.5, 107.5 31.5 M107.5 31.5 C107.5 16.310261011916495, 107.5 1.1205220238329865, 107.5 -31.5 M107.5 31.5 C107.5 13.281853624871719, 107.5 -4.936292750256563, 107.5 -31.5 M107.5 -31.5 C52.206742209951464 -31.5, -3.086515580097071 -31.5, -123.25 -31.5 M107.5 -31.5 C33.31890423407796 -31.5, -40.862191531844076 -31.5, -123.25 -31.5"/></g><g transform="translate(-92.125, -24)" style="color:#64748b !important" class="label"><rect/><foreignObject height="48" width="200"><div xmlns="http://www.w3.org/1999/xhtml" style="color: rgb(100, 116, 139) !important; display: table; white-space: break-spaces; line-height: 1.5; max-width: 200px; text-align: center; width: 200px;"><span class="nodeLabel" style="color:#64748b !important"><p>LOG(INFO) f'Analyzing image: (...'</p></span></div></foreignObject></g></g><g transform="translate(532.2734375, 341)" id="flowchart-GEN3-2" class="node default llm"><polygon style="fill:#dbeafe !important;stroke:#3b82f6 !important" transform="translate(-107.5,43.5)" class="label-container" points="-43.5,0 215,0 258.5,-87 0,-87"/><g transform="translate(-100, -36)" style="color:#1e3a5f !important" class="label"><rect/><foreignObject height="72" width="200"><div xmlns="http://www.w3.org/1999/xhtml" style="color: rgb(30, 58, 95) !important; display: table; white-space: break-spaces; line-height: 1.5; max-width: 200px; text-align: center; width: 200px;"><span class="nodeLabel" style="color:#1e3a5f !important"><p>GENERATE classify(@image_de...) -&gt; @scene_label</p></span></div></foreignObject></g></g><g transform="translate(532.2734375, 491)" id="flowchart-LOG4-5" class="node default log"><g transform="translate(7.875,0)" class="basic label-container"><path style="fill:#f8fafc !important;stroke:#94a3b8 !important" fill="#f8fafc" stroke-width="0" stroke="none" d="M-123.25 -31.5 C-119.19843527434533 -23.39687054869067, -115.14687054869067 -15.29374109738134, -107.5 0 C-112.84444628873668 10.688892577473345, -118.18889257747334 21.37778515494669, -123.25 31.5 C-56.49580594508906 31.5, 10.25838810982188 31.5, 107.5 31.5 C107.5 12.030310710873987, 107.5 -7.439378578252025, 107.5 -31.5 C52.1015611361744 -31.5, -3.296877727651193 -31.5, -123.25 -31.5"/><path style="fill:#f8fafc !important;stroke:#94a3b8 !important" fill="none" stroke-width="1.3" stroke="#94a3b8" d="M-123.25 -31.5 C-118.48776592085015 -21.97553184170031, -113.7255318417003 -12.451063683400616, -107.5 0 M-123.25 -31.5 C-118.84611073852082 -22.692221477041635, -114.44222147704164 -13.884442954083273, -107.5 0 M-107.5 0 C-112.18515714930194 9.370314298603892, -116.87031429860389 18.740628597207785, -123.25 31.5 M-107.5 0 C-111.08397354432509 7.167947088650194, -114.6679470886502 14.335894177300387, -123.25 31.5 M-123.25 31.5 C-38.7474449495317 31.5, 45.755110100936605 31.5, 107.5 31.5 M-123.25 31.5 C-52.740017608560294 31.5, 17.769964782879413 31.5, 107.5 31.5 M107.5 31.5 C107.5 18.578953841263157, 107.5 5.657907682526318, 107.5 -31.5 M107.5 31.5 C107.5 7.680395670789231, 107.5 -16.139208658421538, 107.5 -31.5 M107.5 -31.5 C59.0495438449624 -31.5, 10.5990876899248 -31.5, -123.25 -31.5 M107.5 -31.5 C36.2271961905018 -31.5, -35.0456076189964 -31.5, -123.25 -31.5"/></g><g transform="translate(-92.125, -24)" style="color:#64748b !important" class="label"><rect/><foreignObject height="48" width="200"><div xmlns="http://www.w3.org/1999/xhtml" style="color: rgb(100, 116, 139) !important; display: table; white-space: break-spaces; line-height: 1.5; max-width: 200px; text-align: center; width: 200px;"><span class="nodeLabel" style="color:#64748b !important"><p>LOG(DEBUG) f'Classification: (@...'</p></span></div></foreignObject></g></g><g transform="translate(188.546875, 997.75)" id="flowchart-LOG7-9" class="node default log"><g transform="translate(7.875,0)" class="basic label-container"><path style="fill:#f8fafc !important;stroke:#94a3b8 !important" fill="#f8fafc" stroke-width="0" stroke="none" d="M-123.25 -31.5 C-119.92301560687872 -24.846031213757456, -116.59603121375746 -18.192062427514912, -107.5 0 C-113.06532637297519 11.130652745950382, -118.63065274595039 22.261305491900764, -123.25 31.5 C-38.098482400645025 31.5, 47.05303519870995 31.5, 107.5 31.5 C107.5 14.598858948229694, 107.5 -2.3022821035406125, 107.5 -31.5 C19.112436677734266 -31.5, -69.27512664453147 -31.5, -123.25 -31.5"/><path style="fill:#f8fafc !important;stroke:#94a3b8 !important" fill="none" stroke-width="1.3" stroke="#94a3b8" d="M-123.25 -31.5 C-119.05439741188887 -23.108794823777743, -114.85879482377774 -14.717589647555485, -107.5 0 M-123.25 -31.5 C-120.06697623357111 -25.13395246714223, -116.88395246714224 -18.76790493428446, -107.5 0 M-107.5 0 C-113.68987068173917 12.37974136347834, -119.87974136347835 24.75948272695668, -123.25 31.5 M-107.5 0 C-112.30067033429503 9.601340668590076, -117.10134066859007 19.202681337180152, -123.25 31.5 M-123.25 31.5 C-32.45781435710731 31.5, 58.33437128578538 31.5, 107.5 31.5 M-123.25 31.5 C-44.31512089481764 31.5, 34.61975821036472 31.5, 107.5 31.5 M107.5 31.5 C107.5 15.2926408350618, 107.5 -0.9147183298764006, 107.5 -31.5 M107.5 31.5 C107.5 6.731244426142116, 107.5 -18.03751114771577, 107.5 -31.5 M107.5 -31.5 C53.7884589465209 -31.5, 0.07691789304179508 -31.5, -123.25 -31.5 M107.5 -31.5 C45.10908917649807 -31.5, -17.281821647003866 -31.5, -123.25 -31.5"/></g><g transform="translate(-92.125, -24)" style="color:#64748b !important" class="label"><rect/><foreignObject height="48" width="200"><div xmlns="http://www.w3.org/1999/xhtml" style="color: rgb(100, 116, 139) !important; display: table; white-space: break-spaces; line-height: 1.5; max-width: 200px; text-align: center; width: 200px;"><span class="nodeLabel" style="color:#64748b !important"><p>LOG(WARN) 'Intrusion detected —...'</p></span></div></foreignObject></g></g><g transform="translate(188.546875, 1243.25)" id="flowchart-A8-10" class="node default assign"><rect height="78" width="291.09375" y="-39" x="-145.546875" style="fill:#f8fafc !important;stroke:#64748b !important" class="basic label-container"/><g transform="translate(-115.546875, -24)" style="color:#1e293b !important" class="label"><rect/><foreignObject height="48" width="231.09375"><div xmlns="http://www.w3.org/1999/xhtml" style="color: rgb(30, 41, 59) !important; display: table; white-space: break-spaces; line-height: 1.5; max-width: 200px; text-align: center; width: 200px;"><span class="nodeLabel" style="color:#1e293b !important"><p>@action_taken := 'SOUND_ALARM_CALL_POL...'</p></span></div></foreignObject></g></g><g transform="translate(532.2734375, 720.375)" id="flowchart-EVAL5-8" class="node default ctrl"><polygon style="fill:#ede9fe !important;stroke:#8b5cf6 !important" transform="translate(-122.875,122.875)" class="label-container" points="122.875,0 245.75,-122.875 122.875,-245.75 0,-122.875"/><g transform="translate(-95.875, -12)" style="color:#3b0764 !important" class="label"><rect/><foreignObject height="24" width="191.75"><div xmlns="http://www.w3.org/1999/xhtml" style="color: rgb(59, 7, 100) !important; display: table-cell; white-space: nowrap; line-height: 1.5; max-width: 200px; text-align: center;"><span class="nodeLabel" style="color:#3b0764 !important"><p>EVALUATE: @scene_label</p></span></div></foreignObject></g></g><g transform="translate(535, 1488.75)" id="flowchart-MERGE6-16" class="node default"><rect height="30" width="60" y="-15" x="-30" style="" class="basic label-container"/><g transform="translate(0, 0)" style="" class="label"><rect/><foreignObject height="0" width="0"><div style="display: table-cell; white-space: nowrap; line-height: 1.5; max-width: 200px; text-align: center;" xmlns="http://www.w3.org/1999/xhtml"><span class="nodeLabel"></span></div></foreignObject></g></g><g transform="translate(532.2734375, 997.75)" id="flowchart-LOG9-17" class="node default log"><g transform="translate(7.875,0)" class="basic label-container"><path style="fill:#f8fafc !important;stroke:#94a3b8 !important" fill="#f8fafc" stroke-width="0" stroke="none" d="M-123.25 -31.5 C-119.80340669966256 -24.606813399325127, -116.35681339932513 -17.713626798650257, -107.5 0 C-112.1681067970133 9.336213594026578, -116.83621359402657 18.672427188053156, -123.25 31.5 C-62.63682478192158 31.5, -2.023649563843165 31.5, 107.5 31.5 C107.5 17.89273572075451, 107.5 4.285471441509017, 107.5 -31.5 C53.286586560282956 -31.5, -0.9268268794340884 -31.5, -123.25 -31.5"/><path style="fill:#f8fafc !important;stroke:#94a3b8 !important" fill="none" stroke-width="1.3" stroke="#94a3b8" d="M-123.25 -31.5 C-119.37460109578119 -23.74920219156239, -115.49920219156239 -15.998404383124777, -107.5 0 M-123.25 -31.5 C-118.11511684337559 -21.230233686751166, -112.98023368675116 -10.960467373502333, -107.5 0 M-107.5 0 C-112.06163825574725 9.123276511494522, -116.62327651149452 18.246553022989044, -123.25 31.5 M-107.5 0 C-112.38041496447354 9.760829928947082, -117.26082992894709 19.521659857894164, -123.25 31.5 M-123.25 31.5 C-70.78505430039553 31.5, -18.320108600791045 31.5, 107.5 31.5 M-123.25 31.5 C-55.71422191671073 31.5, 11.821556166578546 31.5, 107.5 31.5 M107.5 31.5 C107.5 10.88974327044792, 107.5 -9.720513459104161, 107.5 -31.5 M107.5 31.5 C107.5 15.879699827866855, 107.5 0.25939965573370927, 107.5 -31.5 M107.5 -31.5 C58.51907733043645 -31.5, 9.538154660872905 -31.5, -123.25 -31.5 M107.5 -31.5 C55.11872923357686 -31.5, 2.737458467153715 -31.5, -123.25 -31.5"/></g><g transform="translate(-92.125, -24)" style="color:#64748b !important" class="label"><rect/><foreignObject height="48" width="200"><div xmlns="http://www.w3.org/1999/xhtml" style="color: rgb(100, 116, 139) !important; display: table; white-space: break-spaces; line-height: 1.5; max-width: 200px; text-align: center; width: 200px;"><span class="nodeLabel" style="color:#64748b !important"><p>LOG(INFO) 'Delivery detected — ...'</p></span></div></foreignObject></g></g><g transform="translate(532.2734375, 1243.25)" id="flowchart-A10-18" class="node default assign"><rect height="78" width="296.359375" y="-39" x="-148.1796875" style="fill:#f8fafc !important;stroke:#64748b !important" class="basic label-container"/><g transform="translate(-118.1796875, -24)" style="color:#1e293b !important" class="label"><rect/><foreignObject height="48" width="236.359375"><div xmlns="http://www.w3.org/1999/xhtml" style="color: rgb(30, 41, 59) !important; display: table; white-space: break-spaces; line-height: 1.5; max-width: 200px; text-align: center; width: 200px;"><span class="nodeLabel" style="color:#1e293b !important"><p>@action_taken := 'NOTIFY_HOMEOWNER_DEL...'</p></span></div></foreignObject></g></g><g transform="translate(859.8984375, 997.75)" id="flowchart-LOG11-25" class="node default log"><g transform="translate(7.875,0)" class="basic label-container"><path style="fill:#f8fafc !important;stroke:#94a3b8 !important" fill="#f8fafc" stroke-width="0" stroke="none" d="M-123.25 -31.5 C-118.8382948969887 -22.676589793977406, -114.4265897939774 -13.853179587954813, -107.5 0 C-111.2255686443795 7.45113728875902, -114.95113728875901 14.90227457751804, -123.25 31.5 C-67.5887248790285 31.5, -11.927449758057008 31.5, 107.5 31.5 C107.5 16.220403960131485, 107.5 0.9408079202629693, 107.5 -31.5 C55.02248330504575 -31.5, 2.5449666100915067 -31.5, -123.25 -31.5"/><path style="fill:#f8fafc !important;stroke:#94a3b8 !important" fill="none" stroke-width="1.3" stroke="#94a3b8" d="M-123.25 -31.5 C-119.18529914844214 -23.37059829688429, -115.12059829688428 -15.241196593768574, -107.5 0 M-123.25 -31.5 C-118.10924650993636 -21.21849301987271, -112.96849301987271 -10.936986039745424, -107.5 0 M-107.5 0 C-113.04716805881847 11.094336117636937, -118.59433611763694 22.188672235273874, -123.25 31.5 M-107.5 0 C-110.82528992313196 6.650579846263932, -114.15057984626394 13.301159692527865, -123.25 31.5 M-123.25 31.5 C-70.44536765835652 31.5, -17.640735316713034 31.5, 107.5 31.5 M-123.25 31.5 C-56.66814055212929 31.5, 9.913718895741425 31.5, 107.5 31.5 M107.5 31.5 C107.5 16.43132099407478, 107.5 1.3626419881495622, 107.5 -31.5 M107.5 31.5 C107.5 12.431714024858216, 107.5 -6.636571950283567, 107.5 -31.5 M107.5 -31.5 C54.106228314372295 -31.5, 0.7124566287445901 -31.5, -123.25 -31.5 M107.5 -31.5 C31.982838232557896 -31.5, -43.53432353488421 -31.5, -123.25 -31.5"/></g><g transform="translate(-92.125, -24)" style="color:#64748b !important" class="label"><rect/><foreignObject height="48" width="200"><div xmlns="http://www.w3.org/1999/xhtml" style="color: rgb(100, 116, 139) !important; display: table; white-space: break-spaces; line-height: 1.5; max-width: 200px; text-align: center; width: 200px;"><span class="nodeLabel" style="color:#64748b !important"><p>LOG(DEBUG) 'Routine activity — n...'</p></span></div></foreignObject></g></g><g transform="translate(859.8984375, 1243.25)" id="flowchart-A12-26" class="node default assign"><rect height="54" width="258.890625" y="-27" x="-129.4453125" style="fill:#f8fafc !important;stroke:#64748b !important" class="basic label-container"/><g transform="translate(-99.4453125, -12)" style="color:#1e293b !important" class="label"><rect/><foreignObject height="24" width="198.890625"><div xmlns="http://www.w3.org/1999/xhtml" style="color: rgb(30, 41, 59) !important; display: table-cell; white-space: nowrap; line-height: 1.5; max-width: 200px; text-align: center;"><span class="nodeLabel" style="color:#1e293b !important"><p>@action_taken := 'IGNORE'</p></span></div></foreignObject></g></g><g transform="translate(535, 1638.75)" id="flowchart-RET13-36" class="node default term"><rect height="87" width="236.75" y="-43.5" x="-118.375" ry="43.5" rx="43.5" style="fill:#fce7f3 !important;stroke:#ec4899 !important" class="basic label-container"/><g transform="translate(-100, -36)" style="color:#831843 !important" class="label"><rect/><foreignObject height="72" width="200"><div xmlns="http://www.w3.org/1999/xhtml" style="color: rgb(131, 24, 67) !important; display: table; white-space: break-spaces; line-height: 1.5; max-width: 200px; text-align: center; width: 200px;"><span class="nodeLabel" style="color:#831843 !important"><p>RETURN f'Action taken: (@ac...' (status='comp..., label=@scen...)</p></span></div></foreignObject></g></g><g transform="translate(1178.34375, 1488.75)" id="flowchart-LOG15-42" class="node default log"><g transform="translate(7.875,0)" class="basic label-container"><path style="fill:#f8fafc !important;stroke:#94a3b8 !important" fill="#f8fafc" stroke-width="0" stroke="none" d="M-123.25 -31.5 C-119.86438323603853 -24.72876647207706, -116.47876647207706 -17.957532944154117, -107.5 0 C-112.29109244562622 9.582184891252433, -117.08218489125244 19.164369782504867, -123.25 31.5 C-62.58659732509703 31.5, -1.9231946501940627 31.5, 107.5 31.5 C107.5 7.090922415291956, 107.5 -17.318155169416087, 107.5 -31.5 C46.62673024245452 -31.5, -14.246539515090959 -31.5, -123.25 -31.5"/><path style="fill:#f8fafc !important;stroke:#94a3b8 !important" fill="none" stroke-width="1.3" stroke="#94a3b8" d="M-123.25 -31.5 C-116.95480897692683 -18.909617953853648, -110.65961795385365 -6.319235907707295, -107.5 0 M-123.25 -31.5 C-117.30359198844187 -19.607183976883736, -111.35718397688373 -7.714367953767471, -107.5 0 M-107.5 0 C-112.31833008379077 9.63666016758153, -117.13666016758152 19.27332033516306, -123.25 31.5 M-107.5 0 C-111.39554526437942 7.79109052875883, -115.29109052875883 15.58218105751766, -123.25 31.5 M-123.25 31.5 C-35.37116246754128 31.5, 52.507675064917436 31.5, 107.5 31.5 M-123.25 31.5 C-70.88376790111201 31.5, -18.517535802224018 31.5, 107.5 31.5 M107.5 31.5 C107.5 13.598079815706416, 107.5 -4.303840368587167, 107.5 -31.5 M107.5 31.5 C107.5 14.442640385954057, 107.5 -2.614719228091886, 107.5 -31.5 M107.5 -31.5 C41.629415296277244 -31.5, -24.24116940744551 -31.5, -123.25 -31.5 M107.5 -31.5 C26.778778060630486 -31.5, -53.94244387873903 -31.5, -123.25 -31.5"/></g><g transform="translate(-92.125, -24)" style="color:#64748b !important" class="label"><rect/><foreignObject height="48" width="200"><div xmlns="http://www.w3.org/1999/xhtml" style="color: rgb(100, 116, 139) !important; display: table; white-space: break-spaces; line-height: 1.5; max-width: 200px; text-align: center; width: 200px;"><span class="nodeLabel" style="color:#64748b !important"><p>LOG(WARN) 'Classification faile...'</p></span></div></foreignObject></g></g><g transform="translate(1178.34375, 1638.75)" id="flowchart-RET16-43" class="node default term"><rect height="87" width="236.75" y="-43.5" x="-118.375" ry="43.5" rx="43.5" style="fill:#fce7f3 !important;stroke:#ec4899 !important" class="basic label-container"/><g transform="translate(-100, -36)" style="color:#831843 !important" class="label"><rect/><foreignObject height="72" width="200"><div xmlns="http://www.w3.org/1999/xhtml" style="color: rgb(131, 24, 67) !important; display: table; white-space: break-spaces; line-height: 1.5; max-width: 200px; text-align: center; width: 200px;"><span class="nodeLabel" style="color:#831843 !important"><p>RETURN 'Action taken: IGNORE' (status='error', reason='clas...)</p></span></div></foreignObject></g></g><g transform="translate(1178.34375, 1243.25)" id="flowchart-EXC14-41" class="node default ctrl"><polygon style="fill:#ede9fe !important;stroke:#8b5cf6 !important" transform="translate(-139,139)" class="label-container" points="139,0 278,-139 139,-278 0,-139"/><g transform="translate(-100, -24)" style="color:#3b0764 !important" class="label"><rect/><foreignObject height="48" width="200"><div xmlns="http://www.w3.org/1999/xhtml" style="color: rgb(59, 7, 100) !important; display: table; white-space: break-spaces; line-height: 1.5; max-width: 200px; text-align: center; width: 200px;"><span class="nodeLabel" style="color:#3b0764 !important"><p>EXCEPTION GenerationError</p></span></div></foreignObject></g></g></g></g></g></g></g></svg>